SplineFontDB: 1.0
FontName: DBThaiText-Bold
FullName: DBThaiText Bold
FamilyName: DBThaiText
Weight: Bold
Copyright: Typeface (c) The Monotype Corporation plc. Data (c) The Monotype Corporation plc/Type Solutions Inc. 1990-1992. All Rights Reserved\n\nModified by TLWG
Version: 1.1 : May 12, 2003
ItalicAngle: 0
UnderlinePosition: -477
UnderlineWidth: 205
Ascent: 800
Descent: 200
NeedsXUIDChange: 1
FSType: 0
PfmFamily: 33
TTFWeight: 700
TTFWidth: 5
Panose: 2 0 8 3 0 0 0 0 0 0
LineGap: 184
VLineGap: 0
ScriptLang: 2
 1 latn 1 dflt 
 1 thai 1 dflt 
LangName: 1033 "" "" "" "PfaEdit : DBThaiTextBold : 13-0-2003" 
Encoding: custom
UnicodeInterp: none
DisplaySize: -72
AntiAlias: 1
FitToEm: 1
WinInfo: 232 8 8
BeginPrivate: 3
BlueValues 31 [-31 0 726 753 786 805 959 976]
OtherBlues 11 [-260 -260]
ForceBold 4 true
EndPrivate
BeginChars: 293 258
StartChar: .notdef
Encoding: 0 -1 0
Width: 532
VWidth: 2048
Flags: HW
HStem: -28 70<109 462> 851 70<38 391>
VStem: 38 71<-28 851> 391 71<42 921>
Fore
38 -28 m 1
 38 921 l 1
 462 921 l 1
 462 -28 l 1
 38 -28 l 1
109 42 m 1
 391 42 l 1
 391 851 l 1
 109 851 l 1
 109 42 l 1
EndSplineSet
EndChar
StartChar: exclam
Encoding: 33 33 3
Width: 189
Flags: HW
HStem: 0 83<64 149> 395 20<64 149 149 149>
VStem: 64 85<0 83 295 415>
Fore
86 118 m 1
 64 295 l 1
 64 415 l 1
 149 415 l 1
 149 295 l 1
 124 118 l 1
 86 118 l 1
64 83 m 1
 149 83 l 1
 149 0 l 1
 64 0 l 1
 64 83 l 1
EndSplineSet
EndChar
StartChar: quotedbl
Encoding: 34 34 4
Width: 270
Flags: HW
HStem: 395 20
VStem: 29 78 163 78
Fore
240 363 m 0
 241 336 231 313 212 296 c 0
 193 278 175 268 156 266 c 1
 149 280 l 1
 162 287 172 293 179 299 c 0
 187 305 192 315 194 328 c 1
 183 328 173 331 163 337 c 0
 153 343 148 354 147 371 c 0
 147 383 151 393 158 402 c 0
 165 410 175 414 187 414 c 0
 205 414 218 409 226 400 c 0
 235 391 240 378 240 363 c 0
120 363 m 0
 121 336 111 313 92 296 c 0
 73 278 55 268 36 266 c 1
 29 280 l 1
 42 287 52 293 59 299 c 0
 67 305 72 315 74 328 c 1
 63 328 53 331 43 337 c 0
 33 343 28 354 27 371 c 0
 27 383 31 393 38 402 c 0
 45 410 55 414 67 414 c 0
 85 414 98 409 106 400 c 0
 115 391 120 378 120 363 c 0
EndSplineSet
EndChar
StartChar: numbersign
Encoding: 35 35 5
Width: 316
Flags: HW
HStem: -17 20 81 65<2 53 126 171 245 299> 216 65
VStem: 2 312
Fore
114 396 m 1
 174 396 l 1
 152 280 l 1
 209 281 l 1
 231 396 l 1
 291 396 l 1
 269 280 l 1
 314 280 l 1
 314 216 l 1
 259 216 l 1
 245 146 l 1
 299 146 l 1
 299 81 l 1
 231 81 l 1
 213 -17 l 1
 152 -17 l 1
 171 81 l 1
 114 81 l 1
 95 -17 l 1
 35 -17 l 1
 53 81 l 1
 2 81 l 1
 2 146 l 1
 66 146 l 1
 80 216 l 1
 25 216 l 1
 25 280 l 1
 92 280 l 1
 114 396 l 1
140 216 m 1
 126 146 l 1
 184 146 l 1
 199 216 l 1
 140 216 l 1
EndSplineSet
EndChar
StartChar: dollar
Encoding: 36 36 6
Width: 316
Flags: HW
VStem: 139 37<-12 -12 50 161 244 345 404 435>
Fore
295 284 m 1
 221 284 l 1
 221 303 216 317 206 327 c 0
 195 337 185 343 176 345 c 1
 176 232 l 1
 215 222 245 208 267 190 c 0
 288 173 300 148 299 117 c 0
 299 91 294 70 285 54 c 0
 276 37 266 25 253 17 c 0
 240 8 227 1 212 -2 c 0
 197 -6 185 -9 176 -11 c 1
 176 -71 l 1
 138 -71 l 1
 139 -12 l 1
 132 -11 125 -10 119 -9 c 0
 112 -8 104 -5 95 -2 c 0
 85 1 76 4 69 9 c 0
 62 14 53 20 44 29 c 0
 23 51 13 81 13 118 c 1
 88 118 l 1
 89 103 92 91 96 82 c 0
 100 73 104 66 109 62 c 0
 114 58 119 55 125 53 c 0
 130 50 135 49 139 48 c 1
 139 175 l 1
 107 181 80 193 58 211 c 0
 35 230 23 255 23 286 c 0
 22 320 33 348 54 369 c 0
 74 390 102 401 139 404 c 1
 139 435 l 1
 176 435 l 1
 176 404 l 1
 249 399 289 359 295 284 c 1
139 244 m 1
 139 347 l 1
 110 342 95 323 94 292 c 1
 95 284 97 277 100 271 c 0
 103 265 107 260 114 256 c 0
 121 251 130 247 139 244 c 1
176 161 m 1
 176 50 l 1
 179 51 183 53 188 55 c 0
 194 57 200 60 205 63 c 0
 210 66 214 70 218 76 c 0
 221 82 223 89 224 98 c 0
 224 131 208 152 176 161 c 1
EndSplineSet
EndChar
StartChar: percent
Encoding: 37 37 7
Width: 506
Flags: HW
HStem: -7 408
VStem: 12 209<281.5 310.5> 283 208<82.5 111>
Fore
162 -10 m 1
 117 -10 l 1
 345 403 l 1
 389 403 l 1
 162 -10 l 1
283 97 m 0
 283 125 293 149 313 170 c 0
 333 191 358 201 387 201 c 0
 416 201 439 191 460 170 c 0
 481 149 491 126 491 97 c 0
 491 68 481 43 460 23 c 0
 439 3 415 -7 387 -7 c 0
 358 -7 334 2 313 23 c 0
 292 44 283 68 283 97 c 0
12 296 m 0
 12 325 22 349 43 370 c 0
 64 391 88 401 117 401 c 0
 146 401 170 391 190 370 c 0
 211 349 221 325 221 296 c 0
 221 267 211 242 190 222 c 0
 170 202 146 192 117 192 c 0
 88 192 64 202 43 222 c 0
 22 242 12 267 12 296 c 0
340 97 m 0
 340 84 345 73 354 63 c 0
 363 54 374 49 387 49 c 0
 400 49 412 54 421 63 c 0
 430 73 434 84 434 97 c 0
 434 110 429 121 420 130 c 0
 411 139 400 144 387 144 c 0
 374 144 363 139 354 130 c 0
 345 121 340 110 340 97 c 0
69 296 m 0
 69 283 74 272 83 263 c 0
 92 254 104 249 117 249 c 0
 130 249 141 254 150 263 c 0
 159 272 164 283 164 296 c 0
 164 309 160 321 151 331 c 0
 142 340 130 344 117 344 c 0
 104 344 92 340 83 331 c 0
 74 321 69 309 69 296 c 0
EndSplineSet
EndChar
StartChar: ampersand
Encoding: 38 38 8
Width: 410
Flags: HW
HStem: 0 213<303 364 303 303> 395 20<172 195.5>
VStem: 31 364
Fore
298 213 m 1
 364 213 l 1
 364 192 360 170 353 148 c 0
 346 126 335 107 322 92 c 1
 395 0 l 1
 303 0 l 1
 275 35 l 1
 257 20 241 8 228 1 c 0
 214 -6 194 -11 168 -11 c 0
 131 -12 98 -1 71 20 c 0
 44 41 31 70 31 109 c 0
 31 111 32 119 33 134 c 0
 36 152 43 167 53 180 c 0
 63 192 74 202 87 209 c 0
 99 216 110 223 120 229 c 1
 111 239 104 247 98 254 c 0
 92 261 87 270 82 281 c 0
 77 292 74 303 74 315 c 0
 74 328 77 342 84 355 c 0
 92 374 105 389 123 400 c 0
 141 410 161 415 183 415 c 0
 208 415 229 410 248 397 c 0
 266 385 277 367 281 346 c 0
 282 337 283 330 283 324 c 0
 283 301 277 283 266 268 c 0
 254 253 238 239 217 224 c 1
 278 147 l 1
 284 152 289 160 293 171 c 0
 298 182 300 193 300 202 c 0
 300 205 299 209 298 213 c 1
163 291 m 2
 181 269 l 1
 188 273 194 276 198 279 c 0
 202 282 206 285 209 290 c 0
 212 295 215 302 216 311 c 0
 216 323 214 333 210 340 c 0
 207 347 198 351 183 351 c 0
 164 351 153 344 150 331 c 1
 150 318 153 303 163 291 c 2
233 87 m 1
 157 181 l 1
 138 169 125 161 118 156 c 0
 109 148 104 136 104 120 c 0
 104 101 113 83 130 68 c 0
 141 59 153 54 166 54 c 0
 185 54 208 65 233 87 c 1
EndSplineSet
EndChar
StartChar: quotesingle
Encoding: 39 39 9
Width: 136
Flags: HW
HStem: 395 20
VStem: -91 78
Fore
120 363 m 0
 121 336 111 313 92 296 c 0
 73 278 55 268 36 266 c 1
 29 280 l 1
 42 287 52 293 59 299 c 0
 67 305 72 315 74 328 c 1
 63 328 53 331 43 337 c 0
 33 343 28 354 27 371 c 0
 27 383 31 393 38 402 c 0
 45 410 55 414 67 414 c 0
 85 414 98 409 106 400 c 0
 115 391 120 378 120 363 c 0
EndSplineSet
EndChar
StartChar: parenleft
Encoding: 40 40 10
Width: 189
Flags: HW
HStem: 395 20<115 172 172 172>
VStem: 23 149
Fore
115 415 m 1
 172 415 l 1
 149 374 131 334 116 294 c 0
 101 253 94 214 94 175 c 0
 94 164 94 155 95 150 c 0
 97 104 105 57 120 8 c 0
 134 -41 151 -82 172 -115 c 1
 115 -115 l 1
 95 -80 82 -57 75 -44 c 0
 68 -31 60 -14 52 8 c 0
 44 29 38 51 33 73 c 0
 28 95 24 121 23 150 c 0
 23 177 26 204 32 230 c 0
 37 256 45 280 54 302 c 0
 63 324 72 343 81 358 c 0
 90 373 101 392 115 415 c 1
EndSplineSet
EndChar
StartChar: parenright
Encoding: 41 41 11
Width: 189
Flags: HW
HStem: 395 20<13 69 69 69>
VStem: 90 72<150 150>
Fore
13 415 m 1
 69 415 l 1
 98 370 120 328 137 289 c 0
 154 250 163 203 162 150 c 0
 161 97 152 53 138 17 c 0
 123 -19 100 -63 69 -115 c 1
 13 -115 l 1
 34 -82 52 -41 66 8 c 0
 80 56 88 103 90 150 c 0
 91 155 91 163 91 173 c 0
 91 194 89 214 85 235 c 0
 81 255 74 276 67 298 c 0
 59 321 52 341 43 358 c 0
 35 375 25 394 13 415 c 1
EndSplineSet
EndChar
StartChar: asterisk
Encoding: 42 42 12
Width: 221
Flags: HW
HStem: 395 20<86 130 130 130>
VStem: 86 44<345 415>
Fore
68 219 m 1
 31 250 l 1
 75 305 l 1
 13 327 l 1
 28 367 l 1
 86 345 l 1
 86 415 l 1
 130 415 l 1
 130 345 l 1
 188 367 l 1
 203 327 l 1
 141 305 l 1
 185 250 l 1
 149 219 l 1
 106 274 l 1
 68 219 l 1
EndSplineSet
EndChar
StartChar: plus
Encoding: 43 43 13
Width: 332
Flags: HW
HStem: -6 20 98 68<28 132 200 304>
VStem: 132 68<-6 98 166 270>
Fore
132 270 m 1
 200 270 l 1
 200 166 l 1
 304 166 l 1
 304 98 l 1
 200 98 l 1
 200 -6 l 1
 132 -6 l 1
 132 98 l 1
 28 98 l 1
 28 166 l 1
 132 166 l 1
 132 270 l 1
EndSplineSet
EndChar
StartChar: comma
Encoding: 44 44 14
Width: 195
Flags: HW
VStem: 57 93
Fore
150 43 m 0
 151 16 141 -7 122 -24 c 0
 103 -42 85 -52 66 -54 c 1
 59 -40 l 1
 72 -33 82 -27 89 -21 c 0
 97 -15 102 -5 104 8 c 1
 93 8 83 11 73 17 c 0
 63 23 58 34 57 51 c 0
 57 63 61 73 68 82 c 0
 75 90 85 94 97 94 c 0
 115 94 128 89 136 80 c 0
 145 71 150 58 150 43 c 0
EndSplineSet
EndChar
StartChar: hyphen
Encoding: 45 45 15
Width: 189
Flags: HW
HStem: 118 78<15 170>
VStem: 15 155<118 196>
Fore
15 196 m 1
 170 196 l 1
 170 118 l 1
 15 118 l 1
 15 196 l 1
EndSplineSet
EndChar
StartChar: period
Encoding: 46 46 16
Width: 142
Flags: HW
HStem: 0 20
VStem: 27 83<36 47.5>
Fore
69 0 m 0
 56 0 45 4 38 12 c 0
 31 20 27 30 27 42 c 0
 27 53 31 63 38 71 c 0
 45 79 56 83 69 83 c 0
 82 83 92 79 99 71 c 0
 106 64 110 54 110 42 c 0
 110 30 106 20 99 12 c 0
 92 4 82 0 69 0 c 0
EndSplineSet
EndChar
StartChar: slash
Encoding: 47 47 17
Width: 158
Flags: HW
HStem: -8 20
VStem: 1 155
Fore
121 407 m 1
 156 407 l 1
 37 -8 l 1
 1 -8 l 1
 121 407 l 1
EndSplineSet
EndChar
StartChar: zero
Encoding: 48 48 18
Width: 316
Flags: HW
HStem: -13 73<145.5 167.5>
VStem: 17 79<172 227.5> 214 80<172.5 227.5>
Fore
155 -13 m 0
 136 -13 117 -10 100 -3 c 0
 83 4 69 13 58 26 c 0
 31 60 17 118 17 200 c 0
 17 283 31 340 58 373 c 0
 69 386 83 395 100 402 c 0
 117 409 136 412 155 412 c 0
 198 412 231 399 253 373 c 0
 280 340 294 283 294 200 c 0
 294 118 280 60 253 26 c 0
 231 0 198 -13 155 -13 c 0
155 60 m 0
 180 60 196 69 203 87 c 0
 210 107 214 145 214 200 c 0
 214 255 210 292 203 313 c 0
 196 331 180 340 155 340 c 0
 144 340 134 338 125 333 c 0
 116 328 111 322 108 313 c 0
 100 293 96 255 96 200 c 0
 96 144 100 106 108 87 c 1
 113 69 129 60 155 60 c 0
EndSplineSet
EndChar
StartChar: one
Encoding: 49 49 19
Width: 316
Flags: HW
HStem: 0 20
VStem: 135 80<0 279 279 279>
Fore
215 403 m 1
 215 0 l 1
 135 0 l 1
 135 279 l 1
 39 279 l 1
 39 332 l 1
 54 332 71 334 88 338 c 0
 105 341 118 346 127 353 c 0
 149 368 161 385 162 403 c 1
 215 403 l 1
EndSplineSet
EndChar
StartChar: two
Encoding: 50 50 20
Width: 316
Flags: HW
HStem: 0 72<121 291>
VStem: 17 275
Fore
291 72 m 1
 291 0 l 1
 17 0 l 1
 19 28 24 52 31 73 c 0
 38 94 53 115 79 135 c 0
 97 150 120 165 143 183 c 0
 166 200 181 213 189 222 c 0
 204 241 212 260 212 280 c 0
 212 287 211 295 209 304 c 0
 207 318 201 329 190 336 c 0
 179 343 168 347 155 347 c 0
 151 347 146 346 141 345 c 0
 114 339 100 312 100 264 c 1
 23 264 l 1
 23 312 35 349 58 375 c 0
 81 400 117 415 164 413 c 0
 249 409 294 358 292 266 c 0
 291 227 256 186 195 143 c 0
 152 113 128 89 121 72 c 1
 291 72 l 1
EndSplineSet
EndChar
StartChar: three
Encoding: 51 51 21
Width: 316
Flags: HW
HStem: -13 20
VStem: 17 277
Fore
17 118 m 1
 93 118 l 1
 94 105 96 95 98 88 c 0
 100 81 104 74 109 69 c 0
 114 64 121 59 130 56 c 0
 141 53 153 51 167 51 c 1
 176 54 184 59 189 64 c 0
 205 79 213 96 213 117 c 0
 213 136 205 151 190 163 c 0
 175 174 153 180 124 180 c 1
 124 234 l 1
 146 234 164 238 179 245 c 0
 193 252 201 264 203 280 c 0
 204 288 205 294 205 297 c 0
 205 306 203 315 200 323 c 0
 196 331 190 337 182 342 c 0
 174 346 164 349 151 349 c 0
 128 350 113 342 106 329 c 0
 100 316 97 298 96 276 c 1
 23 276 l 1
 23 305 27 329 35 348 c 0
 43 367 60 384 86 399 c 0
 102 408 129 413 168 412 c 0
 200 412 225 403 242 388 c 0
 258 375 268 360 273 345 c 0
 278 330 281 311 281 289 c 1
 279 272 275 259 269 250 c 0
 262 240 251 229 236 216 c 1
 257 203 272 189 281 173 c 0
 290 158 295 135 294 105 c 0
 293 76 280 49 259 24 c 0
 237 -1 201 -13 152 -13 c 0
 131 -13 112 -10 95 -5 c 0
 78 0 61 12 46 31 c 0
 35 44 27 58 24 72 c 0
 20 86 18 101 17 118 c 1
EndSplineSet
EndChar
StartChar: four
Encoding: 52 52 22
Width: 316
Flags: HW
HStem: 0 20 89 65<71 175 255 297>
VStem: 175 80<0 89 154 322 322 322>
Fore
162 403 m 1
 255 403 l 1
 255 154 l 1
 297 154 l 1
 297 89 l 1
 255 89 l 1
 255 0 l 1
 175 0 l 1
 175 89 l 1
 14 89 l 1
 14 157 l 1
 162 403 l 1
175 322 m 1
 71 154 l 1
 175 154 l 1
 175 322 l 1
EndSplineSet
EndChar
StartChar: five
Encoding: 53 53 23
Width: 316
Flags: HW
HStem: -13 20 332 71<113 279 113 113>
VStem: 213 81<120.5 142.5>
Fore
15 105 m 1
 94 105 l 1
 95 95 97 87 100 80 c 0
 103 73 108 67 117 62 c 0
 126 57 138 54 154 54 c 0
 174 55 189 63 199 78 c 0
 208 93 213 110 213 131 c 0
 213 154 209 172 200 184 c 0
 187 200 169 209 145 208 c 0
 122 208 107 197 100 179 c 1
 27 179 l 1
 64 403 l 1
 279 403 l 1
 279 332 l 1
 113 332 l 1
 99 249 l 1
 114 258 127 264 136 267 c 0
 147 270 158 272 169 272 c 0
 182 272 197 270 212 265 c 0
 239 256 260 239 274 215 c 0
 287 191 294 164 294 135 c 0
 294 102 285 73 271 50 c 0
 259 31 245 17 227 7 c 0
 209 -4 185 -10 155 -13 c 1
 128 -13 109 -10 96 -5 c 0
 83 0 70 8 57 18 c 0
 44 29 35 39 28 50 c 0
 22 61 18 70 17 79 c 0
 16 87 15 96 15 105 c 1
EndSplineSet
EndChar
StartChar: six
Encoding: 54 54 24
Width: 316
Flags: HW
HStem: -13 20 350 63<158.5 167>
VStem: 220 75<122.5 143.5>
Fore
288 313 m 1
 214 313 l 1
 206 337 190 349 167 350 c 0
 150 350 137 346 126 338 c 0
 115 331 108 322 105 312 c 0
 99 297 96 279 96 258 c 0
 96 248 97 241 98 236 c 1
 109 245 120 253 133 258 c 0
 146 263 164 266 185 266 c 0
 221 266 250 250 272 218 c 0
 287 195 295 167 295 136 c 0
 295 109 291 86 282 67 c 0
 270 40 254 20 235 8 c 0
 215 -5 190 -12 160 -13 c 0
 128 -14 101 -4 78 14 c 0
 55 33 39 56 31 84 c 0
 22 117 18 156 18 201 c 0
 18 241 22 276 31 306 c 0
 41 337 57 363 79 383 c 0
 101 403 130 413 165 413 c 0
 174 413 182 413 187 412 c 0
 226 407 252 394 266 374 c 0
 279 354 287 334 288 313 c 1
104 169 m 0
 98 157 95 143 95 128 c 0
 95 107 100 90 110 76 c 0
 119 64 133 57 151 54 c 1
 172 54 187 60 198 72 c 0
 213 89 220 109 220 134 c 0
 220 153 216 168 208 181 c 0
 197 197 179 205 156 205 c 0
 145 204 135 201 126 195 c 0
 117 190 109 181 104 169 c 0
EndSplineSet
EndChar
StartChar: seven
Encoding: 55 55 25
Width: 316
Flags: HW
HStem: 0 20 332 71<17 216>
VStem: 17 283<341 403>
Fore
17 403 m 1
 300 403 l 1
 300 341 l 1
 279 316 260 290 243 264 c 0
 226 238 212 211 199 183 c 0
 187 155 177 126 169 96 c 0
 162 66 157 34 155 0 c 1
 75 0 l 1
 80 40 87 75 95 104 c 0
 102 133 112 160 123 185 c 0
 134 209 147 233 162 256 c 0
 177 280 195 305 216 332 c 1
 17 332 l 1
 17 403 l 1
EndSplineSet
EndChar
StartChar: eight
Encoding: 56 56 26
Width: 316
Flags: HW
HStem: -13 20 352 61<162 172>
VStem: 13 82<111.5 131.5>
Fore
278 57 m 1
 267 34 249 17 226 5 c 0
 202 -7 177 -14 150 -13 c 0
 124 -13 100 -6 77 7 c 0
 54 19 37 36 26 58 c 0
 17 75 13 94 13 117 c 0
 13 164 34 198 75 220 c 1
 60 232 49 244 40 256 c 0
 31 269 27 284 27 301 c 0
 27 319 31 336 40 352 c 0
 50 371 64 386 83 397 c 0
 102 408 124 413 147 413 c 0
 202 413 241 398 262 368 c 0
 279 345 287 323 287 300 c 0
 287 281 282 265 271 250 c 0
 260 235 247 225 232 220 c 1
 253 214 269 202 281 184 c 0
 293 166 299 146 299 123 c 0
 299 98 292 76 278 57 c 1
192 255 m 1
 201 260 207 267 211 276 c 0
 216 285 218 294 218 303 c 0
 218 316 214 326 206 334 c 0
 197 345 182 352 162 352 c 0
 141 353 125 347 114 337 c 0
 103 328 97 315 97 300 c 0
 97 284 103 270 114 258 c 0
 123 249 135 242 152 242 c 0
 171 241 185 246 192 255 c 1
197 72 m 0
 201 76 205 83 208 93 c 0
 211 103 213 113 213 123 c 0
 213 138 209 151 202 162 c 0
 192 178 177 187 156 188 c 0
 137 188 121 182 110 169 c 0
 100 158 95 142 95 121 c 0
 95 102 99 87 106 76 c 1
 119 62 134 53 151 53 c 0
 170 52 186 59 197 72 c 0
EndSplineSet
EndChar
StartChar: nine
Encoding: 57 57 27
Width: 316
Flags: HW
HStem: -13 63<136.5 152.5> 395 20<134.5 149>
VStem: 16 71<259 281>
Fore
21 94 m 1
 99 94 l 1
 99 84 103 74 112 64 c 0
 121 55 131 50 142 50 c 0
 173 50 194 63 204 88 c 0
 212 108 216 127 216 144 c 0
 216 153 215 160 212 166 c 1
 201 153 188 143 171 136 c 0
 163 133 154 131 144 131 c 0
 131 131 121 131 113 133 c 0
 74 140 46 163 30 200 c 0
 21 221 16 244 16 270 c 0
 16 301 22 326 34 347 c 0
 45 366 61 383 81 396 c 0
 100 409 122 415 147 415 c 0
 151 415 158 414 167 413 c 0
 176 413 189 410 204 404 c 0
 219 397 233 388 246 376 c 0
 259 364 268 350 272 335 c 1
 287 302 294 262 294 215 c 0
 294 183 291 153 285 124 c 0
 278 95 271 72 262 55 c 0
 247 28 229 9 207 0 c 0
 185 -9 163 -13 142 -13 c 0
 103 -13 73 -1 52 23 c 0
 31 48 21 71 21 94 c 1
196 329 m 1
 185 341 169 347 149 347 c 0
 132 347 117 339 102 323 c 1
 92 310 87 292 87 270 c 0
 87 248 93 231 106 218 c 0
 118 205 133 199 151 199 c 0
 169 199 184 206 196 219 c 0
 208 232 214 249 214 270 c 0
 214 283 212 296 208 307 c 0
 205 318 201 325 196 329 c 1
EndSplineSet
EndChar
StartChar: colon
Encoding: 58 58 28
Width: 173
Flags: HW
HStem: 0 20
VStem: 52 81<34.5 45.5 276.5 287>
Fore
92 0 m 0
 79 0 70 4 63 12 c 0
 56 19 52 29 52 40 c 0
 52 51 56 60 63 68 c 0
 70 76 79 80 92 80 c 0
 105 80 115 76 122 68 c 0
 129 61 133 51 133 40 c 0
 133 29 129 20 122 12 c 0
 115 4 105 0 92 0 c 0
92 242 m 0
 79 242 70 246 63 254 c 0
 56 262 52 271 52 282 c 0
 52 292 56 301 63 309 c 0
 70 317 79 321 92 321 c 0
 105 321 115 317 122 310 c 0
 129 302 133 293 133 282 c 0
 133 271 129 262 122 254 c 0
 115 246 105 242 92 242 c 0
EndSplineSet
EndChar
StartChar: semicolon
Encoding: 59 59 29
Width: 195
Flags: HW
VStem: 57 93
Fore
100 215 m 0
 86 215 75 219 68 228 c 0
 61 237 57 247 57 259 c 0
 57 271 61 281 68 290 c 0
 75 299 86 303 100 303 c 0
 115 303 126 299 133 290 c 0
 140 281 144 271 144 259 c 0
 144 247 140 237 133 228 c 0
 125 219 114 215 100 215 c 0
150 43 m 0
 151 16 141 -7 122 -24 c 0
 103 -42 85 -52 66 -54 c 1
 59 -40 l 1
 72 -33 82 -27 89 -21 c 0
 97 -15 102 -5 104 8 c 1
 93 8 83 11 73 17 c 0
 63 23 58 34 57 51 c 0
 57 63 61 73 68 82 c 0
 75 90 85 94 97 94 c 0
 115 94 128 89 136 80 c 0
 145 71 150 58 150 43 c 0
EndSplineSet
EndChar
StartChar: less
Encoding: 60 60 30
Width: 332
Flags: HW
HStem: -6 20
VStem: 23 278
Fore
23 98 m 1
 23 166 l 1
 301 270 l 1
 301 196 l 1
 122 132 l 1
 301 68 l 1
 301 -6 l 1
 23 98 l 1
EndSplineSet
EndChar
StartChar: equal
Encoding: 61 61 31
Width: 332
Flags: HW
HStem: 28 70<28 304> 166 68<28 304>
VStem: 28 276<28 98 166 234>
Fore
28 234 m 1
 304 234 l 1
 304 166 l 1
 28 166 l 1
 28 234 l 1
28 98 m 1
 304 98 l 1
 304 28 l 1
 28 28 l 1
 28 98 l 1
EndSplineSet
EndChar
StartChar: greater
Encoding: 62 62 32
Width: 332
Flags: HW
HStem: -6 20
VStem: 23 278
Fore
23 270 m 1
 301 166 l 1
 301 98 l 1
 23 -6 l 1
 23 68 l 1
 201 132 l 1
 23 196 l 1
 23 270 l 1
EndSplineSet
EndChar
StartChar: question
Encoding: 63 63 33
Width: 348
Flags: HW
HStem: 0 83<136 221>
VStem: 136 85<0 83>
Fore
209 114 m 1
 140 114 l 1
 140 143 145 166 156 185 c 0
 167 202 183 220 206 237 c 0
 224 250 234 270 233 296 c 0
 233 313 226 326 215 335 c 0
 204 344 191 349 176 349 c 0
 159 349 144 343 132 330 c 0
 120 317 114 299 114 274 c 1
 37 274 l 1
 37 323 51 363 80 394 c 1
 105 414 135 424 171 424 c 0
 193 424 213 421 232 414 c 0
 251 407 266 398 277 387 c 0
 303 362 316 332 316 296 c 0
 316 273 311 252 302 235 c 0
 300 231 297 226 292 220 c 0
 287 214 282 210 278 207 c 0
 273 203 269 199 264 196 c 0
 259 192 253 188 247 183 c 0
 231 171 220 162 216 153 c 0
 211 143 209 130 209 114 c 1
136 0 m 1
 136 83 l 1
 221 83 l 1
 221 0 l 1
 136 0 l 1
EndSplineSet
EndChar
StartChar: at
Encoding: 64 64 34
Width: 554
Flags: HW
HStem: -78 50<266.5 295> 377 47<279.5 309>
VStem: 15 56<138.5 148.5>
Fore
366 290 m 1
 417 290 l 1
 369 118 l 1
 369 109 370 101 372 95 c 0
 373 88 377 83 382 80 c 0
 385 79 389 78 395 78 c 0
 405 78 413 80 420 85 c 1
 431 90 442 98 451 109 c 0
 461 121 468 131 471 140 c 0
 482 163 488 186 488 211 c 0
 488 225 486 238 482 251 c 0
 479 266 470 282 455 301 c 0
 440 320 423 334 406 345 c 0
 373 366 333 377 285 377 c 0
 270 377 254 375 237 372 c 0
 217 368 196 357 173 340 c 0
 151 323 132 303 116 282 c 0
 86 243 71 197 71 146 c 0
 71 131 74 117 78 103 c 0
 83 88 87 75 94 63 c 0
 101 52 107 43 114 36 c 0
 141 8 177 -11 222 -22 c 0
 239 -26 257 -28 276 -28 c 0
 314 -28 353 -21 393 -7 c 1
 409 -52 l 1
 375 -69 330 -78 273 -78 c 0
 254 -78 239 -77 226 -75 c 0
 207 -72 190 -69 174 -64 c 0
 157 -59 140 -51 121 -38 c 0
 102 -26 83 -10 65 11 c 0
 50 29 38 50 29 73 c 0
 20 96 15 118 15 137 c 0
 15 160 17 180 21 198 c 0
 24 216 30 234 39 252 c 0
 47 270 57 287 68 302 c 0
 85 325 106 348 133 370 c 0
 160 391 188 405 219 414 c 0
 242 421 266 424 293 424 c 0
 341 424 384 413 421 391 c 0
 484 354 522 307 534 252 c 0
 537 236 539 220 539 205 c 0
 539 176 533 150 522 127 c 0
 503 87 479 60 449 45 c 0
 433 37 416 33 398 33 c 0
 385 33 374 35 363 38 c 0
 348 42 335 53 324 71 c 1
 305 55 289 44 277 39 c 0
 265 34 253 31 240 31 c 0
 230 31 217 35 201 42 c 0
 185 49 173 59 164 72 c 0
 152 91 146 110 146 130 c 0
 146 134 146 141 148 150 c 0
 156 197 177 233 208 258 c 0
 237 283 265 295 292 295 c 0
 299 295 306 294 312 292 c 0
 336 286 351 274 357 256 c 1
 366 290 l 1
243 77 m 1
 263 77 279 82 291 93 c 1
 306 104 317 120 325 142 c 0
 334 164 338 184 338 202 c 0
 337 228 324 245 300 253 c 0
 296 254 293 255 290 255 c 0
 281 255 271 252 262 247 c 0
 252 242 243 234 234 225 c 0
 225 216 218 204 212 189 c 0
 206 174 201 159 201 144 c 0
 200 127 205 112 213 100 c 0
 220 88 230 80 243 77 c 1
EndSplineSet
EndChar
StartChar: A
Encoding: 65 65 35
Width: 410
Flags: HW
HStem: 0 20 83 71<158 264> 395 20<159 258 258 258>
VStem: 15 385<0 0>
Fore
258 415 m 1
 400 0 l 1
 313 0 l 1
 284 83 l 1
 131 83 l 1
 102 0 l 1
 15 0 l 1
 159 415 l 1
 258 415 l 1
209 315 m 1
 158 154 l 1
 264 154 l 1
 209 315 l 1
EndSplineSet
EndChar
StartChar: B
Encoding: 66 66 36
Width: 410
Flags: HW
HStem: 0 71<132 232 232 234> 178 71<132 229 229 234> 344 71<132 132 132 231 231 233>
VStem: 47 85<71 178 249 344>
Fore
47 0 m 1
 47 415 l 1
 231 415 l 2
 246 415 264 412 284 407 c 0
 303 402 319 394 330 383 c 1
 342 374 351 364 356 355 c 0
 358 351 360 343 363 332 c 0
 366 320 367 311 368 306 c 0
 368 291 365 277 358 262 c 0
 352 247 342 233 328 221 c 1
 341 212 352 199 361 184 c 0
 370 168 376 151 378 134 c 1
 378 110 375 90 368 73 c 0
 361 56 350 41 335 28 c 0
 312 9 279 0 234 0 c 2
 47 0 l 1
132 344 m 1
 132 249 l 1
 229 249 l 2
 247 249 261 253 271 262 c 0
 281 271 286 282 286 296 c 0
 285 328 267 344 233 344 c 2
 132 344 l 1
132 178 m 1
 132 71 l 1
 232 71 l 2
 249 71 264 74 277 81 c 0
 290 88 297 104 296 129 c 0
 296 149 290 162 279 168 c 0
 268 175 253 178 234 178 c 2
 132 178 l 1
EndSplineSet
EndChar
StartChar: C
Encoding: 67 67 37
Width: 410
Flags: HW
HStem: -13 20 401 20<168.5 237.5>
VStem: 25 365
Fore
307 142 m 1
 390 142 l 1
 390 121 385 100 374 79 c 0
 363 57 349 40 334 27 c 0
 321 16 303 7 281 0 c 0
 259 -8 236 -13 212 -13 c 0
 165 -14 127 0 96 25 c 0
 65 51 44 86 33 131 c 0
 28 150 25 175 25 204 c 0
 25 235 28 261 35 283 c 0
 62 375 122 421 215 421 c 0
 260 421 297 410 327 389 c 0
 367 362 388 324 390 274 c 1
 308 274 l 1
 307 283 304 294 298 306 c 0
 291 318 281 328 266 337 c 0
 251 346 230 351 204 350 c 0
 185 350 169 342 154 330 c 0
 139 317 128 302 121 284 c 0
 114 267 109 243 108 212 c 0
 107 195 109 179 111 165 c 0
 112 151 115 138 121 125 c 0
 133 98 152 78 175 67 c 0
 187 62 198 60 208 60 c 0
 219 60 231 62 244 65 c 0
 270 72 286 83 293 96 c 0
 300 109 305 125 307 142 c 1
EndSplineSet
EndChar
StartChar: D
Encoding: 68 68 38
Width: 410
Flags: HW
HStem: 0 71<129 197 197 218.5> 344 71<129 129 129 206>
VStem: 44 85<71 344> 301 86<209 235.5>
Fore
44 0 m 1
 44 415 l 1
 237 415 l 2
 252 415 268 412 284 406 c 0
 299 400 315 390 330 375 c 0
 345 361 357 342 369 318 c 0
 380 295 387 264 387 226 c 0
 387 192 383 162 376 136 c 0
 369 110 359 89 349 73 c 0
 334 50 317 33 296 20 c 0
 275 7 253 0 231 0 c 2
 44 0 l 1
129 344 m 1
 129 71 l 1
 197 71 l 2
 240 71 270 90 287 127 c 0
 296 148 301 177 301 215 c 0
 301 256 293 286 280 306 c 0
 270 321 260 331 248 336 c 0
 236 341 222 344 206 344 c 2
 129 344 l 1
EndSplineSet
EndChar
StartChar: E
Encoding: 69 69 39
Width: 379
Flags: HW
HStem: 0 71<130 355> 178 71<130 329> 344 71<130 345 130 130>
VStem: 45 85<71 178 249 344>
Fore
45 415 m 1
 345 415 l 1
 345 344 l 1
 130 344 l 1
 130 249 l 1
 329 249 l 1
 329 178 l 1
 130 178 l 1
 130 71 l 1
 355 71 l 1
 355 0 l 1
 45 0 l 1
 45 415 l 1
EndSplineSet
EndChar
StartChar: F
Encoding: 70 70 40
Width: 348
Flags: HW
HStem: 0 20 178 71<127 309> 344 71<127 333 127 127>
VStem: 42 85<0 178 249 344>
Fore
42 415 m 1
 333 415 l 1
 333 344 l 1
 127 344 l 1
 127 249 l 1
 309 249 l 1
 309 178 l 1
 127 178 l 1
 127 0 l 1
 42 0 l 1
 42 415 l 1
EndSplineSet
EndChar
StartChar: G
Encoding: 71 71 41
Width: 442
Flags: HW
HStem: -13 20 152 71<238 333> 351 70<212 234.5>
VStem: 24 82<188.5 215.5> 238 166<152 223>
Fore
238 152 m 1
 238 223 l 1
 404 223 l 1
 404 -2 l 1
 353 -2 l 1
 343 50 l 1
 332 37 322 26 313 19 c 1
 304 10 290 3 272 -3 c 0
 254 -10 232 -14 207 -13 c 0
 188 -13 172 -9 160 -5 c 1
 147 -3 137 2 128 7 c 0
 119 12 111 18 103 25 c 0
 95 32 89 37 86 40 c 0
 66 60 51 84 40 113 c 0
 29 142 24 173 24 204 c 0
 24 248 34 289 55 326 c 0
 75 363 104 391 142 407 c 0
 165 417 191 421 221 421 c 0
 248 421 272 418 295 412 c 0
 318 406 338 394 357 376 c 0
 384 349 400 318 404 283 c 1
 326 283 l 1
 319 306 307 323 289 334 c 0
 271 345 250 351 225 351 c 0
 199 351 175 343 152 328 c 1
 137 315 126 297 118 274 c 0
 111 252 106 228 106 203 c 0
 106 173 111 149 120 131 c 0
 143 86 174 61 215 56 c 1
 258 56 288 70 309 95 c 0
 322 112 331 130 333 152 c 1
 238 152 l 1
EndSplineSet
EndChar
StartChar: H
Encoding: 72 72 42
Width: 410
Flags: HW
HStem: 0 20 188 71<124 288> 395 20<39 124 124 124 288 374 374 374>
VStem: 39 85<0 188 259 415> 288 86<0 188 188 188 259 415>
Fore
39 0 m 1
 39 415 l 1
 124 415 l 1
 124 259 l 1
 288 259 l 1
 288 415 l 1
 374 415 l 1
 374 0 l 1
 288 0 l 1
 288 188 l 1
 124 188 l 1
 124 0 l 1
 39 0 l 1
EndSplineSet
EndChar
StartChar: I
Encoding: 73 73 43
Width: 158
Flags: HW
HStem: 0 20 395 20<36 121 121 121>
VStem: 36 85<0 415>
Fore
121 415 m 1
 121 0 l 1
 36 0 l 1
 36 415 l 1
 121 415 l 1
EndSplineSet
EndChar
StartChar: J
Encoding: 74 74 44
Width: 316
Flags: HW
HStem: -13 20 395 20<191 276 276 276>
VStem: 14 85<106 111 111 153> 191 85<105 415>
Fore
191 415 m 1
 276 415 l 1
 276 99 l 2
 276 71 266 47 247 26 c 0
 226 2 195 -12 155 -13 c 0
 118 -14 89 -8 70 2 c 0
 57 9 46 18 38 29 c 0
 30 40 24 52 21 65 c 0
 17 78 14 91 14 106 c 2
 14 153 l 1
 99 153 l 1
 99 111 l 2
 99 98 102 86 108 75 c 0
 114 64 127 58 147 59 c 0
 163 59 174 65 181 74 c 0
 188 83 191 93 191 105 c 2
 191 415 l 1
EndSplineSet
EndChar
StartChar: K
Encoding: 75 75 45
Width: 410
Flags: HW
HStem: 0 20 395 20<42 127 127 127 290 391 391 391>
VStem: 42 85<0 133 233 415>
Fore
42 0 m 1
 42 415 l 1
 127 415 l 1
 127 233 l 1
 290 415 l 1
 391 415 l 1
 227 235 l 1
 408 0 l 1
 305 0 l 1
 171 180 l 1
 127 133 l 1
 127 0 l 1
 42 0 l 1
EndSplineSet
EndChar
StartChar: L
Encoding: 76 76 46
Width: 348
Flags: HW
HStem: 0 71<131 329> 395 20<45 131 131 131>
VStem: 45 86<71 415>
Fore
45 415 m 1
 131 415 l 1
 131 71 l 1
 329 71 l 1
 329 0 l 1
 45 0 l 1
 45 415 l 1
EndSplineSet
EndChar
StartChar: M
Encoding: 77 77 47
Width: 474
Flags: HW
HStem: 0 20 395 20<37 162 162 162 317 442 442 442>
VStem: 37 86<0 336> 356 86<0 336 336 336>
Fore
282 0 m 1
 197 0 l 1
 123 336 l 1
 123 0 l 1
 37 0 l 1
 37 415 l 1
 162 415 l 1
 240 96 l 1
 317 415 l 1
 442 415 l 1
 442 0 l 1
 356 0 l 1
 356 336 l 1
 282 0 l 1
EndSplineSet
EndChar
StartChar: N
Encoding: 78 78 48
Width: 410
Flags: HW
HStem: 0 20 395 20<39 123 123 123 291 376 376 376>
VStem: 39 85<0 289> 291 85<130 415>
Fore
39 415 m 1
 123 415 l 1
 291 130 l 1
 291 415 l 1
 376 415 l 1
 376 0 l 1
 292 0 l 1
 124 289 l 1
 124 0 l 1
 39 0 l 1
 39 415 l 1
EndSplineSet
EndChar
StartChar: O
Encoding: 79 79 49
Width: 442
Flags: HW
HStem: -13 74<207.5 238> 347 75<207.5 231.5>
VStem: 23 82<192.5 215.5> 340 82<192.5 215.5>
Fore
422 204 m 0
 422 174 416 144 405 114 c 0
 394 83 380 58 361 39 c 0
 328 4 282 -13 223 -13 c 0
 164 -13 118 4 84 39 c 0
 65 58 51 83 40 114 c 0
 29 144 23 174 23 204 c 0
 23 235 29 266 40 295 c 0
 51 325 65 350 84 370 c 0
 118 405 164 422 223 422 c 0
 240 422 256 420 273 417 c 0
 290 413 306 407 321 399 c 0
 336 392 349 382 361 370 c 0
 380 350 394 325 405 295 c 0
 416 266 422 235 422 204 c 0
223 61 m 0
 253 61 278 70 299 89 c 0
 312 101 323 117 330 138 c 0
 337 159 340 181 340 204 c 0
 340 227 337 249 330 270 c 0
 323 291 312 307 299 319 c 0
 278 338 253 347 223 347 c 0
 192 347 167 338 146 319 c 0
 133 307 123 291 116 271 c 0
 109 250 105 227 105 204 c 0
 105 181 109 159 116 139 c 0
 123 118 133 101 146 89 c 0
 167 70 192 61 223 61 c 0
EndSplineSet
EndChar
StartChar: P
Encoding: 80 80 50
Width: 379
Flags: HW
HStem: 0 20 148 71<129 224 224 230> 344 71<129 129 129 220>
VStem: 43 86<0 148 219 344>
Fore
43 0 m 1
 43 415 l 1
 228 415 l 2
 253 415 277 410 298 403 c 0
 320 395 337 377 349 348 c 0
 356 331 360 311 360 286 c 0
 360 259 356 237 349 222 c 0
 326 173 286 148 230 148 c 2
 129 148 l 1
 129 0 l 1
 43 0 l 1
129 344 m 1
 129 219 l 1
 224 219 l 2
 245 219 260 231 271 254 c 0
 271 256 272 261 274 269 c 0
 276 276 277 283 277 290 c 0
 277 298 276 305 274 312 c 0
 267 333 249 344 220 344 c 2
 129 344 l 1
EndSplineSet
EndChar
StartChar: Q
Encoding: 81 81 51
Width: 442
Flags: HW
HStem: -13 74<209 233> 347 75<209 238>
VStem: 25 81<192.5 215.5> 342 82<190.5 216>
Fore
379 58 m 1
 424 15 l 1
 380 -31 l 1
 332 15 l 1
 300 -4 264 -13 224 -13 c 0
 166 -13 120 4 86 39 c 0
 67 58 53 83 42 113 c 0
 31 142 25 173 25 204 c 0
 25 236 31 267 42 296 c 0
 53 325 67 350 86 370 c 0
 120 405 166 422 224 422 c 0
 252 422 278 418 302 409 c 0
 326 400 346 387 362 370 c 0
 382 349 397 324 408 295 c 0
 419 266 424 235 424 204 c 0
 424 177 420 151 412 125 c 0
 404 100 393 77 379 58 c 1
272 72 m 1
 229 112 l 1
 273 159 l 1
 320 114 l 1
 333 137 342 167 342 204 c 0
 342 228 338 250 331 271 c 0
 324 291 313 307 300 319 c 0
 280 338 255 347 224 347 c 0
 194 347 169 338 148 319 c 0
 135 307 125 291 118 270 c 0
 111 249 106 227 106 204 c 0
 106 181 111 160 118 139 c 0
 125 118 135 101 148 89 c 0
 169 70 194 61 224 61 c 0
 242 61 258 65 272 72 c 1
EndSplineSet
EndChar
StartChar: R
Encoding: 82 82 52
Width: 410
Flags: HW
HStem: 0 20 164 71<131 231> 344 71<131 131 131 246>
VStem: 45 86<0 164 235 344> 282 85
Fore
45 0 m 1
 45 415 l 1
 276 415 l 2
 289 415 302 412 316 407 c 0
 329 402 341 394 351 385 c 0
 361 375 368 363 371 349 c 0
 372 344 374 338 375 333 c 0
 376 328 377 323 378 316 c 0
 379 310 380 305 380 300 c 0
 380 287 378 275 375 265 c 0
 370 248 364 236 355 227 c 0
 347 218 335 209 319 200 c 1
 322 198 326 195 332 192 c 0
 337 189 342 186 347 182 c 0
 351 178 355 173 358 166 c 0
 362 159 364 151 365 142 c 0
 366 137 366 122 367 97 c 0
 368 73 369 57 369 50 c 0
 369 40 370 33 373 28 c 0
 376 23 380 19 385 15 c 1
 385 0 l 1
 293 0 l 1
 286 14 282 27 282 39 c 2
 282 122 l 1
 281 131 279 139 275 146 c 0
 270 152 264 157 257 160 c 0
 250 163 241 164 231 164 c 2
 131 164 l 1
 131 0 l 1
 45 0 l 1
131 344 m 1
 131 235 l 1
 247 235 l 2
 259 235 271 240 282 251 c 0
 293 262 298 277 298 297 c 0
 298 328 281 344 246 344 c 2
 131 344 l 1
EndSplineSet
EndChar
StartChar: S
Encoding: 83 83 53
Width: 379
Flags: HW
HStem: -14 70 354 67<158.5 190.5>
VStem: 18 343<123 123>
Fore
347 288 m 1
 266 288 l 1
 266 299 263 310 257 320 c 0
 251 330 242 338 229 345 c 0
 216 351 200 354 181 354 c 0
 134 354 109 338 106 306 c 0
 106 293 108 284 111 279 c 0
 115 274 122 269 132 265 c 1
 135 262 142 259 155 256 c 0
 168 252 183 250 202 246 c 0
 220 243 231 240 236 239 c 0
 283 231 316 217 334 198 c 0
 352 179 361 155 361 125 c 0
 361 104 356 83 347 63 c 0
 338 43 325 27 308 16 c 0
 280 -3 237 -13 178 -14 c 0
 165 -14 148 -11 127 -6 c 0
 107 -1 90 6 76 16 c 0
 58 29 44 45 35 64 c 0
 26 83 20 103 18 123 c 1
 101 123 l 1
 101 108 107 93 119 80 c 0
 135 64 161 56 197 56 c 0
 210 56 222 58 235 62 c 0
 248 65 257 70 263 75 c 0
 273 84 278 96 278 112 c 0
 278 125 274 136 265 145 c 0
 259 152 250 157 239 161 c 0
 227 165 211 169 191 173 c 0
 172 176 155 179 141 182 c 0
 126 185 113 188 102 192 c 0
 87 197 74 204 63 213 c 0
 52 222 43 235 37 250 c 0
 30 266 27 285 27 307 c 1
 31 342 46 370 71 391 c 0
 96 411 134 421 183 421 c 0
 207 421 232 419 258 412 c 0
 283 406 306 391 323 369 c 0
 340 347 347 320 347 288 c 1
EndSplineSet
EndChar
StartChar: T
Encoding: 84 84 54
Width: 348
Flags: HW
HStem: 0 20 344 71<8 134 219 340 219 219>
VStem: 134 85<0 344>
Fore
8 415 m 1
 340 415 l 1
 340 344 l 1
 219 344 l 1
 219 0 l 1
 134 0 l 1
 134 344 l 1
 8 344 l 1
 8 415 l 1
EndSplineSet
EndChar
StartChar: U
Encoding: 85 85 55
Width: 410
Flags: HW
HStem: -13 74<194.5 222> 395 20<43 129 129 129 287 372 372 372>
VStem: 43 86<129 415> 287 85<128 129 129 415>
Fore
287 415 m 1
 372 415 l 1
 372 129 l 2
 372 71 347 28 294 4 c 0
 267 -8 238 -13 209 -13 c 0
 180 -13 154 -8 129 1 c 1
 72 32 43 75 43 129 c 2
 43 415 l 1
 129 415 l 1
 129 128 l 2
 129 109 135 94 146 81 c 0
 157 68 177 61 207 61 c 0
 237 61 258 68 270 81 c 0
 281 94 287 110 287 128 c 2
 287 415 l 1
EndSplineSet
EndChar
StartChar: V
Encoding: 86 86 56
Width: 379
Flags: HW
HStem: 0 20 395 20<14 99 99 99 282 368 368 368>
VStem: 14 354<415 415>
Fore
282 415 m 1
 368 415 l 1
 227 0 l 1
 154 0 l 1
 14 415 l 1
 99 415 l 1
 191 102 l 1
 282 415 l 1
EndSplineSet
EndChar
StartChar: W
Encoding: 87 87 57
Width: 537
Flags: HW
HStem: 0 20 395 20<7 98 98 98 224 314 314 314 440 530 530 530>
VStem: 7 523<415 415>
Fore
7 415 m 1
 98 415 l 1
 162 104 l 1
 224 415 l 1
 314 415 l 1
 376 100 l 1
 440 415 l 1
 530 415 l 1
 414 0 l 1
 337 0 l 1
 268 316 l 1
 200 0 l 1
 123 0 l 1
 7 415 l 1
EndSplineSet
EndChar
StartChar: X
Encoding: 88 88 58
Width: 379
Flags: HW
HStem: 0 20 395 20<19 119 119 119 268 368 368 368>
VStem: 13 358<0 0>
Fore
19 415 m 1
 119 415 l 1
 192 281 l 1
 268 415 l 1
 368 415 l 1
 240 212 l 1
 371 0 l 1
 271 0 l 1
 192 141 l 1
 113 0 l 1
 13 0 l 1
 144 209 l 1
 19 415 l 1
EndSplineSet
EndChar
StartChar: Y
Encoding: 89 89 59
Width: 379
Flags: HW
HStem: 0 20 395 20<15 110 110 110 274 370 370 370>
VStem: 152 85<0 154>
Fore
274 415 m 1
 370 415 l 1
 237 154 l 1
 237 0 l 1
 152 0 l 1
 152 154 l 1
 15 415 l 1
 110 415 l 1
 195 236 l 1
 274 415 l 1
EndSplineSet
EndChar
StartChar: Z
Encoding: 90 90 60
Width: 348
Flags: HW
HStem: 0 71<117 329> 344 71<17 17 329 329>
VStem: 17 312<0 71 344 415>
Fore
17 415 m 1
 329 415 l 1
 329 344 l 1
 117 71 l 1
 329 71 l 1
 329 0 l 1
 17 0 l 1
 17 71 l 1
 229 343 l 1
 17 344 l 1
 17 415 l 1
EndSplineSet
EndChar
StartChar: bracketleft
Encoding: 91 91 61
Width: 189
Flags: HW
HStem: -115 59<112 175> 358 57<112 175 112 112>
VStem: 38 74<-56 358>
Fore
175 358 m 1
 112 358 l 1
 112 -56 l 1
 175 -56 l 1
 175 -115 l 1
 38 -115 l 1
 38 415 l 1
 175 415 l 1
 175 358 l 1
EndSplineSet
EndChar
StartChar: backslash
Encoding: 92 92 62
Width: 158
Flags: HW
HStem: -12 20
VStem: -7 171
Fore
-7 403 m 1
 36 403 l 1
 164 -12 l 1
 122 -12 l 1
 -7 403 l 1
EndSplineSet
EndChar
StartChar: bracketright
Encoding: 93 93 63
Width: 189
Flags: HW
HStem: -115 59<10 73> 358 57<10 73>
VStem: 73 75<-56 358 358 358>
Fore
10 358 m 1
 10 415 l 1
 148 415 l 1
 148 -115 l 1
 10 -115 l 1
 10 -56 l 1
 73 -56 l 1
 73 358 l 1
 10 358 l 1
EndSplineSet
EndChar
StartChar: asciicircum
Encoding: 94 94 64
Width: 332
Flags: HW
VStem: 35 262<154 154>
Fore
35 154 m 1
 130 396 l 1
 200 396 l 1
 297 154 l 1
 233 154 l 1
 166 324 l 1
 99 154 l 1
 35 154 l 1
EndSplineSet
EndChar
StartChar: underscore
Encoding: 95 95 65
Width: 316
Flags: HW
HStem: -114 40<-13 329>
VStem: -13 342<-114 -74>
Fore
329 -74 m 1
 329 -114 l 1
 -13 -114 l 1
 -13 -74 l 1
 329 -74 l 1
EndSplineSet
EndChar
StartChar: grave
Encoding: 96 96 66
Width: 134
Flags: HW
VStem: 227 111
Fore
22 317 m 0
 21 344 31 367 50 384 c 0
 69 402 87 412 106 414 c 1
 113 400 l 1
 100 393 90 387 83 381 c 0
 75 375 70 365 68 352 c 1
 79 352 89 349 99 343 c 0
 109 337 114 326 115 309 c 0
 115 297 111 287 104 278 c 0
 97 270 87 266 75 266 c 0
 57 266 44 271 36 280 c 0
 27 289 22 302 22 317 c 0
EndSplineSet
EndChar
StartChar: a
Encoding: 97 97 67
Width: 316
Flags: HW
HStem: -13 20 206 107
VStem: 15 283
Fore
298 0 m 1
 214 0 l 1
 208 8 205 18 205 31 c 1
 194 20 181 10 164 1 c 0
 147 -8 124 -13 95 -13 c 1
 42 -7 14 25 15 82 c 0
 15 107 24 129 37 146 c 0
 50 163 73 174 105 179 c 1
 132 180 158 185 185 193 c 1
 198 199 205 211 205 228 c 0
 205 237 201 244 192 249 c 0
 183 254 170 256 152 256 c 0
 132 255 118 250 111 241 c 0
 104 232 101 220 100 206 c 1
 25 206 l 1
 26 277 68 313 152 313 c 0
 183 313 207 309 225 302 c 0
 262 288 280 259 280 216 c 2
 280 47 l 2
 280 34 286 22 298 11 c 1
 298 0 l 1
205 128 m 2
 205 145 l 1
 195 140 181 136 163 133 c 0
 145 131 134 130 131 129 c 0
 120 127 112 123 105 116 c 0
 98 109 94 100 94 90 c 0
 94 88 95 84 96 79 c 0
 98 74 101 69 104 65 c 0
 107 61 113 58 120 56 c 0
 127 54 136 53 149 53 c 1
 171 56 186 65 193 78 c 0
 201 91 205 107 205 128 c 2
EndSplineSet
EndChar
StartChar: b
Encoding: 98 98 68
Width: 348
Flags: HW
HStem: -13 68 395 20<34 113 113 113>
VStem: 34 79<0 31 138.5 159.5 266 415> 247 80<139.5 159.5>
Fore
34 0 m 1
 34 415 l 1
 113 415 l 1
 113 266 l 1
 128 297 158 313 201 313 c 0
 252 312 288 289 307 244 c 0
 321 211 327 181 327 154 c 0
 327 125 319 93 304 58 c 0
 296 41 287 27 276 17 c 1
 266 6 254 -1 240 -6 c 0
 226 -11 210 -13 192 -13 c 0
 160 -12 134 3 113 31 c 1
 113 0 l 1
 34 0 l 1
180 244 m 0
 157 244 139 232 127 209 c 0
 117 190 113 170 113 149 c 0
 113 128 117 108 127 89 c 0
 139 66 157 55 180 55 c 0
 204 55 222 66 233 89 c 0
 242 108 247 128 247 149 c 0
 247 170 242 190 233 209 c 0
 227 222 219 231 210 236 c 0
 200 241 190 244 180 244 c 0
EndSplineSet
EndChar
StartChar: c
Encoding: 99 99 69
Width: 316
Flags: HW
HStem: -13 20 293 20<151 162>
VStem: 19 278
Fore
297 193 m 1
 221 193 l 1
 216 214 209 228 200 234 c 0
 191 240 179 244 162 244 c 0
 135 245 117 229 107 199 c 0
 106 196 106 193 105 189 c 0
 104 185 104 179 103 171 c 0
 102 163 101 155 101 147 c 0
 101 133 102 120 105 109 c 0
 111 87 118 72 127 65 c 0
 136 58 148 54 163 53 c 0
 177 53 189 56 199 63 c 0
 208 70 216 85 221 108 c 1
 297 108 l 1
 297 90 291 72 280 55 c 0
 269 38 258 24 248 15 c 0
 236 5 224 -2 212 -6 c 0
 199 -10 181 -13 158 -13 c 0
 128 -14 103 -7 84 6 c 0
 64 19 50 35 40 54 c 0
 30 73 23 90 22 107 c 0
 20 118 19 132 19 149 c 0
 19 181 24 207 33 226 c 0
 44 251 56 270 69 283 c 0
 82 296 95 304 109 307 c 0
 122 310 140 313 162 313 c 0
 199 314 226 306 243 296 c 0
 259 286 272 271 282 249 c 0
 292 226 297 208 297 193 c 1
EndSplineSet
EndChar
StartChar: d
Encoding: 100 100 70
Width: 348
Flags: HW
HStem: -13 20 245 68<152.5 164.5> 395 20<230 310 310 310>
VStem: 230 80<-2 31 31 31 139.5 160.5 266 415>
Fore
310 415 m 1
 310 -2 l 1
 230 -2 l 1
 230 31 l 1
 220 16 208 6 194 -1 c 0
 179 -8 165 -13 151 -13 c 0
 134 -14 118 -11 104 -6 c 0
 90 -1 78 6 67 17 c 0
 57 27 48 41 40 58 c 0
 26 89 17 117 17 144 c 0
 16 180 23 213 36 243 c 0
 56 288 91 312 142 313 c 0
 187 313 217 297 230 266 c 1
 230 415 l 1
 310 415 l 1
164 245 m 0
 141 245 123 233 110 210 c 1
 101 190 97 170 97 150 c 0
 97 131 101 110 110 89 c 1
 123 66 141 55 164 55 c 0
 187 55 204 66 217 89 c 1
 226 109 230 129 230 150 c 0
 230 171 227 191 217 210 c 0
 205 233 187 245 164 245 c 0
EndSplineSet
EndChar
StartChar: e
Encoding: 101 101 71
Width: 316
Flags: HW
HStem: -13 20 129 54<93 216> 247 66<160 169>
VStem: 13 285<129 135>
Fore
298 129 m 1
 93 129 l 1
 93 107 96 91 103 80 c 0
 111 69 120 62 130 58 c 0
 141 54 154 52 170 52 c 1
 182 55 192 59 201 65 c 0
 209 72 214 79 216 87 c 1
 295 87 l 1
 290 68 280 50 265 35 c 0
 250 20 232 8 212 0 c 0
 192 -9 173 -13 154 -13 c 0
 127 -13 101 -5 74 10 c 1
 61 19 49 30 40 43 c 0
 30 56 23 70 19 84 c 0
 16 98 14 110 13 121 c 0
 13 149 14 171 16 187 c 0
 22 224 33 251 50 270 c 0
 66 289 83 301 101 306 c 0
 118 311 136 313 155 313 c 0
 183 313 207 308 227 296 c 0
 246 285 261 270 272 253 c 0
 280 240 287 226 290 212 c 0
 294 197 296 184 297 172 c 0
 298 160 298 146 298 129 c 1
93 183 m 1
 216 183 l 1
 216 199 212 213 204 226 c 0
 196 239 181 247 160 247 c 0
 137 248 121 241 110 228 c 0
 99 215 93 200 93 183 c 1
EndSplineSet
EndChar
StartChar: f
Encoding: 102 102 72
Width: 189
Flags: HW
HStem: 0 20 249 53<8 51 131 178> 395 20<126 176 176 176>
VStem: 51 80<0 249 302 334>
Fore
8 249 m 1
 8 302 l 1
 51 302 l 1
 51 338 l 2
 51 362 57 381 70 395 c 0
 83 408 101 415 126 415 c 2
 176 415 l 1
 176 355 l 1
 148 355 l 2
 137 355 131 348 131 334 c 2
 131 302 l 1
 178 302 l 1
 178 249 l 1
 131 249 l 1
 131 0 l 1
 51 0 l 1
 51 249 l 1
 8 249 l 1
EndSplineSet
EndChar
StartChar: g
Encoding: 103 103 73
Width: 348
Flags: HW
HStem: -125 176 241 72<151 156.5>
VStem: 233 75<-11 -8 -8 32 32 32 262 308>
Fore
233 308 m 1
 308 308 l 1
 308 -8 l 2
 308 -27 303 -45 294 -62 c 0
 285 -78 274 -91 259 -101 c 0
 235 -117 194 -126 135 -125 c 0
 104 -124 78 -113 57 -95 c 0
 36 -78 25 -58 25 -36 c 1
 108 -36 l 1
 108 -53 124 -65 155 -70 c 1
 177 -70 196 -64 211 -52 c 0
 226 -40 233 -26 233 -11 c 2
 233 32 l 1
 224 22 216 14 209 8 c 0
 202 1 193 -4 184 -7 c 0
 175 -11 163 -13 150 -13 c 0
 129 -13 113 -11 101 -6 c 0
 89 -1 76 8 62 21 c 0
 53 30 45 42 39 55 c 0
 32 68 27 82 24 97 c 0
 21 112 19 127 19 144 c 0
 19 170 23 195 31 218 c 0
 39 242 50 261 65 276 c 0
 88 301 117 313 151 313 c 0
 162 313 172 312 181 309 c 0
 188 306 195 302 201 298 c 0
 206 293 211 289 215 284 c 0
 220 279 226 271 233 262 c 1
 233 308 l 1
163 241 m 0
 139 241 120 230 106 207 c 1
 96 186 91 165 91 146 c 0
 91 127 95 107 106 86 c 0
 118 63 138 51 163 51 c 0
 188 51 208 63 220 86 c 0
 230 105 234 125 234 146 c 0
 234 168 229 188 220 207 c 1
 206 230 187 241 163 241 c 0
EndSplineSet
EndChar
StartChar: h
Encoding: 104 104 74
Width: 348
Flags: HW
HStem: 0 20 395 20<38 112 112 112>
VStem: 38 80<0 180> 228 80<0 195 195 201.5>
Fore
112 415 m 1
 112 268 l 1
 132 298 164 313 207 313 c 0
 234 313 258 306 278 292 c 0
 298 278 308 256 308 225 c 2
 308 0 l 1
 228 0 l 1
 228 195 l 2
 228 208 225 218 221 227 c 0
 216 235 206 240 189 243 c 1
 169 243 152 238 139 228 c 0
 125 217 118 201 118 180 c 2
 118 0 l 1
 38 0 l 1
 38 415 l 1
 112 415 l 1
EndSplineSet
EndChar
StartChar: i
Encoding: 105 105 75
Width: 158
Flags: HW
HStem: 0 20 344 71<38 118>
VStem: 38 80<0 308 344 415>
Fore
38 344 m 1
 38 415 l 1
 118 415 l 1
 118 344 l 1
 38 344 l 1
38 0 m 1
 38 308 l 1
 118 308 l 1
 118 0 l 1
 38 0 l 1
EndSplineSet
EndChar
StartChar: j
Encoding: 106 106 76
Width: 158
Flags: HW
HStem: -125 20 344 71<40 119>
VStem: 40 79<-37 308 344 415>
Fore
40 344 m 1
 40 415 l 1
 119 415 l 1
 119 344 l 1
 40 344 l 1
40 -37 m 2
 40 308 l 1
 119 308 l 1
 119 -57 l 2
 119 -67 117 -76 113 -85 c 0
 109 -94 104 -102 97 -108 c 0
 90 -115 82 -119 73 -120 c 0
 54 -123 31 -125 2 -125 c 1
 2 -59 l 1
 16 -59 26 -58 32 -55 c 0
 37 -52 40 -46 40 -37 c 2
EndSplineSet
EndChar
StartChar: k
Encoding: 107 107 77
Width: 316
Flags: HW
HStem: 0 20 395 20<34 113 113 113>
VStem: 34 79<0 96 188 415>
Fore
34 415 m 1
 113 415 l 1
 113 188 l 1
 214 308 l 1
 305 308 l 1
 201 191 l 1
 312 0 l 1
 218 0 l 1
 146 132 l 1
 113 96 l 1
 113 0 l 1
 34 0 l 1
 34 415 l 1
EndSplineSet
EndChar
StartChar: l
Encoding: 108 108 78
Width: 158
Flags: HW
HStem: 0 20 395 20<38 118 118 118>
VStem: 38 80<0 415>
Fore
38 415 m 1
 118 415 l 1
 118 0 l 1
 38 0 l 1
 38 415 l 1
EndSplineSet
EndChar
StartChar: m
Encoding: 109 109 79
Width: 506
Flags: HW
HStem: 0 20 295 20<356.5 369.5>
VStem: 34 79<0 189 262 308> 212 79<0 189> 389 80<0 212 212 214>
Fore
113 0 m 1
 34 0 l 1
 34 308 l 1
 113 308 l 1
 113 262 l 1
 126 281 140 294 153 301 c 0
 166 309 185 313 209 313 c 1
 228 311 241 307 250 301 c 0
 258 295 269 284 282 268 c 1
 292 283 304 295 317 303 c 0
 330 311 346 315 367 315 c 0
 372 315 379 314 390 313 c 0
 443 306 469 273 469 214 c 2
 469 0 l 1
 389 0 l 1
 389 212 l 2
 389 231 375 242 349 245 c 1
 330 245 316 239 306 227 c 0
 296 214 291 202 291 189 c 2
 291 0 l 1
 212 0 l 1
 212 212 l 1
 207 233 193 244 168 245 c 0
 153 245 140 240 129 230 c 0
 118 221 113 207 113 189 c 2
 113 0 l 1
EndSplineSet
EndChar
StartChar: n
Encoding: 110 110 80
Width: 348
Flags: HW
HStem: 0 20 293 20<184.5 231.5>
VStem: 36 79<0 197 262 308> 231 80<0 189 189 198.5>
Fore
36 0 m 1
 36 308 l 1
 115 308 l 1
 115 262 l 1
 123 278 134 291 148 300 c 0
 162 309 177 313 192 313 c 0
 271 313 311 278 311 207 c 2
 311 0 l 1
 231 0 l 1
 231 189 l 2
 231 208 228 222 221 233 c 0
 214 244 198 249 173 249 c 1
 152 246 138 240 129 230 c 0
 121 221 115 210 115 197 c 2
 115 0 l 1
 36 0 l 1
EndSplineSet
EndChar
StartChar: o
Encoding: 111 111 81
Width: 348
Flags: HW
HStem: -14 69<159.5 184> 245 68<159.5 184>
VStem: 20 80<139.5 161>
Fore
172 -14 m 0
 129 -14 93 -1 65 24 c 0
 50 38 40 56 32 79 c 0
 25 101 20 125 20 150 c 0
 20 175 24 199 32 222 c 0
 39 245 50 263 65 276 c 0
 92 301 128 313 172 313 c 0
 216 313 251 301 278 276 c 0
 293 262 305 244 313 222 c 0
 320 200 324 176 324 150 c 0
 324 125 320 101 313 79 c 0
 305 56 293 38 278 24 c 0
 251 -1 215 -14 172 -14 c 0
172 245 m 0
 147 245 128 234 115 211 c 0
 105 192 100 172 100 150 c 0
 100 129 105 109 115 90 c 0
 128 67 147 55 172 55 c 0
 196 55 215 67 229 90 c 1
 239 111 244 131 244 150 c 0
 244 171 240 191 229 211 c 0
 216 235 196 245 172 245 c 0
EndSplineSet
EndChar
StartChar: p
Encoding: 112 112 82
Width: 348
Flags: HW
HStem: -125 20 243 70<188.5 191.5>
VStem: 33 79<-125 32 139 157 262 308>
Fore
33 308 m 1
 112 308 l 1
 112 262 l 1
 117 268 121 274 128 281 c 0
 134 288 139 293 145 298 c 0
 150 302 157 306 165 309 c 0
 173 312 183 313 194 313 c 0
 229 313 258 301 281 276 c 0
 295 261 306 242 314 219 c 0
 322 195 326 170 326 144 c 0
 326 119 322 96 315 75 c 0
 308 53 298 35 284 21 c 0
 271 8 258 -1 245 -6 c 0
 233 -11 217 -13 196 -13 c 0
 182 -13 170 -11 161 -7 c 0
 152 -4 144 1 137 7 c 0
 130 12 122 21 112 32 c 1
 112 -125 l 1
 33 -125 l 1
 33 308 l 1
180 243 m 0
 157 243 138 231 125 208 c 1
 116 186 112 166 112 148 c 0
 112 130 116 110 125 88 c 1
 138 65 157 53 180 53 c 0
 203 53 220 65 233 88 c 1
 242 110 246 130 246 148 c 0
 246 166 242 186 233 208 c 1
 220 231 203 243 180 243 c 0
EndSplineSet
EndChar
StartChar: q
Encoding: 113 113 83
Width: 348
Flags: HW
HStem: -125 20 241 72
VStem: 16 80<134.5 156> 230 79<-125 32 32 32 134 156.5 262 307>
Fore
309 307 m 1
 309 -125 l 1
 230 -125 l 1
 230 32 l 1
 221 22 213 14 206 8 c 0
 199 1 190 -4 181 -7 c 0
 172 -11 160 -13 147 -13 c 0
 126 -13 109 -11 97 -6 c 0
 85 -1 72 7 58 21 c 0
 44 35 34 53 27 75 c 0
 20 97 16 120 16 144 c 0
 16 170 20 195 28 218 c 0
 36 241 47 261 61 276 c 0
 72 287 84 296 97 303 c 0
 110 310 127 313 148 313 c 0
 170 312 187 308 199 299 c 0
 211 291 221 279 230 262 c 1
 230 307 l 1
 309 307 l 1
163 241 m 0
 140 241 122 229 110 206 c 0
 101 187 96 167 96 145 c 0
 96 124 100 104 110 83 c 0
 121 60 140 48 163 48 c 0
 185 48 204 60 216 83 c 0
 226 102 230 123 230 145 c 0
 230 168 226 188 216 206 c 0
 204 229 186 241 163 241 c 0
EndSplineSet
EndChar
StartChar: r
Encoding: 114 114 84
Width: 221
Flags: HW
HStem: 0 20 293 20<198.5 210>
VStem: 36 79<0 174 249 308>
Fore
36 0 m 1
 36 308 l 1
 115 308 l 1
 115 249 l 1
 119 259 123 267 128 274 c 0
 133 281 141 288 154 297 c 0
 169 308 187 313 210 313 c 1
 210 232 l 1
 199 233 190 234 182 234 c 0
 165 234 150 230 139 221 c 0
 127 212 119 197 115 174 c 1
 115 0 l 1
 36 0 l 1
EndSplineSet
EndChar
StartChar: s
Encoding: 115 115 85
Width: 316
Flags: HW
HStem: -13 20 293 20<129.5 147>
VStem: 16 280<91 91>
Fore
16 91 m 1
 95 91 l 1
 98 80 103 72 110 66 c 0
 116 60 123 56 131 53 c 0
 140 50 151 47 164 47 c 0
 197 46 213 58 213 79 c 0
 213 86 211 91 208 96 c 0
 205 101 200 104 193 105 c 2
 94 134 l 2
 69 141 51 152 42 165 c 0
 33 178 28 192 28 209 c 0
 28 242 40 269 65 290 c 0
 84 305 112 313 147 313 c 0
 187 314 219 306 242 291 c 0
 261 279 274 266 280 253 c 0
 285 240 288 225 288 209 c 1
 211 209 l 1
 211 220 209 229 206 234 c 0
 202 239 194 244 181 248 c 0
 171 251 161 253 152 253 c 0
 139 253 127 250 117 244 c 0
 109 240 105 233 105 222 c 0
 105 211 111 205 123 202 c 2
 238 171 l 2
 248 168 257 163 266 156 c 0
 275 149 282 141 288 130 c 0
 293 119 296 108 296 96 c 0
 296 77 291 58 281 39 c 0
 270 20 253 6 229 -3 c 0
 220 -6 208 -8 193 -10 c 0
 178 -12 165 -13 152 -13 c 0
 123 -12 101 -8 84 -1 c 0
 41 18 18 49 16 91 c 1
EndSplineSet
EndChar
StartChar: t
Encoding: 116 116 86
Width: 189
Flags: HW
HStem: -13 20 249 53<8 47 127 171>
VStem: 47 80<67 76 76 249 302 386>
Fore
8 302 m 1
 47 302 l 1
 47 386 l 1
 127 386 l 1
 127 302 l 1
 171 302 l 1
 171 249 l 1
 127 249 l 1
 127 76 l 2
 127 58 131 49 140 49 c 2
 170 48 l 1
 170 -6 l 1
 158 -10 145 -13 132 -13 c 0
 117 -14 104 -12 95 -9 c 0
 68 -1 52 18 47 48 c 1
 47 249 l 1
 8 249 l 1
 8 302 l 1
EndSplineSet
EndChar
StartChar: u
Encoding: 117 117 87
Width: 348
Flags: HW
HStem: -13 20 288 20<33 112 112 112 228 308 308 308>
VStem: 33 79<107.5 117 117 308> 228 80<0 38 38 38 109 308>
Fore
308 308 m 1
 308 0 l 1
 228 0 l 1
 228 38 l 1
 217 21 206 8 195 1 c 0
 184 -6 169 -10 152 -13 c 1
 130 -12 111 -10 96 -6 c 0
 80 -2 66 8 54 24 c 0
 41 40 33 63 33 94 c 2
 33 308 l 1
 112 308 l 1
 112 117 l 2
 112 98 115 84 122 74 c 0
 129 63 145 58 170 58 c 1
 191 61 206 67 214 76 c 0
 222 85 228 96 228 109 c 2
 228 308 l 1
 308 308 l 1
EndSplineSet
EndChar
StartChar: v
Encoding: 118 118 88
Width: 316
Flags: HW
HStem: 0 20 288 20<8 92 92 92 221 305 305 305>
VStem: 8 297<308 308>
Fore
8 308 m 1
 92 308 l 1
 156 82 l 1
 221 308 l 1
 305 308 l 1
 198 0 l 1
 114 0 l 1
 8 308 l 1
EndSplineSet
EndChar
StartChar: w
Encoding: 119 119 89
Width: 442
Flags: HW
HStem: 0 20 288 20<3 85 85 85 178 261 261 261 353 436 436 436>
VStem: 3 433<308 308>
Fore
3 308 m 1
 85 308 l 1
 133 92 l 1
 178 308 l 1
 261 308 l 1
 305 92 l 1
 353 308 l 1
 436 308 l 1
 350 0 l 1
 268 0 l 1
 220 217 l 1
 171 0 l 1
 89 0 l 1
 3 308 l 1
EndSplineSet
EndChar
StartChar: x
Encoding: 120 120 90
Width: 316
Flags: HW
HStem: 0 20 288 20<12 108 108 108 209 303 303 303>
VStem: 9 295<0 0>
Fore
12 308 m 1
 108 308 l 1
 158 215 l 1
 209 308 l 1
 303 308 l 1
 203 154 l 1
 304 0 l 1
 209 0 l 1
 158 91 l 1
 104 0 l 1
 9 0 l 1
 110 154 l 1
 12 308 l 1
EndSplineSet
EndChar
StartChar: y
Encoding: 121 121 91
Width: 316
Flags: HW
HStem: -125 20 288 20<5 93 93 93 224 306 306 306>
VStem: 5 301<308 308>
Fore
5 308 m 1
 93 308 l 1
 160 84 l 1
 224 308 l 1
 306 308 l 1
 175 -64 l 1
 172 -77 164 -90 152 -103 c 0
 144 -112 129 -117 107 -120 c 0
 86 -123 66 -125 48 -125 c 1
 48 -60 l 1
 73 -60 89 -57 97 -52 c 0
 110 -45 116 -33 116 -18 c 0
 116 -11 115 -5 113 0 c 2
 5 308 l 1
EndSplineSet
EndChar
StartChar: z
Encoding: 122 122 92
Width: 284
Flags: HW
HStem: 0 65<111 266> 243 65<23 164>
VStem: 23 239<243 308>
Fore
23 308 m 1
 262 308 l 1
 262 243 l 1
 111 65 l 1
 266 65 l 1
 266 0 l 1
 12 0 l 1
 12 65 l 1
 164 243 l 1
 23 243 l 1
 23 308 l 1
EndSplineSet
EndChar
StartChar: braceleft
Encoding: 123 123 93
Width: 221
Flags: HW
HStem: 395 20<132 180 180 180>
VStem: 68 65<-34 -29 -29 92 206 208 208 329>
Fore
21 126 m 1
 21 179 l 1
 52 179 68 188 68 206 c 2
 68 337 l 2
 68 361 75 380 90 394 c 0
 105 408 119 415 132 415 c 2
 180 415 l 1
 180 359 l 1
 159 359 l 2
 148 359 140 357 137 352 c 0
 134 347 133 339 133 329 c 2
 133 208 l 2
 133 177 114 158 79 152 c 1
 94 150 106 145 117 138 c 0
 127 130 133 115 133 92 c 2
 133 -29 l 2
 133 -39 135 -46 138 -51 c 0
 141 -56 148 -59 159 -59 c 2
 180 -59 l 1
 180 -115 l 1
 132 -115 l 2
 119 -115 105 -108 90 -94 c 0
 75 -80 68 -61 68 -37 c 2
 68 93 l 2
 68 115 52 126 21 126 c 1
EndSplineSet
EndChar
StartChar: bar
Encoding: 124 124 94
Width: 159
Flags: HW
HStem: 395 20<57 102 102 102>
VStem: 57 45<-115 415>
Fore
102 415 m 1
 102 -115 l 1
 57 -115 l 1
 57 415 l 1
 102 415 l 1
EndSplineSet
EndChar
StartChar: braceright
Encoding: 125 125 95
Width: 221
Flags: HW
HStem: 395 20<41 89 89 93.5>
VStem: 88 66<-29 92 92 93 208 329 329 334>
Fore
200 179 m 1
 200 126 l 1
 186 126 175 124 167 119 c 0
 158 114 154 106 154 93 c 2
 154 -37 l 2
 154 -62 146 -81 131 -94 c 0
 116 -108 102 -115 89 -115 c 2
 41 -115 l 1
 41 -59 l 1
 62 -59 l 2
 74 -59 81 -56 84 -51 c 0
 87 -46 88 -39 88 -29 c 2
 88 92 l 2
 88 129 107 149 143 153 c 1
 128 154 115 159 104 166 c 0
 93 173 88 187 88 208 c 2
 88 329 l 2
 88 339 87 347 84 352 c 0
 81 357 74 360 62 360 c 2
 41 360 l 1
 41 415 l 1
 89 415 l 2
 98 415 107 412 117 407 c 0
 126 401 135 392 143 380 c 0
 150 368 154 354 154 337 c 2
 154 207 l 2
 154 188 169 179 200 179 c 1
EndSplineSet
EndChar
StartChar: asciitilde
Encoding: 126 126 96
Width: 332
Flags: HW
VStem: 34 261
Fore
74 99 m 1
 34 99 l 1
 38 128 48 150 64 165 c 0
 77 177 90 183 105 183 c 0
 116 183 127 179 138 173 c 2
 196 140 l 2
 208 133 218 129 226 129 c 0
 243 129 251 141 251 165 c 1
 295 165 l 1
 295 153 293 142 290 132 c 0
 287 122 279 111 268 100 c 0
 256 87 243 81 230 81 c 0
 219 81 205 85 189 94 c 2
 126 128 l 2
 117 133 108 136 101 136 c 0
 92 136 85 132 82 125 c 0
 79 118 76 110 74 99 c 1
EndSplineSet
EndChar
StartChar: uni0E10.descless
Encoding: 128 63232 97
Width: 316
Flags: HW
HStem: 0 20
VStem: 200 58<118 165 165 167>
Fore
195 0 m 1
 192 17 185 38 174 65 c 0
 164 91 158 104 157 104 c 1
 155 101 150 96 142 90 c 0
 134 85 122 82 107 82 c 0
 86 82 69 89 58 102 c 0
 46 115 40 130 40 149 c 0
 40 167 46 183 58 196 c 0
 70 209 86 216 107 217 c 0
 126 217 142 213 153 206 c 0
 164 198 172 185 178 167 c 0
 182 159 187 149 192 137 c 0
 197 125 200 119 200 118 c 2
 200 165 l 2
 200 190 197 206 191 213 c 0
 184 220 170 226 148 232 c 0
 125 238 102 244 78 248 c 0
 54 252 36 255 25 256 c 1
 25 278 l 1
 41 300 58 317 77 330 c 0
 95 342 116 348 141 348 c 0
 160 348 182 345 206 337 c 0
 229 330 245 325 254 325 c 0
 265 325 278 328 292 334 c 1
 292 334 293 328 296 317 c 0
 299 306 301 296 302 288 c 1
 283 282 267 279 254 279 c 0
 245 279 237 280 230 281 c 0
 223 283 212 287 198 292 c 0
 183 297 172 300 165 302 c 0
 158 304 150 305 142 305 c 0
 133 305 125 303 116 299 c 0
 107 295 101 291 100 288 c 1
 108 287 121 285 140 282 c 0
 158 279 172 276 181 273 c 0
 215 264 236 252 245 237 c 0
 254 222 258 198 258 167 c 2
 258 0 l 1
 195 0 l 1
107 122 m 0
 116 122 122 125 126 130 c 0
 131 135 133 141 133 149 c 0
 133 156 131 162 126 167 c 0
 122 172 116 175 107 175 c 0
 98 175 92 172 88 167 c 0
 83 162 81 156 81 149 c 0
 81 143 83 137 88 131 c 0
 93 126 99 123 107 122 c 0
EndSplineSet
EndChar
StartChar: uni0E34.left
Encoding: 129 63233 98
Width: 0
Flags: HW
VStem: -408 268
Fore
-265 543 m 0
 -240 543 -219 535 -202 523 c 0
 -186 512 -174 499 -166 484 c 0
 -158 469 -151 453 -148 436 c 0
 -144 418 -142 405 -140 398 c 1
 -150 401 -165 406 -186 412 c 0
 -207 417 -232 422 -259 426 c 0
 -278 429 -299 430 -324 430 c 0
 -343 430 -360 429 -375 428 c 0
 -390 427 -401 426 -408 425 c 1
 -403 459 -387 487 -361 509 c 0
 -335 532 -303 544 -265 543 c 0
-265 503 m 1
 -283 503 -299 500 -313 493 c 0
 -327 486 -336 479 -339 470 c 1
 -336 471 -330 471 -323 472 c 0
 -316 472 -308 472 -299 472 c 0
 -290 472 -279 471 -264 470 c 0
 -244 468 -228 465 -216 462 c 0
 -205 458 -197 455 -193 453 c 1
 -207 482 -231 499 -265 503 c 1
EndSplineSet
EndChar
StartChar: uni0E35.left
Encoding: 130 63234 99
Width: 40
Flags: HW
VStem: -184 53<521 581>
Fore
-253 545 m 0
 -234 545 -219 540 -208 535 c 0
 -196 529 -188 524 -184 521 c 1
 -184 581 l 1
 -131 581 l 1
 -131 443 l 1
 -130 443 -126 428 -120 398 c 1
 -131 401 -149 407 -174 414 c 0
 -199 421 -224 425 -247 428 c 0
 -266 431 -288 432 -313 432 c 0
 -328 432 -340 432 -350 431 c 0
 -359 430 -369 430 -379 429 c 0
 -389 428 -395 427 -396 427 c 1
 -393 448 -385 467 -372 486 c 0
 -359 505 -343 518 -322 529 c 0
 -302 539 -279 546 -253 545 c 0
-254 505 m 1
 -271 505 -286 502 -300 495 c 0
 -315 488 -324 480 -327 471 c 1
 -324 472 -319 472 -312 473 c 0
 -305 474 -295 474 -282 474 c 0
 -275 474 -265 473 -252 472 c 0
 -233 470 -217 467 -205 464 c 0
 -194 460 -186 457 -181 455 c 1
 -187 468 -195 478 -206 487 c 0
 -217 496 -233 502 -254 505 c 1
EndSplineSet
EndChar
StartChar: uni0E36.left
Encoding: 131 63235 100
Width: 0
Flags: HW
VStem: -416 276
Fore
-140 537 m 1
 -140 507 -149 488 -167 479 c 1
 -164 473 -158 463 -153 449 c 0
 -147 434 -143 417 -140 398 c 1
 -151 401 -169 407 -194 414 c 0
 -219 421 -244 425 -267 428 c 0
 -286 431 -308 432 -333 432 c 0
 -348 432 -360 432 -370 431 c 0
 -379 430 -389 430 -399 429 c 0
 -409 428 -415 427 -416 427 c 1
 -413 448 -405 467 -392 486 c 0
 -379 505 -363 518 -342 529 c 0
 -322 539 -299 545 -273 545 c 0
 -270 545 -266 545 -261 544 c 0
 -256 543 -254 543 -253 542 c 1
 -252 550 -247 560 -238 571 c 0
 -229 582 -216 587 -197 587 c 0
 -181 587 -168 582 -158 573 c 0
 -149 564 -143 552 -140 537 c 1
-274 505 m 1
 -291 505 -306 502 -320 495 c 0
 -335 488 -344 481 -347 472 c 1
 -344 473 -339 473 -332 474 c 0
 -325 474 -316 474 -307 474 c 0
 -298 474 -287 473 -272 472 c 0
 -253 470 -237 467 -225 464 c 0
 -214 460 -206 457 -201 455 c 1
 -207 468 -215 478 -226 487 c 0
 -237 496 -253 502 -274 505 c 1
-198 513 m 0
 -193 513 -189 515 -186 519 c 0
 -183 522 -181 526 -181 531 c 0
 -181 535 -183 539 -186 542 c 0
 -189 546 -193 548 -198 548 c 0
 -209 548 -215 542 -215 531 c 0
 -215 519 -209 513 -198 513 c 0
EndSplineSet
EndChar
StartChar: uni0E37.left
Encoding: 132 63236 101
Width: 40
Flags: HW
VStem: -181 50<519 581>
Fore
-181 519 m 1
 -181 581 l 1
 -131 581 l 1
 -131 443 l 1
 -130 443 -126 428 -120 398 c 1
 -131 401 -149 407 -174 414 c 0
 -199 421 -224 425 -247 428 c 0
 -266 431 -288 432 -313 432 c 0
 -328 432 -340 432 -350 431 c 0
 -359 430 -369 430 -379 429 c 0
 -389 428 -395 427 -396 427 c 1
 -384 475 -364 507 -337 522 c 0
 -310 537 -281 545 -251 545 c 1
 -251 581 l 1
 -204 581 l 1
 -204 533 l 1
 -201 533 -194 528 -181 519 c 1
-254 505 m 1
 -271 505 -286 502 -300 495 c 0
 -315 488 -324 480 -327 471 c 1
 -324 472 -319 472 -312 473 c 0
 -305 474 -295 474 -282 474 c 0
 -275 474 -265 473 -252 472 c 0
 -233 470 -217 467 -205 464 c 0
 -194 460 -186 457 -181 455 c 1
 -187 468 -195 478 -206 487 c 0
 -217 496 -233 502 -254 505 c 1
EndSplineSet
EndChar
StartChar: ellipsis
Encoding: 133 8230 102
Width: 525
VWidth: 2048
Flags: HW
HStem: -12 10G<73 109>
VStem: 39 105<31 36> 202 105<29 36> 367 105<29 31>
Fore
308 31 m 4
 308 7 291 -7 257 -12 c 5
 224 -12 206 2 202 30 c 5
 202 60 220 75 256 75 c 4
 271 75 284 70 294 62 c 4
 303 54 308 44 308 31 c 4
473 31 m 5
 473 7 456 -7 421 -12 c 5
 389 -12 371 2 367 30 c 5
 367 60 385 75 420 75 c 4
 435 75 448 70 459 62 c 5
 467 54 472 44 473 31 c 5
144 31 m 4
 144 2 126 -12 91 -12 c 4
 56 -12 39 2 39 31 c 4
 39 60 56 75 91 75 c 4
 126 75 144 60 144 31 c 4
EndSplineSet
EndChar
StartChar: uni0E48.low_left
Encoding: 134 63237 103
Width: 0
Flags: HW
HStem: 402 152<-206 -148>
VStem: -206 58<402 554>
Fore
-206 402 m 1
 -206 554 l 1
 -148 554 l 1
 -148 402 l 1
 -206 402 l 1
EndSplineSet
EndChar
StartChar: uni0E49.low_left
Encoding: 135 63238 104
Width: 0
Flags: HW
VStem: -320 244
Fore
-194 501 m 0
 -195 482 -198 469 -202 460 c 0
 -207 451 -210 446 -213 445 c 1
 -210 446 -206 446 -201 447 c 0
 -196 448 -191 450 -185 453 c 0
 -178 456 -172 459 -165 464 c 0
 -158 469 -153 474 -149 481 c 0
 -138 503 -132 523 -132 540 c 0
 -132 550 -132 558 -133 563 c 1
 -76 563 l 1
 -76 490 -100 441 -148 418 c 0
 -176 405 -208 398 -243 398 c 0
 -254 398 -263 398 -271 399 c 0
 -279 400 -284 401 -287 402 c 1
 -287 422 l 1
 -284 423 -279 426 -274 431 c 0
 -269 435 -265 440 -264 445 c 1
 -266 445 -272 447 -283 450 c 0
 -294 453 -302 460 -309 471 c 0
 -316 481 -320 493 -320 507 c 0
 -320 524 -314 538 -303 549 c 0
 -292 561 -277 567 -259 567 c 0
 -244 567 -232 564 -223 557 c 0
 -213 550 -206 542 -201 531 c 0
 -196 521 -194 511 -194 501 c 0
-259 486 m 0
 -253 486 -248 488 -245 492 c 0
 -242 496 -240 501 -240 506 c 0
 -240 511 -242 515 -245 519 c 0
 -248 523 -253 525 -259 525 c 0
 -265 525 -270 523 -273 519 c 0
 -277 515 -279 511 -279 506 c 0
 -279 501 -277 497 -273 492 c 0
 -270 488 -266 486 -259 486 c 0
EndSplineSet
EndChar
StartChar: uni0E4A.low_left
Encoding: 136 63239 105
Width: 0
Flags: HW
VStem: -377 258
Fore
-318 394 m 0
 -335 395 -349 402 -360 417 c 0
 -371 432 -378 450 -377 471 c 0
 -377 490 -370 505 -360 518 c 0
 -350 531 -336 537 -318 537 c 0
 -305 537 -296 535 -290 530 c 0
 -283 525 -279 522 -277 519 c 1
 -274 522 -270 525 -264 530 c 0
 -257 535 -249 537 -238 537 c 0
 -221 537 -207 532 -198 521 c 0
 -189 510 -185 496 -185 477 c 0
 -185 461 -189 446 -197 432 c 1
 -194 433 -190 436 -185 440 c 0
 -180 444 -175 449 -171 456 c 0
 -164 470 -160 484 -160 498 c 0
 -160 507 -161 516 -163 525 c 1
 -123 539 l 1
 -120 533 -119 523 -119 510 c 0
 -119 481 -126 457 -140 437 c 0
 -150 422 -164 412 -181 407 c 0
 -198 402 -219 400 -244 400 c 1
 -244 401 -244 403 -245 408 c 0
 -246 413 -246 416 -246 416 c 1
 -243 419 -238 424 -233 432 c 0
 -228 440 -225 451 -225 464 c 0
 -224 487 -232 498 -247 498 c 0
 -254 498 -259 496 -263 493 c 0
 -268 490 -271 487 -273 485 c 1
 -275 487 -279 490 -286 494 c 0
 -292 498 -299 500 -308 500 c 0
 -324 500 -332 493 -333 478 c 1
 -332 479 -329 479 -325 480 c 0
 -321 481 -317 482 -312 482 c 0
 -299 481 -289 477 -283 469 c 0
 -276 460 -273 449 -273 434 c 0
 -273 423 -277 414 -286 406 c 0
 -295 398 -305 394 -318 394 c 0
-319 452 m 0
 -328 452 -333 448 -333 439 c 0
 -333 436 -332 433 -329 430 c 0
 -326 427 -323 425 -319 425 c 0
 -315 425 -312 426 -309 429 c 0
 -307 432 -306 436 -306 439 c 0
 -306 442 -307 445 -309 448 c 0
 -312 451 -315 452 -319 452 c 0
EndSplineSet
EndChar
StartChar: uni0E4B.low_left
Encoding: 137 63240 106
Width: 0
Flags: HW
HStem: 459 53<-301 -243 -188 -130>
VStem: -243 55<402 459 512 569>
Fore
-243 459 m 1
 -301 459 l 1
 -301 512 l 1
 -243 512 l 1
 -243 569 l 1
 -188 569 l 1
 -188 512 l 1
 -130 512 l 1
 -130 459 l 1
 -188 459 l 1
 -188 402 l 1
 -243 402 l 1
 -243 459 l 1
EndSplineSet
EndChar
StartChar: uni0E4C.low_left
Encoding: 138 63241 107
Width: 0
Flags: HW
VStem: -277 221
Fore
-112 527 m 0
 -142 522 -171 520 -199 520 c 0
 -182 520 -169 515 -159 504 c 0
 -149 494 -142 481 -142 465 c 0
 -141 448 -147 433 -157 421 c 0
 -167 409 -181 402 -200 402 c 0
 -223 401 -242 408 -256 421 c 0
 -270 434 -277 452 -277 474 c 0
 -276 513 -260 539 -230 554 c 0
 -217 560 -198 564 -173 565 c 0
 -148 567 -131 570 -121 574 c 0
 -111 578 -106 588 -106 605 c 1
 -56 605 l 1
 -56 585 -60 568 -69 554 c 0
 -78 540 -93 531 -112 527 c 0
-203 480 m 0
 -209 480 -214 478 -218 475 c 1
 -221 471 -223 466 -223 461 c 0
 -223 456 -221 452 -218 448 c 0
 -214 444 -209 442 -203 442 c 0
 -197 442 -192 444 -189 448 c 0
 -186 451 -184 456 -184 461 c 0
 -184 474 -190 480 -203 480 c 0
EndSplineSet
EndChar
StartChar: uni0E48.low
Encoding: 139 63242 108
Width: 0
Flags: HW
HStem: 402 152<-106 -48>
VStem: -106 58<402 554>
Fore
-106 402 m 1
 -106 554 l 1
 -48 554 l 1
 -48 402 l 1
 -106 402 l 1
EndSplineSet
EndChar
StartChar: uni0E49.low
Encoding: 140 63243 109
Width: 0
Flags: HW
VStem: -256 243
Fore
-131 501 m 0
 -132 482 -134 468 -139 459 c 0
 -143 451 -146 446 -149 445 c 1
 -147 445 -142 446 -133 449 c 0
 -125 451 -116 454 -107 459 c 0
 -98 464 -91 472 -85 481 c 0
 -74 502 -68 522 -68 542 c 0
 -68 551 -68 558 -69 563 c 1
 -13 563 l 1
 -13 490 -37 441 -85 418 c 0
 -112 405 -144 398 -179 398 c 0
 -190 398 -199 398 -207 399 c 0
 -215 400 -220 401 -223 402 c 1
 -223 422 l 1
 -220 423 -215 426 -210 431 c 0
 -205 435 -201 440 -200 445 c 1
 -202 445 -209 447 -220 450 c 0
 -231 453 -239 460 -246 471 c 0
 -253 482 -256 494 -256 507 c 0
 -256 523 -250 537 -239 549 c 0
 -228 561 -213 567 -195 567 c 0
 -174 567 -158 560 -147 546 c 0
 -136 533 -131 518 -131 501 c 0
-196 486 m 0
 -190 486 -185 488 -181 492 c 0
 -178 497 -176 501 -176 506 c 0
 -176 511 -178 515 -181 519 c 0
 -185 523 -190 525 -196 525 c 0
 -202 525 -207 523 -210 519 c 0
 -214 515 -216 511 -216 506 c 0
 -216 501 -214 497 -210 492 c 0
 -207 488 -203 486 -196 486 c 0
EndSplineSet
EndChar
StartChar: uni0E4A.low
Encoding: 141 63244 110
Width: 0
Flags: HW
VStem: -300 281
Fore
-236 397 m 0
 -255 397 -271 406 -282 423 c 0
 -294 440 -301 459 -300 480 c 0
 -300 500 -293 517 -282 531 c 0
 -271 545 -255 552 -236 552 c 0
 -229 552 -222 551 -216 549 c 0
 -211 547 -206 545 -203 543 c 0
 -200 541 -198 539 -195 537 c 0
 -193 535 -192 533 -191 532 c 1
 -188 535 -183 539 -176 544 c 0
 -169 549 -160 552 -149 552 c 0
 -130 552 -116 546 -105 535 c 1
 -96 523 -91 507 -91 486 c 0
 -91 469 -96 452 -105 437 c 1
 -102 438 -98 441 -92 445 c 0
 -87 449 -81 455 -76 463 c 0
 -67 477 -63 494 -63 513 c 0
 -63 524 -65 535 -69 546 c 1
 -23 555 l 1
 -20 546 -19 535 -19 524 c 0
 -19 491 -27 464 -43 442 c 0
 -54 426 -68 415 -87 410 c 0
 -106 405 -129 402 -156 402 c 1
 -156 403 -156 405 -156 409 c 0
 -157 414 -157 417 -157 420 c 1
 -154 423 -149 429 -144 438 c 0
 -138 447 -135 458 -135 472 c 0
 -135 497 -143 510 -159 510 c 0
 -167 510 -174 508 -180 504 c 0
 -185 501 -189 498 -192 495 c 1
 -192 495 l 1
 -192 496 -193 497 -196 500 c 0
 -200 503 -204 505 -208 508 c 0
 -213 510 -219 511 -225 511 c 0
 -243 511 -252 503 -253 488 c 1
 -251 489 -248 490 -244 491 c 0
 -240 492 -235 493 -229 493 c 0
 -215 492 -205 487 -198 478 c 0
 -191 468 -187 455 -187 440 c 0
 -187 429 -192 419 -201 410 c 0
 -210 401 -222 397 -236 397 c 0
-231 461 m 0
 -241 461 -246 456 -246 447 c 0
 -246 437 -241 432 -231 432 c 0
 -221 432 -216 437 -216 447 c 0
 -216 451 -217 454 -219 457 c 0
 -222 460 -226 461 -231 461 c 0
EndSplineSet
EndChar
StartChar: uni0E4B.low
Encoding: 142 63245 111
Width: 0
Flags: HW
HStem: 459 53<-217 -158 -104 -46>
VStem: -158 54<402 459 512 569>
Fore
-158 459 m 1
 -217 459 l 1
 -217 512 l 1
 -158 512 l 1
 -158 569 l 1
 -104 569 l 1
 -104 512 l 1
 -46 512 l 1
 -46 459 l 1
 -104 459 l 1
 -104 402 l 1
 -158 402 l 1
 -158 459 l 1
EndSplineSet
EndChar
StartChar: uni0E4C.low
Encoding: 143 63246 112
Width: 0
Flags: HW
VStem: -221 221
Fore
-56 527 m 0
 -72 524 -88 523 -103 522 c 0
 -118 521 -132 520 -143 520 c 0
 -126 520 -113 515 -103 504 c 1
 -92 494 -86 481 -86 465 c 0
 -85 448 -91 433 -101 421 c 0
 -112 409 -126 403 -144 403 c 0
 -169 403 -188 410 -201 423 c 0
 -214 436 -222 453 -221 474 c 0
 -221 493 -216 509 -208 523 c 0
 -201 536 -189 547 -174 554 c 0
 -161 560 -142 564 -117 566 c 0
 -92 567 -75 570 -64 574 c 0
 -55 577 -50 588 -50 605 c 1
 0 605 l 1
 0 560 -19 534 -56 527 c 0
-147 481 m 0
 -153 481 -158 479 -162 475 c 0
 -165 471 -167 467 -167 462 c 0
 -167 457 -165 453 -162 448 c 0
 -159 444 -154 442 -147 442 c 0
 -141 442 -136 444 -133 448 c 0
 -130 452 -128 457 -128 462 c 0
 -128 467 -130 472 -133 476 c 1
 -137 479 -142 481 -147 481 c 0
EndSplineSet
EndChar
StartChar: uni0E0D.descless
Encoding: 144 63247 113
Width: 478
Flags: HW
HStem: 0 52<209 242 300 348>
VStem: 56 59<121 165 165 169> 242 58<52 247> 372 58<81 340>
Fore
430 340 m 1
 430 65 l 2
 430 46 427 32 422 23 c 0
 417 14 408 8 397 5 c 0
 386 2 369 0 348 0 c 2
 209 0 l 1
 209 52 l 1
 242 52 l 1
 242 256 l 2
 242 272 236 284 223 293 c 0
 210 302 192 306 171 307 c 0
 162 307 149 305 132 300 c 0
 115 295 102 288 95 279 c 1
 101 278 111 276 125 271 c 0
 138 267 151 261 163 252 c 1
 163 224 l 1
 152 224 142 221 131 214 c 0
 120 207 115 192 115 169 c 2
 115 121 l 1
 116 122 116 122 117 122 c 0
 120 122 l 0
 133 122 145 119 155 113 c 0
 164 107 172 99 177 89 c 0
 182 79 184 69 184 58 c 0
 184 47 182 37 177 27 c 0
 172 17 164 9 155 3 c 0
 145 -3 133 -6 120 -6 c 0
 100 -6 84 0 73 13 c 0
 62 25 56 40 56 59 c 2
 56 165 l 2
 56 184 58 199 63 210 c 0
 68 221 76 231 88 239 c 1
 83 241 75 244 64 247 c 0
 53 250 40 253 26 254 c 1
 26 273 l 1
 34 286 51 301 76 320 c 0
 102 339 138 348 185 348 c 0
 207 348 226 345 241 338 c 0
 256 331 268 323 276 313 c 0
 285 302 291 291 294 280 c 0
 298 268 300 257 300 247 c 2
 300 52 l 1
 348 52 l 2
 359 52 366 54 369 57 c 0
 371 60 372 68 372 81 c 2
 372 340 l 1
 430 340 l 1
121 31 m 0
 126 31 131 32 136 35 c 0
 140 38 143 41 145 45 c 0
 147 49 148 53 148 58 c 0
 148 66 146 73 141 78 c 0
 136 83 130 85 121 85 c 0
 112 85 106 82 101 77 c 0
 96 72 93 65 93 58 c 0
 93 51 96 45 101 40 c 0
 106 34 112 31 121 31 c 0
EndSplineSet
EndChar
StartChar: quoteleft
Encoding: 145 8216 114
Width: 142
VWidth: 2048
Flags: HW
Fore
16 384 m 4
 15 416 25 440 47 460 c 5
 69 480 90 492 111 494 c 5
 119 478 l 5
 102 469 91 462 85 457 c 5
 76 450 70 438 68 424 c 5
 80 424 92 420 103 414 c 4
 114 407 120 395 121 375 c 5
 121 363 117 352 108 340 c 5
 101 331 90 327 76 327 c 4
 56 327 41 332 32 342 c 5
 21 353 16 367 16 384 c 4
EndSplineSet
EndChar
StartChar: quoteright
Encoding: 146 8217 115
Width: 141
VWidth: 2048
Flags: HW
Fore
124 430 m 4
 131 399 125 373 106 350 c 5
 89 326 70 311 50 305 c 5
 40 319 l 5
 54 331 64 340 69 346 c 4
 77 354 81 366 80 381 c 5
 68 379 56 380 43 385 c 4
 32 390 23 401 19 419 c 4
 17 431 19 443 25 456 c 4
 31 467 41 473 55 475 c 4
 75 479 90 477 101 468 c 5
 113 459 121 447 124 430 c 4
EndSplineSet
EndChar
StartChar: quotedblleft
Encoding: 147 8220 116
Width: 286
VWidth: 2048
Flags: HW
Fore
15 382 m 4
 13 413 23 438 45 458 c 5
 66 479 87 491 107 494 c 5
 116 479 l 5
 100 469 89 462 82 457 c 4
 73 449 68 438 66 423 c 5
 79 423 90 420 102 414 c 4
 113 408 119 395 120 375 c 4
 121 362 117 351 108 340 c 4
 101 331 90 326 76 326 c 4
 56 325 42 331 32 341 c 4
 21 352 15 365 15 382 c 4
151 386 m 4
 149 416 159 441 181 462 c 5
 201 482 222 494 243 497 c 5
 251 482 l 5
 236 473 225 465 218 459 c 4
 209 452 204 441 202 426 c 5
 213 426 226 423 237 417 c 4
 248 410 254 397 256 378 c 4
 256 365 252 354 244 343 c 4
 237 334 226 329 212 329 c 4
 191 329 176 333 167 344 c 5
 157 354 151 368 151 386 c 4
EndSplineSet
EndChar
StartChar: quotedblright
Encoding: 148 8221 117
Width: 287
VWidth: 2048
Flags: HW
HStem: 477 10G<51 68 187 204>
Fore
254 418 m 4
 255 388 245 363 222 343 c 4
 201 323 180 312 159 309 c 5
 151 325 l 5
 167 333 178 341 185 346 c 4
 194 354 200 365 202 379 c 5
 189 379 178 383 167 389 c 4
 156 396 150 408 149 428 c 4
 149 441 153 452 162 462 c 4
 169 472 180 477 194 477 c 4
 214 477 229 471 238 460 c 5
 249 450 254 436 254 418 c 4
118 418 m 4
 120 388 109 363 86 343 c 5
 65 323 44 312 23 309 c 5
 15 325 l 5
 31 333 42 341 49 346 c 4
 58 353 63 364 66 379 c 5
 55 379 43 383 31 389 c 4
 20 396 14 409 13 428 c 4
 13 441 17 452 26 462 c 4
 33 472 44 477 58 477 c 4
 79 477 94 471 103 460 c 5
 113 451 118 437 118 418 c 4
EndSplineSet
EndChar
StartChar: bullet
Encoding: 149 8226 118
Width: 180
VWidth: 2048
Flags: HW
Fore
85 100 m 0
 55 100 31 110 14 129 c 0
 -3 148 -11 170 -11 196 c 0
 -11 213 -7 229 0 243 c 0
 9 258 20 271 33 279 c 0
 47 288 65 292 85 292 c 0
 106 292 124 288 138 279 c 0
 152 270 163 258 171 244 c 1
 178 229 181 213 181 196 c 0
 181 170 173 147 156 128 c 0
 140 110 116 100 85 100 c 0
EndSplineSet
EndChar
StartChar: endash
Encoding: 150 8211 119
Width: 532
VWidth: 2048
Flags: HW
HStem: 167 33<-33 533>
Fore
-33 200 m 1
 533 200 l 1
 533 167 l 1
 -33 167 l 1
 -33 200 l 1
EndSplineSet
EndChar
StartChar: emdash
Encoding: 151 8212 120
Width: 1065
VWidth: 2048
Flags: HW
HStem: 167 33<-65 1066>
Fore
-65 200 m 1
 1066 200 l 1
 1066 167 l 1
 -65 167 l 1
 -65 200 l 1
EndSplineSet
EndChar
StartChar: uni0E31.left
Encoding: 152 63248 121
Width: 0
Flags: HW
VStem: -292 290
Fore
-226 545 m 0
 -206 545 -191 539 -180 527 c 0
 -169 514 -164 499 -164 480 c 0
 -164 473 -165 467 -167 461 c 0
 -169 456 -171 452 -173 449 c 1
 -148 449 -125 455 -104 467 c 0
 -83 478 -65 501 -50 536 c 1
 -2 518 l 1
 -8 494 -20 473 -36 456 c 0
 -53 438 -71 424 -94 415 c 0
 -117 406 -142 401 -168 401 c 0
 -177 401 -184 401 -189 402 c 0
 -217 405 -241 414 -262 427 c 0
 -282 440 -293 457 -292 480 c 0
 -292 499 -285 514 -274 527 c 0
 -263 539 -247 545 -226 545 c 0
-226 457 m 0
 -218 457 -212 459 -208 464 c 0
 -204 469 -202 475 -202 481 c 0
 -202 488 -204 493 -208 498 c 0
 -212 503 -218 505 -226 505 c 0
 -234 505 -240 503 -244 498 c 0
 -248 493 -250 488 -250 481 c 0
 -250 475 -248 469 -244 464 c 0
 -240 459 -234 457 -226 457 c 0
EndSplineSet
EndChar
StartChar: uni0E4D.left
Encoding: 153 63249 122
Width: 0
Flags: HW
HStem: 402 135<-227.5 -206.5>
VStem: -285 135<461 479>
Fore
-217 537 m 0
 -196 537 -179 531 -167 517 c 0
 -155 504 -150 488 -150 470 c 0
 -150 452 -156 436 -168 422 c 0
 -180 409 -196 402 -217 402 c 0
 -238 402 -255 409 -267 422 c 0
 -279 436 -285 452 -285 470 c 0
 -285 488 -279 504 -267 517 c 0
 -256 530 -239 537 -217 537 c 0
-217 443 m 0
 -209 443 -203 446 -198 451 c 0
 -193 456 -191 463 -191 470 c 0
 -191 477 -193 483 -198 488 c 0
 -203 493 -209 496 -217 496 c 0
 -225 496 -231 494 -236 489 c 0
 -241 484 -243 477 -243 470 c 0
 -243 463 -241 456 -236 451 c 0
 -231 446 -225 443 -217 443 c 0
EndSplineSet
EndChar
StartChar: uni0E47.left
Encoding: 154 63250 123
Width: 0
Flags: HW
VStem: -370 247
Fore
-186 402 m 0
 -195 402 -204 404 -212 409 c 0
 -221 414 -229 420 -238 427 c 0
 -247 434 -254 440 -261 444 c 0
 -268 448 -275 450 -282 450 c 0
 -289 450 -294 445 -299 434 c 0
 -304 423 -306 411 -306 400 c 1
 -319 400 l 1
 -332 407 -344 420 -354 437 c 0
 -365 454 -370 472 -370 489 c 0
 -370 498 -369 506 -366 513 c 0
 -359 530 -350 541 -338 547 c 0
 -326 553 -309 556 -287 556 c 0
 -276 556 -268 556 -262 555 c 0
 -241 554 -226 553 -219 553 c 0
 -201 553 -188 556 -181 562 c 0
 -173 567 -169 579 -169 597 c 1
 -123 597 l 1
 -123 567 -131 546 -146 533 c 0
 -161 520 -186 513 -221 513 c 0
 -238 513 -252 514 -263 515 c 0
 -284 515 -299 512 -308 507 c 0
 -317 502 -321 490 -321 473 c 1
 -320 477 -316 482 -309 487 c 0
 -302 492 -292 495 -277 495 c 0
 -265 495 -255 493 -248 488 c 0
 -241 483 -236 479 -233 476 c 1
 -226 495 -211 505 -186 505 c 0
 -169 505 -156 500 -147 491 c 0
 -138 482 -134 469 -134 454 c 0
 -134 439 -139 426 -148 417 c 0
 -157 407 -170 402 -186 402 c 0
-186 438 m 0
 -181 438 -177 440 -174 443 c 0
 -171 446 -170 449 -170 454 c 0
 -170 458 -171 462 -174 465 c 0
 -177 468 -181 469 -186 469 c 0
 -191 469 -194 467 -197 464 c 0
 -200 461 -201 457 -201 454 c 0
 -201 450 -200 446 -197 443 c 0
 -194 440 -191 438 -186 438 c 0
EndSplineSet
EndChar
StartChar: uni0E48.left
Encoding: 155 63251 124
Width: 0
Flags: HW
HStem: 619 117<-204 -151>
VStem: -204 53<619 736>
Fore
-204 619 m 1
 -204 736 l 1
 -151 736 l 1
 -151 619 l 1
 -204 619 l 1
EndSplineSet
EndChar
StartChar: uni0E49.left
Encoding: 156 63252 125
Width: 0
Flags: HW
VStem: -279 205
Fore
-173 681 m 0
 -174 665 -176 653 -180 646 c 0
 -183 639 -186 634 -188 633 c 1
 -187 633 -182 634 -175 636 c 0
 -168 638 -161 641 -153 646 c 0
 -145 651 -139 657 -134 664 c 0
 -128 674 -124 684 -123 694 c 0
 -121 703 -120 716 -120 733 c 1
 -74 733 l 1
 -74 670 -94 628 -133 610 c 0
 -158 598 -185 593 -212 593 c 0
 -221 593 -229 594 -236 595 c 0
 -243 596 -248 596 -251 597 c 1
 -251 614 l 1
 -248 615 -245 618 -240 621 c 0
 -235 624 -233 628 -232 633 c 1
 -233 633 -239 634 -248 637 c 0
 -257 640 -265 646 -270 655 c 0
 -276 664 -279 674 -279 686 c 0
 -279 700 -274 712 -264 722 c 0
 -255 732 -242 737 -227 737 c 0
 -210 737 -196 731 -187 720 c 0
 -178 708 -173 695 -173 681 c 0
-228 668 m 0
 -217 668 -211 674 -211 685 c 0
 -211 690 -212 694 -215 697 c 0
 -218 700 -223 702 -228 702 c 0
 -233 702 -238 700 -241 697 c 0
 -244 694 -245 690 -245 685 c 0
 -245 681 -243 677 -240 673 c 0
 -237 670 -233 668 -228 668 c 0
EndSplineSet
EndChar
StartChar: uni0E4A.left
Encoding: 157 63253 126
Width: 0
Flags: HW
VStem: -325 246
Fore
-268 596 m 0
 -285 597 -298 604 -309 619 c 0
 -320 633 -325 650 -325 669 c 1
 -323 688 -317 703 -308 714 c 0
 -299 726 -285 732 -268 732 c 0
 -261 732 -254 731 -249 729 c 0
 -234 720 l 0
 -231 717 -229 715 -229 715 c 1
 -229 715 l 1
 -227 718 -223 721 -216 726 c 0
 -210 730 -202 732 -193 732 c 0
 -176 732 -163 727 -155 717 c 0
 -146 707 -142 693 -142 676 c 0
 -142 660 -146 645 -153 632 c 1
 -150 633 -147 636 -142 641 c 0
 -137 645 -132 650 -129 655 c 0
 -122 668 -118 681 -118 696 c 0
 -118 703 -119 712 -121 721 c 1
 -83 734 l 1
 -80 726 -79 717 -79 708 c 0
 -79 680 -86 656 -100 637 c 0
 -110 623 -123 614 -139 609 c 0
 -156 604 -176 602 -199 602 c 1
 -199 605 -199 607 -199 610 c 0
 -200 613 -200 615 -200 618 c 1
 -197 621 -193 626 -188 633 c 0
 -183 640 -181 650 -180 663 c 0
 -180 672 -181 680 -184 687 c 0
 -187 693 -192 696 -201 696 c 0
 -207 696 -212 694 -216 691 c 0
 -221 688 -224 686 -225 683 c 1
 -225 683 l 1
 -225 684 -226 685 -229 687 c 0
 -233 689 -237 691 -242 694 c 0
 -247 696 -253 697 -259 697 c 0
 -274 697 -282 690 -283 677 c 1
 -282 678 -279 678 -275 679 c 0
 -272 680 -268 680 -263 680 c 0
 -251 680 -242 676 -235 668 c 0
 -228 660 -225 649 -225 635 c 0
 -225 625 -229 616 -237 608 c 0
 -246 600 -256 596 -268 596 c 0
-269 651 m 0
 -278 651 -282 647 -282 639 c 0
 -282 630 -278 626 -269 626 c 0
 -260 626 -256 630 -256 639 c 0
 -256 647 -260 651 -269 651 c 0
EndSplineSet
EndChar
StartChar: uni0E4B.left
Encoding: 158 63254 127
Width: 0
Flags: HW
HStem: 644 46<-252 -202 -152 -102>
VStem: -202 50<601 644 690 734>
Fore
-202 644 m 1
 -252 644 l 1
 -252 690 l 1
 -202 690 l 1
 -202 734 l 1
 -152 734 l 1
 -152 690 l 1
 -102 690 l 1
 -102 644 l 1
 -152 644 l 1
 -152 601 l 1
 -202 601 l 1
 -202 644 l 1
EndSplineSet
EndChar
StartChar: uni0E4C.left
Encoding: 159 63255 128
Width: 0
Flags: HW
VStem: -315 188
Fore
-175 672 m 0
 -199 668 -217 668 -228 667 c 0
 -239 666 -246 666 -249 666 c 0
 -234 666 -223 662 -214 653 c 0
 -206 644 -200 633 -200 620 c 0
 -199 605 -204 592 -213 582 c 0
 -222 572 -234 566 -250 566 c 0
 -270 565 -286 572 -297 583 c 0
 -309 594 -315 608 -315 627 c 0
 -315 660 -302 683 -275 695 c 0
 -263 700 -247 704 -226 705 c 0
 -205 706 -191 709 -182 712 c 0
 -173 715 -169 724 -169 738 c 1
 -127 738 l 1
 -127 721 -131 706 -139 695 c 0
 -146 683 -158 674 -175 672 c 0
-253 633 m 0
 -264 633 -269 628 -269 617 c 0
 -269 606 -264 600 -253 600 c 0
 -242 600 -237 606 -237 617 c 0
 -237 621 -238 625 -241 628 c 0
 -244 631 -248 633 -253 633 c 0
EndSplineSet
EndChar
StartChar: uni0E01
Encoding: 161 3585 130
Width: 369
Flags: HW
HStem: 0 20 304 44<172 192>
VStem: 56 59<0 165 165 169> 263 58<0 231 231 236>
Fore
88 239 m 1
 83 241 75 244 64 247 c 0
 53 250 40 253 26 254 c 1
 26 273 l 1
 28 276 32 281 38 288 c 0
 44 295 54 303 67 313 c 0
 80 322 97 331 117 338 c 0
 136 345 159 348 185 348 c 0
 212 348 235 344 255 336 c 0
 275 327 291 315 303 298 c 0
 315 281 321 261 321 236 c 2
 321 0 l 1
 263 0 l 1
 263 231 l 2
 263 255 255 274 240 286 c 0
 224 299 204 304 180 304 c 0
 151 304 123 295 96 278 c 1
 99 277 103 276 109 275 c 0
 116 274 124 271 134 268 c 0
 144 264 154 259 163 252 c 1
 163 224 l 1
 152 224 142 221 131 214 c 0
 120 207 115 192 115 169 c 2
 115 0 l 1
 56 0 l 1
 56 165 l 2
 56 184 58 199 63 210 c 0
 68 221 76 231 88 239 c 1
EndSplineSet
EndChar
StartChar: uni0E02
Encoding: 162 3586 131
Width: 361
Flags: HW
HStem: 0 52<91 131 190 227> 193 156
VStem: 131 59<52 154 154 156> 254 59<81 340>
Fore
174 255 m 1
 174 272 170 284 162 292 c 0
 153 299 144 303 134 304 c 1
 136 301 139 296 142 289 c 0
 145 281 147 272 147 261 c 0
 146 241 140 225 128 212 c 0
 115 199 99 193 79 193 c 0
 58 193 42 200 29 213 c 0
 16 226 10 242 10 261 c 0
 10 280 15 296 25 309 c 0
 35 322 48 332 64 339 c 0
 80 346 97 349 114 349 c 0
 147 349 174 340 194 322 c 0
 214 304 224 283 224 259 c 0
 224 246 223 235 220 228 c 0
 217 220 212 212 207 204 c 0
 201 195 197 188 194 182 c 0
 191 175 190 167 190 156 c 2
 190 52 l 1
 227 52 l 2
 240 52 247 54 250 57 c 0
 253 61 254 69 254 81 c 2
 254 340 l 1
 313 340 l 1
 313 65 l 2
 313 38 307 21 294 13 c 0
 281 4 259 0 227 0 c 2
 91 0 l 1
 91 52 l 1
 131 52 l 1
 131 154 l 2
 131 166 133 176 136 184 c 0
 139 191 145 200 152 209 c 0
 159 218 164 225 167 230 c 0
 170 235 172 244 174 255 c 1
79 234 m 0
 88 234 94 237 99 242 c 0
 103 247 105 253 105 260 c 0
 105 267 103 274 99 279 c 0
 94 284 88 286 79 286 c 0
 71 286 65 283 60 278 c 0
 55 273 53 267 53 260 c 0
 53 253 55 247 60 242 c 0
 65 237 71 234 79 234 c 0
EndSplineSet
EndChar
StartChar: uni0E03
Encoding: 163 3587 132
Width: 399
Flags: HW
HStem: 0 52<129 170 228 266 266 272.5>
VStem: 170 58<52 205> 293 58<81 340>
Fore
91 148 m 0
 65 148 46 156 33 173 c 0
 20 189 13 210 13 236 c 0
 13 242 13 251 15 263 c 0
 17 282 25 297 36 310 c 0
 47 323 60 333 73 340 c 0
 87 347 98 350 106 350 c 1
 144 329 l 1
 187 350 l 1
 204 347 221 339 237 326 c 0
 253 313 261 298 261 281 c 0
 261 270 258 260 253 253 c 0
 248 246 242 240 236 233 c 0
 231 226 228 216 228 205 c 2
 228 52 l 1
 266 52 l 2
 279 52 286 54 289 57 c 0
 292 61 293 69 293 81 c 2
 293 340 l 1
 351 340 l 1
 351 81 l 2
 351 52 346 31 337 19 c 0
 328 6 308 0 278 0 c 2
 129 0 l 1
 129 52 l 1
 170 52 l 1
 170 210 l 2
 170 239 180 258 201 269 c 1
 208 274 212 278 212 283 c 0
 212 290 205 298 190 305 c 1
 144 283 l 1
 97 305 l 1
 86 303 78 298 72 291 c 0
 67 284 63 278 62 273 c 1
 63 274 66 276 70 277 c 0
 75 279 82 280 91 280 c 0
 104 280 116 277 126 271 c 0
 136 266 143 258 148 249 c 0
 153 240 157 229 157 217 c 0
 158 197 151 180 140 167 c 0
 128 154 112 148 91 148 c 0
90 188 m 0
 99 188 105 191 109 196 c 0
 114 201 116 207 116 214 c 0
 116 221 114 228 109 233 c 0
 105 238 99 240 90 240 c 0
 82 240 76 237 71 232 c 0
 66 227 64 221 64 214 c 0
 64 207 66 201 71 196 c 0
 76 191 82 188 90 188 c 0
EndSplineSet
EndChar
StartChar: uni0E04
Encoding: 164 3588 133
Width: 366
Flags: HW
HStem: 0 20 305 46<161.5 183.5>
VStem: 79 59<0 59 59 66.5> 260 58<0 228 228 231>
Fore
166 128 m 0
 163 128 157 129 150 130 c 0
 142 132 138 133 138 134 c 2
 138 0 l 1
 79 0 l 1
 79 59 l 2
 79 74 77 87 72 100 c 0
 67 112 60 126 51 141 c 0
 42 156 36 170 31 183 c 0
 26 196 24 210 24 227 c 0
 25 254 32 276 47 295 c 0
 61 314 79 328 102 337 c 0
 125 346 149 351 174 351 c 0
 199 351 222 347 245 338 c 0
 266 329 284 315 298 297 c 0
 311 279 318 257 318 231 c 2
 318 0 l 1
 260 0 l 1
 260 228 l 2
 260 253 251 272 234 285 c 0
 217 298 196 305 171 305 c 0
 145 305 123 298 104 284 c 0
 84 269 74 250 74 225 c 0
 74 211 76 198 81 185 c 0
 85 174 87 169 88 169 c 1
 88 169 88 169 88 170 c 0
 88 188 93 208 104 229 c 0
 114 250 135 262 166 263 c 0
 186 263 202 257 215 244 c 0
 227 231 233 215 233 196 c 0
 233 177 227 162 215 149 c 0
 203 136 187 129 166 128 c 0
166 169 m 0
 175 169 181 172 186 177 c 0
 190 182 192 188 192 196 c 0
 192 203 190 210 186 215 c 0
 181 220 175 222 166 222 c 0
 158 222 152 219 147 214 c 0
 142 209 140 203 140 196 c 0
 140 189 142 182 147 177 c 0
 152 172 158 169 166 169 c 0
EndSplineSet
EndChar
StartChar: uni0E05
Encoding: 165 3589 134
Width: 366
Flags: HW
HStem: 0 20
VStem: 79 59<0 59 59 66.5> 260 58<0 229 229 231>
Fore
126 346 m 1
 178 324 l 1
 234 346 l 1
 253 341 270 331 283 318 c 0
 296 305 305 291 310 275 c 0
 315 259 318 244 318 231 c 2
 318 0 l 1
 260 0 l 1
 260 229 l 2
 260 246 258 259 255 269 c 0
 252 278 243 287 230 295 c 1
 178 276 l 1
 128 298 l 1
 111 291 98 282 88 269 c 0
 79 256 74 241 74 225 c 0
 74 211 76 198 81 185 c 0
 85 174 87 169 88 169 c 1
 88 169 88 169 88 170 c 0
 88 188 93 208 104 229 c 0
 114 250 135 262 166 263 c 0
 186 263 202 257 215 244 c 0
 227 231 233 215 233 196 c 0
 233 177 227 162 215 149 c 0
 203 136 187 129 166 128 c 0
 163 128 157 129 150 130 c 0
 142 132 138 133 138 134 c 2
 138 0 l 1
 79 0 l 1
 79 59 l 2
 79 74 77 87 72 100 c 0
 67 112 60 126 51 141 c 0
 42 156 36 170 31 183 c 0
 26 196 24 210 24 227 c 0
 25 286 59 325 126 346 c 1
166 169 m 0
 175 169 181 172 186 177 c 0
 190 182 192 188 192 196 c 0
 192 203 190 210 186 215 c 0
 181 220 175 222 166 222 c 0
 158 222 152 219 147 214 c 0
 142 209 140 203 140 196 c 0
 140 189 142 182 147 177 c 0
 152 172 158 169 166 169 c 0
EndSplineSet
EndChar
StartChar: uni0E06
Encoding: 166 3590 135
Width: 458
Flags: HW
HStem: -7 20
VStem: 173 58<52 109 157 201> 352 58<0 2.5 95 340>
Fore
231 201 m 2
 231 157 l 1
 246 155 261 152 278 145 c 0
 294 139 309 129 323 120 c 0
 337 111 347 102 352 95 c 1
 352 340 l 1
 410 340 l 1
 410 0 l 1
 352 0 l 1
 352 5 347 17 337 34 c 0
 327 51 313 68 295 83 c 0
 277 98 256 106 231 109 c 1
 231 52 l 2
 231 35 225 21 214 10 c 0
 203 -1 188 -7 169 -7 c 0
 146 -7 127 1 114 16 c 0
 101 31 94 49 94 70 c 0
 94 92 101 111 115 128 c 0
 129 145 148 155 173 157 c 1
 173 207 l 2
 173 236 183 255 204 266 c 0
 211 269 215 274 215 279 c 0
 215 287 208 295 193 302 c 1
 147 280 l 1
 100 302 l 1
 89 300 81 295 74 287 c 0
 67 278 63 271 61 266 c 1
 63 268 67 270 73 272 c 0
 78 274 85 275 94 276 c 0
 113 276 129 270 141 258 c 0
 153 246 160 231 160 213 c 0
 161 194 154 178 141 165 c 0
 128 152 112 145 94 145 c 0
 68 146 49 154 36 169 c 0
 23 185 16 206 16 231 c 0
 16 243 17 252 18 259 c 0
 22 284 34 305 55 322 c 0
 75 338 93 346 109 346 c 1
 147 326 l 1
 190 346 l 1
 207 344 224 336 240 323 c 0
 256 310 264 295 264 278 c 0
 264 270 263 263 260 257 c 0
 257 252 253 246 248 240 c 0
 242 233 238 228 235 223 c 0
 232 218 231 210 231 201 c 2
146 47 m 0
 149 41 154 38 161 38 c 0
 169 38 173 43 173 52 c 2
 173 111 l 1
 164 110 156 105 149 97 c 0
 143 88 140 79 140 69 c 0
 140 62 142 54 146 47 c 0
92 184 m 0
 100 184 106 187 111 192 c 0
 116 197 118 203 118 211 c 0
 118 218 116 224 112 229 c 0
 107 234 101 237 92 237 c 0
 84 237 78 234 73 229 c 0
 68 224 66 218 66 211 c 0
 66 204 68 197 73 192 c 0
 78 187 84 184 92 184 c 0
EndSplineSet
EndChar
StartChar: uni0E07
Encoding: 167 3591 136
Width: 292
Flags: HW
HStem: -10 20
VStem: 186 58<59 213 213 213>
Fore
175 346 m 0
 195 346 212 340 225 328 c 0
 238 315 244 300 244 282 c 2
 244 49 l 2
 244 30 238 16 227 6 c 0
 214 -5 200 -10 183 -10 c 0
 156 -10 135 1 122 23 c 2
 10 213 l 1
 56 243 l 1
 64 230 75 211 90 186 c 0
 105 161 121 133 140 102 c 0
 158 71 167 55 167 54 c 0
 172 45 177 40 180 40 c 0
 183 40 186 46 186 59 c 2
 186 213 l 1
 186 213 185 213 183 213 c 0
 181 212 178 212 175 212 c 0
 154 212 138 219 125 232 c 0
 113 245 107 261 107 279 c 0
 107 297 113 313 125 326 c 0
 137 339 154 346 175 346 c 0
175 252 m 0
 184 252 190 255 194 260 c 0
 199 265 201 271 201 279 c 0
 201 286 199 293 194 298 c 0
 190 303 184 305 175 305 c 0
 167 305 161 302 156 297 c 0
 151 292 149 286 149 279 c 0
 149 272 151 265 156 260 c 0
 161 255 167 252 175 252 c 0
EndSplineSet
EndChar
StartChar: uni0E08
Encoding: 168 3592 137
Width: 345
Flags: HW
HStem: -4 20 299 47<141 172.5>
VStem: 239 58<56 68 68 232 232 234>
Fore
297 68 m 2
 297 39 291 19 279 10 c 0
 268 1 253 -4 234 -4 c 0
 218 -4 205 0 195 8 c 0
 184 15 177 27 172 44 c 0
 169 55 165 70 161 87 c 0
 156 104 154 113 153 113 c 1
 152 111 148 109 143 106 c 0
 137 103 129 102 118 102 c 0
 97 103 80 109 69 122 c 0
 57 135 51 151 51 169 c 0
 51 186 57 202 69 216 c 0
 80 229 97 236 118 236 c 0
 153 236 178 219 188 186 c 0
 214 97 226 52 226 51 c 0
 227 42 230 38 233 38 c 0
 236 38 239 44 239 56 c 2
 239 232 l 2
 239 256 232 273 217 283 c 0
 202 294 183 299 162 299 c 0
 120 299 85 280 56 243 c 1
 19 270 l 1
 50 321 98 346 164 346 c 0
 203 346 235 336 260 317 c 0
 285 298 297 270 297 234 c 2
 297 68 l 2
118 143 m 0
 127 143 133 145 138 150 c 0
 142 155 144 162 144 169 c 0
 144 176 142 183 138 188 c 0
 133 193 127 195 118 195 c 0
 109 195 103 192 99 187 c 0
 94 182 92 176 92 169 c 0
 92 162 94 156 99 151 c 0
 104 146 110 143 118 143 c 0
EndSplineSet
EndChar
StartChar: uni0E09
Encoding: 169 3593 138
Width: 398
Flags: HW
HStem: -7 20 301 47<172.5 194.5>
VStem: 92 58<90 98 98 98> 262 58<49 112 155 233 233 234>
Fore
83 231 m 0
 102 231 117 225 130 214 c 0
 143 203 150 188 150 171 c 2
 150 90 l 1
 162 107 178 120 199 131 c 0
 219 142 240 150 262 155 c 1
 262 233 l 2
 262 255 255 273 242 284 c 0
 228 296 208 301 181 301 c 0
 164 301 146 295 129 284 c 0
 112 273 97 260 84 244 c 1
 45 271 l 1
 60 294 80 312 104 327 c 0
 128 341 155 348 186 348 c 0
 227 348 260 338 284 318 c 0
 308 297 320 269 320 234 c 2
 320 155 l 1
 341 151 357 141 368 125 c 0
 379 109 386 90 385 67 c 0
 385 45 378 27 365 14 c 0
 352 0 336 -7 317 -7 c 0
 302 -7 290 -3 279 6 c 0
 268 15 262 29 262 48 c 2
 262 112 l 1
 231 104 205 89 184 68 c 0
 163 47 151 24 148 0 c 1
 92 0 l 1
 92 98 l 1
 91 98 90 98 88 97 c 0
 87 96 85 96 83 96 c 0
 62 97 46 104 34 117 c 0
 22 130 16 145 16 163 c 0
 16 181 23 197 34 210 c 0
 46 224 62 231 83 231 c 0
345 72 m 0
 345 83 343 92 338 99 c 0
 333 106 327 110 320 112 c 1
 320 49 l 1
 321 40 323 36 328 36 c 0
 331 37 334 39 337 42 c 0
 339 46 341 51 343 57 c 0
 344 62 345 67 345 72 c 0
84 137 m 0
 93 137 99 140 104 145 c 0
 108 150 110 156 110 164 c 0
 110 171 108 178 104 183 c 0
 99 188 93 190 84 190 c 0
 76 190 70 187 65 182 c 0
 60 177 58 171 58 164 c 0
 58 157 60 151 65 146 c 0
 70 140 76 137 84 137 c 0
EndSplineSet
EndChar
StartChar: uni0E0A
Encoding: 170 3594 139
Width: 368
Flags: HW
HStem: 0 52<100 142 200 234 234 240.5> 192 155
VStem: 142 58<52 150> 262 58<81 196 196 201>
Fore
183 256 m 0
 184 272 179 284 171 292 c 0
 163 301 154 305 145 306 c 1
 148 303 151 297 155 290 c 0
 158 281 160 272 160 262 c 0
 160 242 154 225 142 212 c 0
 130 199 113 192 91 192 c 0
 70 192 54 199 41 212 c 0
 28 225 22 242 22 262 c 0
 22 278 27 293 38 306 c 0
 48 319 61 329 76 336 c 0
 91 343 106 347 121 347 c 0
 146 347 169 342 188 331 c 0
 208 320 220 306 225 291 c 1
 233 291 246 296 264 306 c 0
 282 315 301 336 320 369 c 1
 362 342 l 1
 352 319 339 302 324 291 c 0
 309 280 297 273 289 270 c 1
 294 268 301 262 309 252 c 0
 316 242 320 225 320 201 c 2
 320 65 l 2
 320 46 318 32 314 23 c 0
 310 14 303 8 293 5 c 0
 283 2 268 0 247 0 c 2
 100 0 l 1
 100 52 l 1
 142 52 l 1
 142 156 l 2
 142 167 144 176 147 183 c 0
 150 190 155 198 162 207 c 0
 168 215 173 222 177 228 c 0
 180 234 183 243 183 256 c 0
92 234 m 0
 100 234 106 237 111 242 c 0
 116 247 118 253 118 260 c 0
 118 267 116 274 111 279 c 0
 106 284 100 286 92 286 c 0
 84 286 78 283 73 278 c 0
 68 273 66 267 66 260 c 0
 66 253 68 247 73 242 c 0
 78 237 84 234 92 234 c 0
231 249 m 1
 230 236 229 226 226 220 c 0
 223 214 220 208 215 202 c 0
 210 195 207 188 204 181 c 0
 201 174 200 163 200 150 c 2
 200 52 l 1
 234 52 l 2
 247 52 255 54 258 57 c 0
 261 61 262 69 262 81 c 2
 262 196 l 2
 262 217 258 231 250 238 c 0
 243 245 236 249 231 249 c 1
EndSplineSet
EndChar
StartChar: uni0E0B
Encoding: 171 3595 140
Width: 389
Flags: HW
HStem: 0 52<121 163 221 255 255 261.5>
VStem: 163 58<52 150> 284 58<81 196 196 201>
Fore
182 350 m 1
 195 349 210 342 225 330 c 0
 240 318 249 305 251 291 c 1
 258 292 271 297 288 308 c 0
 305 318 322 338 341 369 c 1
 384 342 l 1
 374 319 362 302 347 291 c 0
 332 280 320 273 312 270 c 1
 317 268 323 262 331 252 c 0
 338 241 342 224 342 201 c 2
 342 65 l 2
 342 38 337 20 328 12 c 0
 318 4 298 0 269 0 c 2
 121 0 l 1
 121 52 l 1
 163 52 l 1
 163 161 l 2
 163 172 165 181 168 188 c 0
 171 193 176 200 184 209 c 0
 191 217 196 224 200 230 c 0
 204 237 206 245 207 256 c 0
 207 269 206 279 203 286 c 0
 200 293 194 299 184 305 c 1
 139 283 l 1
 92 305 l 1
 81 303 72 298 67 291 c 0
 62 284 58 278 57 273 c 1
 58 274 61 276 65 277 c 0
 69 279 76 280 86 280 c 0
 99 280 110 277 121 271 c 0
 130 266 138 258 143 249 c 0
 148 240 152 229 152 217 c 0
 153 198 146 181 134 168 c 0
 122 155 106 148 86 148 c 0
 61 148 41 156 27 173 c 0
 14 190 7 211 7 236 c 0
 7 242 8 251 9 263 c 0
 12 280 19 296 30 309 c 0
 41 322 54 333 67 340 c 0
 81 347 92 350 100 350 c 1
 139 329 l 1
 146 332 155 337 166 342 c 0
 177 347 182 350 182 350 c 1
252 249 m 1
 251 238 249 229 246 223 c 0
 243 216 240 210 235 204 c 0
 231 197 228 190 225 182 c 0
 222 174 221 163 221 150 c 2
 221 52 l 1
 255 52 l 2
 268 52 276 54 279 57 c 0
 282 61 284 69 284 81 c 2
 284 196 l 2
 284 217 280 231 271 238 c 0
 264 245 257 249 252 249 c 1
84 188 m 0
 93 188 99 191 104 196 c 0
 108 201 110 207 110 214 c 0
 110 221 108 228 104 233 c 0
 99 238 93 240 84 240 c 0
 76 240 70 237 65 232 c 0
 60 227 58 221 58 214 c 0
 58 207 60 201 65 196 c 0
 70 191 76 188 84 188 c 0
EndSplineSet
EndChar
StartChar: uni0E0C
Encoding: 172 3596 141
Width: 478
Flags: HW
HStem: -6 20
VStem: 56 59<121 165 165 169> 242 58<127 247> 372 58<80 340>
Fore
300 40 m 2
 300 27 296 16 287 7 c 0
 278 -2 265 -6 248 -6 c 0
 231 -6 218 0 209 12 c 0
 200 24 196 40 196 59 c 0
 196 76 200 91 207 103 c 0
 214 114 225 122 242 127 c 1
 242 256 l 2
 242 272 236 284 223 293 c 0
 210 302 192 306 171 307 c 0
 162 307 149 305 132 300 c 0
 115 295 102 288 95 279 c 1
 101 278 111 276 125 271 c 0
 138 267 151 261 163 252 c 1
 163 224 l 1
 152 224 142 221 131 214 c 0
 120 207 115 192 115 169 c 2
 115 121 l 1
 116 122 116 122 117 122 c 0
 120 122 l 0
 133 122 145 119 155 113 c 0
 164 107 172 99 177 89 c 0
 182 79 184 69 184 58 c 0
 184 47 182 37 177 27 c 0
 172 17 164 9 155 3 c 0
 145 -3 133 -6 120 -6 c 0
 100 -6 84 0 73 13 c 0
 62 25 56 40 56 59 c 2
 56 165 l 2
 56 184 58 199 63 210 c 0
 68 221 76 231 88 239 c 1
 83 241 75 244 64 247 c 0
 53 250 41 253 26 254 c 1
 26 273 l 1
 34 286 51 301 76 320 c 0
 102 339 138 348 185 348 c 0
 207 348 226 345 241 338 c 0
 256 331 268 323 276 313 c 0
 285 302 291 291 294 280 c 0
 298 268 300 257 300 247 c 2
 300 124 l 1
 312 121 323 116 334 109 c 0
 345 102 354 97 360 92 c 0
 366 87 370 83 372 80 c 1
 372 340 l 1
 430 340 l 1
 430 0 l 1
 372 0 l 1
 367 11 359 26 347 44 c 0
 334 62 319 74 300 79 c 1
 300 40 l 2
121 31 m 0
 126 31 131 32 136 35 c 0
 140 38 143 41 145 45 c 0
 147 49 148 53 148 58 c 0
 148 66 146 73 141 78 c 0
 136 83 130 85 121 85 c 0
 112 85 106 82 101 77 c 0
 96 72 93 65 93 58 c 0
 93 51 96 45 101 40 c 0
 106 34 112 31 121 31 c 0
251 34 m 1
 251 89 l 1
 242 88 236 84 233 79 c 0
 230 74 228 66 228 55 c 0
 228 48 230 42 234 37 c 0
 237 32 241 29 245 29 c 0
 248 29 250 31 251 34 c 1
EndSplineSet
EndChar
StartChar: uni0E0D
Encoding: 173 3597 142
Width: 478
Flags: HW
HStem: 0 52<209 242 300 348>
VStem: 56 59<121 165 165 169> 242 58<52 247> 372 58<81 340>
Fore
430 340 m 1
 430 65 l 2
 430 46 427 32 422 23 c 0
 417 14 408 8 397 5 c 0
 386 2 369 0 348 0 c 2
 209 0 l 1
 209 52 l 1
 242 52 l 1
 242 256 l 2
 242 272 236 284 223 293 c 0
 210 302 192 306 171 307 c 0
 162 307 149 305 132 300 c 0
 115 295 102 288 95 279 c 1
 101 278 111 276 125 271 c 0
 138 267 151 261 163 252 c 1
 163 224 l 1
 152 224 142 221 131 214 c 0
 120 207 115 192 115 169 c 2
 115 121 l 1
 116 122 116 122 117 122 c 0
 120 122 l 0
 133 122 145 119 155 113 c 0
 164 107 172 99 177 89 c 0
 182 79 184 69 184 58 c 0
 184 47 182 37 177 27 c 0
 172 17 164 9 155 3 c 0
 145 -3 133 -6 120 -6 c 0
 100 -6 84 0 73 13 c 0
 62 25 56 40 56 59 c 2
 56 165 l 2
 56 184 58 199 63 210 c 0
 68 221 76 231 88 239 c 1
 83 241 75 244 64 247 c 0
 53 250 40 253 26 254 c 1
 26 273 l 1
 34 286 51 301 76 320 c 0
 102 339 138 348 185 348 c 0
 207 348 226 345 241 338 c 0
 256 331 268 323 276 313 c 0
 285 302 291 291 294 280 c 0
 298 268 300 257 300 247 c 2
 300 52 l 1
 348 52 l 2
 359 52 366 54 369 57 c 0
 371 60 372 68 372 81 c 2
 372 340 l 1
 430 340 l 1
314 -115 m 1
 327 -115 339 -109 352 -97 c 0
 365 -84 371 -58 371 -19 c 1
 428 -19 l 1
 428 -56 422 -85 409 -107 c 0
 396 -129 380 -144 361 -152 c 0
 342 -161 322 -165 301 -165 c 0
 283 -165 268 -163 256 -158 c 0
 233 -150 218 -140 209 -127 c 0
 200 -114 195 -98 196 -79 c 0
 196 -61 203 -46 214 -34 c 0
 225 -21 241 -15 261 -15 c 0
 282 -15 298 -21 309 -34 c 0
 319 -47 324 -63 324 -80 c 0
 324 -95 321 -107 314 -115 c 1
261 -106 m 0
 270 -106 277 -103 282 -98 c 0
 287 -93 289 -86 289 -79 c 0
 289 -72 287 -65 282 -60 c 0
 277 -55 270 -52 261 -52 c 0
 253 -52 246 -55 241 -60 c 0
 236 -65 234 -72 234 -79 c 0
 234 -86 237 -93 242 -98 c 0
 247 -103 253 -106 261 -106 c 0
121 31 m 0
 126 31 131 32 136 35 c 0
 140 38 143 41 145 45 c 0
 147 49 148 53 148 58 c 0
 148 66 146 73 141 78 c 0
 136 83 130 85 121 85 c 0
 112 85 106 82 101 77 c 0
 96 72 93 65 93 58 c 0
 93 51 96 45 101 40 c 0
 106 34 112 31 121 31 c 0
EndSplineSet
EndChar
StartChar: uni0E0E
Encoding: 174 3598 143
Width: 402
Flags: HW
HStem: -163 148
VStem: 296 58<-84 231 231 236>
Fore
241 -47 m 1
 254 -54 266 -60 275 -67 c 0
 285 -75 292 -81 296 -84 c 1
 296 231 l 2
 296 255 288 273 272 286 c 0
 257 298 237 304 213 304 c 0
 200 304 185 302 170 297 c 0
 155 293 142 287 129 278 c 1
 135 277 145 275 158 271 c 0
 171 268 183 261 196 252 c 1
 196 224 l 1
 186 224 176 221 165 214 c 0
 154 207 148 192 148 169 c 2
 148 61 l 2
 148 41 142 25 131 13 c 0
 120 0 104 -6 82 -7 c 1
 61 -6 44 0 33 13 c 0
 21 26 15 41 15 59 c 0
 15 78 21 94 33 107 c 0
 44 120 61 127 82 127 c 0
 84 127 86 127 87 127 c 0
 88 126 88 126 89 126 c 1
 89 165 l 2
 89 184 92 199 97 210 c 0
 102 221 110 231 121 239 c 1
 116 241 108 244 97 247 c 0
 86 250 73 253 58 254 c 1
 58 273 l 1
 61 276 65 281 71 288 c 0
 77 295 87 303 100 313 c 0
 113 322 130 331 149 338 c 0
 169 345 192 348 218 348 c 0
 244 348 267 344 288 335 c 0
 309 327 325 314 336 297 c 0
 348 280 354 259 354 236 c 2
 354 -163 l 1
 296 -163 l 1
 283 -145 270 -130 256 -119 c 0
 242 -108 232 -100 225 -96 c 1
 218 -114 206 -130 189 -143 c 0
 172 -156 151 -164 126 -163 c 0
 107 -163 90 -155 76 -141 c 0
 62 -128 55 -110 55 -89 c 0
 56 -66 64 -49 79 -36 c 0
 94 -23 114 -16 138 -15 c 0
 155 -15 173 -19 194 -26 c 1
 195 -23 196 -17 198 -10 c 0
 200 -3 202 6 204 19 c 1
 253 8 l 1
 252 -1 250 -12 248 -23 c 0
 245 -34 243 -42 241 -47 c 1
82 31 m 0
 91 31 98 34 103 40 c 0
 108 46 111 53 111 60 c 0
 111 68 109 75 104 81 c 0
 99 86 91 89 82 89 c 0
 73 89 66 86 61 81 c 0
 56 75 53 68 53 60 c 0
 53 53 56 46 61 40 c 0
 66 34 73 31 82 31 c 0
148 -110 m 0
 159 -105 166 -99 171 -91 c 0
 176 -84 179 -78 180 -73 c 1
 167 -67 153 -64 139 -64 c 0
 127 -64 118 -67 112 -72 c 0
 105 -77 102 -84 102 -92 c 0
 102 -94 103 -97 104 -101 c 0
 107 -110 115 -114 130 -114 c 0
 138 -114 144 -113 148 -110 c 0
EndSplineSet
EndChar
StartChar: uni0E0F
Encoding: 175 3599 144
Width: 402
Flags: HW
VStem: 296 58<-86 231 231 236>
Fore
261 -51 m 1
 296 -86 l 1
 296 231 l 2
 296 255 288 273 272 286 c 0
 257 298 237 304 213 304 c 0
 200 304 185 302 170 297 c 0
 155 293 142 287 129 278 c 1
 135 277 145 275 158 271 c 0
 171 268 183 261 196 252 c 1
 196 224 l 1
 186 224 176 221 165 214 c 0
 154 207 148 192 148 169 c 2
 148 61 l 2
 148 41 142 25 131 13 c 0
 120 0 104 -6 82 -7 c 1
 61 -6 44 0 33 13 c 0
 21 26 15 41 15 59 c 0
 15 78 21 94 33 107 c 0
 44 120 61 127 82 127 c 0
 84 127 86 127 87 127 c 0
 88 126 88 126 89 126 c 1
 89 165 l 2
 89 184 92 199 97 210 c 0
 102 221 110 231 121 239 c 1
 116 241 108 244 97 247 c 0
 86 250 73 253 58 254 c 1
 58 273 l 1
 61 276 65 281 71 288 c 0
 77 295 87 303 100 313 c 0
 113 322 130 331 149 338 c 0
 169 345 192 348 218 348 c 0
 244 348 267 344 288 335 c 0
 309 327 325 314 336 297 c 0
 348 280 354 259 354 236 c 2
 354 -163 l 1
 299 -163 l 1
 258 -114 l 1
 212 -163 l 1
 207 -153 202 -144 195 -135 c 0
 188 -126 183 -121 180 -118 c 1
 177 -125 171 -135 160 -146 c 0
 149 -158 133 -164 111 -164 c 0
 94 -164 79 -158 68 -145 c 0
 56 -132 50 -114 50 -92 c 1
 52 -74 59 -60 72 -50 c 0
 85 -40 100 -35 117 -35 c 0
 134 -35 150 -40 164 -49 c 1
 166 -44 169 -35 172 -22 c 0
 175 -10 178 3 179 17 c 1
 222 10 l 1
 215 -33 207 -62 200 -77 c 1
 202 -78 205 -81 208 -84 c 0
 211 -87 214 -91 217 -95 c 1
 224 -88 234 -79 245 -68 c 0
 256 -57 261 -52 261 -51 c 1
82 31 m 0
 91 32 98 35 102 41 c 0
 106 46 108 52 108 60 c 0
 108 68 106 75 101 81 c 0
 96 86 88 89 77 89 c 0
 68 88 62 85 57 80 c 0
 52 74 50 68 50 61 c 0
 50 52 53 45 59 40 c 1
 64 34 72 31 82 31 c 0
126 -118 m 0
 132 -115 137 -109 141 -102 c 0
 144 -95 146 -92 146 -91 c 1
 146 -91 l 1
 135 -82 125 -77 115 -77 c 0
 104 -77 96 -82 92 -93 c 1
 92 -112 99 -121 113 -121 c 0
 118 -121 122 -120 126 -118 c 0
EndSplineSet
EndChar
StartChar: uni0E10
Encoding: 176 3600 145
Width: 304
Flags: HW
VStem: 193 58<118 165 165 167>
Fore
189 0 m 1
 186 17 179 38 168 65 c 0
 158 91 152 104 151 104 c 0
 148 101 143 96 135 90 c 0
 127 85 115 82 100 82 c 0
 79 82 62 89 51 102 c 0
 39 115 33 130 33 149 c 0
 33 167 39 183 51 196 c 0
 63 209 79 216 100 217 c 0
 119 217 135 213 146 206 c 0
 157 198 165 185 172 167 c 0
 175 159 180 149 185 137 c 0
 190 125 193 119 193 118 c 2
 193 165 l 2
 193 183 192 196 189 204 c 0
 186 212 182 218 176 221 c 0
 170 224 159 227 142 232 c 0
 119 238 96 244 72 248 c 0
 48 252 30 255 19 256 c 1
 19 278 l 1
 28 291 38 303 50 314 c 0
 62 325 75 334 89 339 c 0
 102 345 118 348 135 348 c 0
 154 348 175 344 199 337 c 0
 223 329 239 325 248 325 c 0
 259 325 272 328 286 334 c 0
 287 334 288 328 291 317 c 0
 293 306 295 296 296 288 c 1
 277 282 261 279 248 279 c 0
 239 279 231 280 224 281 c 0
 217 283 206 287 192 292 c 0
 177 297 166 300 159 302 c 0
 151 304 143 305 135 305 c 0
 126 305 118 303 109 299 c 0
 100 295 95 291 94 288 c 1
 102 287 115 285 133 282 c 0
 151 279 165 275 174 273 c 0
 209 263 231 252 239 237 c 0
 247 222 251 198 251 167 c 2
 251 0 l 1
 189 0 l 1
190 -150 m 1
 206 -139 l 1
 206 -127 l 1
 205 -128 202 -128 199 -128 c 0
 181 -128 167 -122 157 -111 c 0
 147 -100 142 -86 142 -71 c 0
 142 -56 147 -42 158 -31 c 0
 168 -20 182 -14 199 -14 c 0
 216 -14 229 -19 240 -30 c 0
 251 -40 256 -53 256 -68 c 2
 256 -128 l 2
 256 -138 253 -146 247 -152 c 0
 241 -159 234 -165 225 -170 c 0
 216 -175 205 -182 192 -189 c 1
 153 -167 l 1
 119 -188 l 1
 92 -161 l 1
 83 -181 65 -192 38 -191 c 0
 23 -191 11 -184 1 -174 c 0
 -8 -163 -13 -150 -13 -134 c 0
 -13 -120 -7 -108 5 -99 c 0
 16 -90 29 -85 44 -85 c 0
 58 -85 71 -90 82 -99 c 1
 83 -94 85 -86 87 -73 c 0
 89 -60 90 -45 90 -28 c 1
 128 -28 l 1
 128 -47 127 -65 124 -82 c 0
 121 -99 116 -115 110 -128 c 1
 126 -144 l 2
 127 -144 131 -141 140 -136 c 0
 149 -131 153 -128 153 -127 c 1
 190 -150 l 1
43 -119 m 0
 36 -119 31 -121 28 -125 c 0
 25 -129 23 -134 23 -139 c 0
 23 -150 30 -156 43 -156 c 0
 50 -156 56 -153 61 -147 c 0
 65 -142 68 -137 69 -133 c 1
 67 -130 64 -127 60 -124 c 0
 55 -121 50 -119 43 -119 c 0
200 -94 m 0
 207 -94 212 -92 216 -87 c 0
 220 -83 222 -78 222 -72 c 0
 222 -66 220 -61 216 -56 c 0
 212 -51 207 -49 200 -49 c 0
 193 -49 187 -51 184 -56 c 0
 180 -61 178 -66 178 -72 c 0
 178 -78 180 -83 184 -87 c 0
 187 -92 193 -94 200 -94 c 0
101 123 m 0
 110 123 116 126 121 131 c 0
 125 136 127 142 127 149 c 0
 127 156 125 162 121 167 c 0
 116 172 110 175 101 175 c 0
 92 175 86 172 82 167 c 0
 77 162 75 156 75 149 c 0
 75 142 77 136 82 131 c 0
 87 126 93 123 101 123 c 0
EndSplineSet
EndChar
StartChar: uni0E11
Encoding: 177 3601 146
Width: 469
Flags: HW
HStem: 0 20
VStem: 163 58<140 207> 363 58<0 257 257 261>
Fore
221 207 m 2
 221 140 l 1
 280 284 l 2
 289 305 297 320 305 329 c 0
 313 338 328 342 350 342 c 0
 381 342 401 335 409 321 c 0
 417 307 421 287 421 261 c 2
 421 0 l 1
 363 0 l 1
 363 257 l 2
 363 273 362 283 361 288 c 0
 360 293 356 295 351 296 c 0
 346 296 342 294 339 291 c 0
 337 288 336 285 335 282 c 2
 218 0 l 1
 163 0 l 1
 163 210 l 2
 163 239 173 258 194 269 c 1
 201 274 205 278 205 283 c 0
 205 290 198 297 183 305 c 1
 137 283 l 1
 90 305 l 1
 79 303 71 298 65 291 c 0
 60 284 56 278 55 273 c 1
 56 274 59 276 63 277 c 0
 68 279 75 280 84 280 c 0
 97 280 109 277 119 271 c 0
 129 266 137 258 142 249 c 0
 147 239 149 228 150 217 c 0
 150 198 144 181 132 168 c 0
 120 155 104 148 84 148 c 0
 59 148 39 156 26 172 c 0
 13 188 6 209 6 235 c 0
 6 248 7 257 8 263 c 0
 11 280 18 296 29 310 c 0
 40 323 52 333 66 340 c 0
 79 347 90 350 99 350 c 1
 137 329 l 1
 180 350 l 1
 197 347 214 339 229 326 c 0
 244 313 252 298 252 281 c 0
 252 273 251 267 249 262 c 0
 246 258 242 253 237 247 c 0
 232 241 228 235 225 230 c 0
 222 225 221 217 221 207 c 2
83 188 m 0
 92 188 98 191 103 196 c 0
 107 201 109 207 109 214 c 0
 109 221 107 228 103 233 c 0
 98 238 92 240 83 240 c 0
 75 240 69 237 64 232 c 0
 59 227 57 221 57 214 c 0
 57 207 59 201 64 196 c 0
 69 191 75 188 83 188 c 0
EndSplineSet
EndChar
StartChar: uni0E12
Encoding: 178 3602 147
Width: 495
Flags: HW
HStem: -6 20
VStem: 259 58<127 231> 388 58<80 340>
Fore
115 71 m 1
 122 80 128 90 135 101 c 0
 141 110 148 120 155 130 c 1
 140 131 128 138 117 151 c 0
 106 164 101 180 101 197 c 0
 101 216 107 231 120 244 c 0
 133 257 149 263 169 263 c 0
 190 263 206 257 217 245 c 0
 228 232 236 216 236 196 c 0
 237 174 230 154 218 137 c 2
 126 0 l 1
 75 0 l 1
 75 35 72 62 67 79 c 0
 66 80 61 91 52 110 c 0
 42 129 34 148 28 166 c 0
 23 183 20 202 20 223 c 0
 21 251 33 277 55 300 c 0
 76 323 99 339 124 346 c 1
 178 323 l 1
 233 347 l 1
 267 330 289 314 300 298 c 0
 311 283 317 260 317 231 c 2
 317 124 l 1
 334 120 348 113 361 103 c 0
 374 93 383 85 388 80 c 1
 388 340 l 1
 446 340 l 1
 446 0 l 1
 387 0 l 1
 383 11 375 26 363 44 c 0
 351 62 336 74 317 79 c 1
 317 40 l 2
 317 27 312 16 303 7 c 0
 294 -2 282 -6 265 -6 c 0
 248 -6 235 0 226 12 c 0
 217 24 211 40 212 59 c 0
 212 76 217 91 224 103 c 0
 231 114 242 122 259 127 c 1
 259 239 l 2
 259 258 256 272 251 280 c 0
 246 288 239 295 230 300 c 1
 178 280 l 1
 124 300 l 1
 88 281 70 254 70 221 c 0
 70 197 79 166 98 128 c 0
 105 114 109 102 112 91 c 0
 114 81 115 74 115 71 c 1
267 34 m 1
 267 89 l 1
 252 87 245 76 245 55 c 0
 245 48 247 42 250 37 c 0
 254 32 258 29 261 29 c 0
 264 29 266 31 267 34 c 1
169 169 m 0
 178 169 184 172 188 177 c 0
 193 182 195 188 195 196 c 0
 195 203 193 210 188 215 c 0
 184 220 178 222 169 222 c 0
 161 222 155 219 150 214 c 0
 145 209 143 203 143 196 c 0
 143 189 145 182 150 177 c 0
 155 172 161 169 169 169 c 0
EndSplineSet
EndChar
StartChar: uni0E13
Encoding: 179 3603 148
Width: 494
Flags: HW
HStem: -7 20
VStem: 56 59<121 165 165 169> 242 58<106 247> 372 58<48 49 49 112 155 340>
Fore
242 0 m 1
 242 256 l 2
 242 272 236 284 223 293 c 0
 210 302 192 306 171 307 c 0
 162 307 149 305 132 300 c 0
 115 295 102 288 95 279 c 1
 101 278 111 276 125 271 c 0
 138 267 151 261 163 252 c 1
 163 224 l 1
 152 224 142 221 131 214 c 0
 120 207 115 192 115 169 c 2
 115 121 l 1
 116 122 116 122 117 122 c 0
 120 122 l 0
 133 122 145 119 155 113 c 0
 164 107 172 99 177 89 c 0
 182 79 184 69 184 58 c 0
 184 47 182 37 177 27 c 0
 172 17 164 9 155 3 c 0
 145 -3 133 -6 120 -6 c 0
 100 -6 84 0 73 13 c 0
 62 25 56 40 56 59 c 2
 56 165 l 2
 56 184 58 199 63 210 c 0
 68 221 76 231 88 239 c 1
 83 241 75 244 64 247 c 0
 53 250 41 253 26 254 c 1
 26 273 l 1
 34 286 51 301 76 320 c 0
 102 339 138 348 185 348 c 0
 207 348 226 345 241 338 c 0
 256 331 268 323 276 313 c 0
 285 302 291 291 294 280 c 0
 298 268 300 257 300 247 c 2
 300 106 l 1
 309 117 320 127 335 137 c 0
 350 147 362 153 372 155 c 1
 372 340 l 1
 430 340 l 1
 430 155 l 1
 451 151 467 141 479 125 c 0
 490 109 495 90 495 67 c 0
 495 45 488 27 475 14 c 0
 462 0 446 -7 427 -7 c 0
 412 -7 399 -3 388 6 c 0
 377 15 372 29 372 48 c 2
 372 112 l 1
 353 104 336 89 323 68 c 0
 310 47 301 25 298 0 c 1
 242 0 l 1
121 31 m 0
 126 31 131 32 136 35 c 0
 140 38 143 41 145 45 c 0
 147 49 148 53 148 58 c 0
 148 66 146 73 141 78 c 0
 136 83 130 85 121 85 c 0
 112 85 106 82 101 77 c 0
 96 72 93 65 93 58 c 0
 93 51 96 45 101 40 c 0
 106 34 112 31 121 31 c 0
455 72 m 0
 455 82 452 91 447 98 c 0
 442 105 436 110 430 112 c 1
 430 49 l 2
 430 40 432 36 437 36 c 0
 442 37 447 41 450 48 c 0
 453 55 455 63 455 72 c 0
EndSplineSet
EndChar
StartChar: uni0E14
Encoding: 180 3604 149
Width: 365
Flags: HW
HStem: 0 20 298 50<159.5 171>
VStem: 21 50<213 223> 259 58<0 231>
Fore
171 348 m 0
 220 347 257 336 281 313 c 0
 305 290 317 263 317 231 c 2
 317 0 l 1
 259 0 l 1
 259 236 l 2
 259 257 251 272 234 283 c 0
 217 293 197 298 173 298 c 0
 146 298 122 290 102 276 c 0
 81 261 71 242 71 216 c 0
 71 196 80 167 98 128 c 0
 105 114 109 102 112 91 c 0
 114 81 115 74 115 71 c 1
 122 80 128 90 135 100 c 0
 142 109 148 119 155 129 c 1
 140 130 128 137 117 150 c 0
 106 163 101 179 101 196 c 0
 101 215 107 230 120 243 c 0
 133 256 149 262 169 262 c 0
 190 262 206 256 217 244 c 0
 228 231 236 215 236 195 c 0
 237 172 230 153 218 136 c 2
 126 0 l 1
 75 0 l 1
 75 35 72 62 67 79 c 0
 66 82 61 92 52 110 c 0
 43 129 36 147 30 166 c 0
 25 184 21 203 21 223 c 0
 22 244 29 263 42 282 c 0
 54 301 71 317 94 330 c 0
 116 342 142 348 171 348 c 0
169 169 m 0
 178 169 184 172 188 177 c 0
 193 182 195 188 195 195 c 0
 195 202 193 209 188 214 c 0
 184 219 178 221 169 221 c 0
 161 221 155 218 150 213 c 0
 145 208 143 202 143 195 c 0
 143 188 145 182 150 177 c 0
 155 172 161 169 169 169 c 0
EndSplineSet
EndChar
StartChar: uni0E15
Encoding: 181 3605 150
Width: 365
Flags: HW
HStem: 0 20
VStem: 259 58<0 231>
Fore
317 0 m 1
 259 0 l 1
 259 239 l 2
 259 258 256 272 251 280 c 0
 246 288 239 295 230 300 c 1
 178 280 l 1
 124 300 l 1
 88 281 70 254 70 221 c 0
 70 197 79 166 98 128 c 0
 105 114 109 102 112 91 c 0
 114 81 115 74 115 71 c 1
 122 80 128 90 135 101 c 0
 141 110 148 120 155 130 c 1
 140 131 128 138 117 151 c 0
 106 164 101 180 101 197 c 0
 101 216 107 231 120 244 c 0
 133 257 149 263 169 263 c 0
 190 263 206 257 217 245 c 0
 228 232 236 216 236 196 c 0
 237 174 230 154 218 137 c 2
 126 0 l 1
 75 0 l 1
 75 35 72 62 67 79 c 0
 66 80 61 91 52 110 c 0
 42 129 34 148 28 166 c 0
 23 183 20 202 20 223 c 0
 21 251 33 277 55 300 c 0
 76 323 99 339 124 346 c 1
 178 323 l 1
 233 347 l 1
 267 330 289 314 300 298 c 0
 311 283 317 260 317 231 c 2
 317 0 l 1
169 169 m 0
 178 169 184 172 188 177 c 0
 193 182 195 188 195 196 c 0
 195 203 193 210 188 215 c 0
 184 220 178 222 169 222 c 0
 161 222 155 219 150 214 c 0
 145 209 143 203 143 196 c 0
 143 189 145 182 150 177 c 0
 155 172 161 169 169 169 c 0
EndSplineSet
EndChar
StartChar: uni0E16
Encoding: 182 3606 151
Width: 369
Flags: HW
HStem: -6 20 304 44<172 192>
VStem: 56 59<128 165 165 169> 263 58<0 231 231 236>
Fore
115 128 m 1
 123 128 l 2
 144 128 161 121 173 108 c 0
 185 94 191 78 191 61 c 0
 191 43 185 27 173 14 c 0
 161 1 144 -6 123 -6 c 0
 103 -6 87 1 75 14 c 0
 62 27 56 42 56 61 c 2
 56 165 l 2
 56 184 58 199 63 210 c 0
 68 221 76 231 88 239 c 1
 83 241 75 244 64 247 c 0
 53 250 40 253 26 254 c 1
 26 273 l 1
 28 276 32 281 38 288 c 0
 44 295 54 303 67 313 c 0
 80 322 97 331 117 338 c 0
 136 345 159 348 185 348 c 0
 212 348 235 344 255 336 c 0
 275 327 291 315 303 298 c 0
 315 281 321 261 321 236 c 2
 321 0 l 1
 263 0 l 1
 263 231 l 2
 263 255 255 274 240 286 c 0
 224 299 204 304 180 304 c 0
 151 304 123 295 96 278 c 1
 99 277 103 276 109 275 c 0
 116 274 124 271 134 268 c 0
 144 264 154 259 163 252 c 1
 163 224 l 1
 152 224 142 221 131 214 c 0
 120 207 115 192 115 169 c 2
 115 128 l 1
128 32 m 0
 136 33 142 36 147 41 c 0
 152 46 155 53 155 60 c 0
 155 69 152 76 147 82 c 0
 142 87 134 90 123 90 c 0
 114 89 108 86 104 81 c 0
 99 76 97 69 97 61 c 0
 97 54 100 47 105 41 c 0
 110 35 118 32 128 32 c 0
EndSplineSet
EndChar
StartChar: uni0E17
Encoding: 183 3607 152
Width: 400
Flags: HW
HStem: 0 20
VStem: 96 58<140 213 213 213> 296 58<0 257 257 261>
Fore
96 0 m 1
 96 213 l 1
 92 212 85 212 74 212 c 0
 57 214 43 222 33 235 c 0
 23 248 18 263 18 280 c 0
 18 298 24 314 36 327 c 0
 47 340 64 346 85 346 c 0
 107 346 124 339 136 326 c 0
 148 313 154 296 154 277 c 2
 154 140 l 1
 213 284 l 2
 222 306 230 321 238 330 c 0
 246 338 261 342 283 342 c 0
 315 342 335 335 342 321 c 0
 350 307 354 287 354 261 c 2
 354 0 l 1
 296 0 l 1
 296 257 l 2
 296 272 295 283 294 288 c 0
 293 293 289 295 284 296 c 0
 279 296 275 294 273 291 c 0
 270 288 269 285 268 282 c 2
 151 0 l 1
 96 0 l 1
85 252 m 0
 94 252 100 255 104 260 c 0
 109 265 111 271 111 279 c 0
 111 286 109 293 104 298 c 0
 100 303 94 305 85 305 c 0
 77 305 71 302 66 297 c 0
 61 292 59 286 59 279 c 0
 59 272 61 265 66 260 c 0
 71 255 77 252 85 252 c 0
EndSplineSet
EndChar
StartChar: uni0E18
Encoding: 184 3608 153
Width: 317
Flags: HW
HStem: 0 52<32 74 132 184 184 190.5>
VStem: 74 58<52 211> 211 58<81 166>
Fore
78 274 m 1
 81 274 84 274 87 275 c 0
 91 275 99 275 112 275 c 0
 171 275 215 264 243 242 c 0
 260 228 269 203 269 166 c 2
 269 65 l 2
 269 38 264 20 255 12 c 0
 246 4 226 0 196 0 c 2
 32 0 l 1
 32 52 l 1
 74 52 l 1
 74 211 l 1
 132 211 l 1
 132 52 l 1
 184 52 l 2
 197 52 204 54 207 57 c 0
 210 61 211 69 211 81 c 2
 211 167 l 2
 211 178 210 188 208 195 c 0
 206 202 200 209 191 216 c 0
 184 222 167 226 141 229 c 0
 114 232 86 234 56 234 c 0
 37 234 24 234 15 233 c 1
 15 268 l 1
 27 289 43 307 64 323 c 0
 85 339 111 347 140 347 c 0
 161 347 183 343 207 336 c 0
 231 328 247 324 254 324 c 0
 265 324 278 327 291 334 c 1
 304 291 l 1
 288 284 272 280 257 280 c 0
 244 280 225 284 199 292 c 0
 172 300 151 304 134 304 c 0
 118 304 105 300 96 293 c 0
 87 286 81 279 78 274 c 1
EndSplineSet
EndChar
StartChar: uni0E19
Encoding: 185 3609 154
Width: 395
Flags: HW
HStem: -7 20
VStem: 92 58<87 215 215 215> 262 58<49 112 155 340>
Fore
262 340 m 1
 320 340 l 1
 320 155 l 1
 341 151 357 141 368 125 c 0
 379 109 386 90 385 67 c 0
 385 45 378 27 365 14 c 0
 352 0 336 -7 317 -7 c 0
 302 -7 290 -3 279 6 c 0
 268 15 262 29 262 48 c 2
 262 112 l 1
 236 104 212 88 190 65 c 0
 167 42 153 20 148 0 c 1
 92 0 l 1
 92 215 l 1
 91 215 90 215 88 215 c 0
 87 214 85 214 83 214 c 0
 62 214 46 221 34 235 c 0
 22 248 16 264 16 281 c 0
 16 299 22 315 34 328 c 0
 46 341 62 348 83 348 c 0
 102 348 117 343 130 332 c 0
 143 320 150 305 150 288 c 2
 150 87 l 1
 163 104 179 118 200 130 c 0
 220 141 241 150 262 155 c 1
 262 340 l 1
84 254 m 0
 93 254 99 257 104 262 c 0
 108 267 110 273 110 281 c 0
 110 288 108 295 104 300 c 0
 99 305 93 307 84 307 c 0
 76 307 70 304 65 299 c 0
 60 294 58 288 58 281 c 0
 58 274 60 267 65 262 c 0
 70 257 76 254 84 254 c 0
345 72 m 0
 345 83 343 92 338 99 c 0
 333 106 327 110 320 112 c 1
 320 49 l 1
 321 40 323 36 328 36 c 0
 331 37 334 39 337 42 c 0
 339 46 341 51 343 57 c 0
 344 62 345 67 345 72 c 0
EndSplineSet
EndChar
StartChar: uni0E1A
Encoding: 186 3610 155
Width: 379
Flags: HW
HStem: 0 52<42 86 144 241>
VStem: 86 58<52 213 213 213> 272 59<81 340>
Fore
86 52 m 1
 86 213 l 1
 82 212 75 212 64 212 c 0
 47 214 33 222 23 235 c 0
 13 248 8 263 8 280 c 0
 8 291 10 302 15 313 c 0
 20 323 27 331 38 337 c 0
 48 343 60 346 75 346 c 0
 97 346 114 339 126 326 c 0
 138 313 144 296 144 277 c 2
 144 52 l 1
 241 52 l 2
 254 52 263 54 267 58 c 0
 270 61 272 69 272 81 c 2
 272 340 l 1
 331 340 l 1
 331 66 l 2
 331 40 324 23 310 14 c 0
 295 5 272 0 241 0 c 2
 42 0 l 1
 42 52 l 1
 86 52 l 1
75 252 m 0
 83 252 89 255 94 260 c 0
 99 265 101 271 101 279 c 0
 101 286 99 293 94 298 c 0
 89 303 83 305 75 305 c 0
 67 305 61 302 56 297 c 0
 51 292 49 286 49 279 c 0
 49 272 51 265 56 260 c 0
 61 255 67 252 75 252 c 0
EndSplineSet
EndChar
StartChar: uni0E1B
Encoding: 187 3611 156
Width: 379
Flags: HW
HStem: 0 52<42 86 144 241>
VStem: 86 58<52 213 213 213> 272 59<81 473>
Fore
86 52 m 1
 86 213 l 1
 82 212 75 212 64 212 c 0
 47 214 33 222 23 235 c 0
 13 248 8 263 8 280 c 0
 8 291 10 302 15 313 c 0
 20 323 27 331 38 337 c 0
 48 343 60 346 75 346 c 0
 97 346 114 339 126 326 c 0
 138 313 144 296 144 277 c 2
 144 52 l 1
 241 52 l 2
 254 52 263 54 267 58 c 0
 270 61 272 69 272 81 c 2
 272 473 l 1
 331 473 l 1
 331 66 l 2
 331 40 324 23 310 14 c 0
 295 5 272 0 241 0 c 2
 42 0 l 1
 42 52 l 1
 86 52 l 1
75 252 m 0
 83 252 89 255 94 260 c 0
 99 265 101 271 101 279 c 0
 101 286 99 293 94 298 c 0
 89 303 83 305 75 305 c 0
 67 305 61 302 56 297 c 0
 51 292 49 286 49 279 c 0
 49 272 51 265 56 260 c 0
 61 255 67 252 75 252 c 0
EndSplineSet
EndChar
StartChar: uni0E1C
Encoding: 188 3612 157
Width: 374
Flags: HW
HStem: 0 20
VStem: 48 58<115 213> 268 58<115 340>
Fore
103 0 m 1
 48 0 l 1
 48 277 l 2
 48 296 54 313 66 326 c 0
 78 339 95 346 117 346 c 0
 132 346 145 343 155 337 c 0
 164 331 172 323 177 313 c 0
 182 302 184 291 184 280 c 0
 184 263 179 248 169 235 c 0
 159 222 145 214 128 212 c 0
 117 212 110 212 106 213 c 1
 106 115 l 1
 187 198 l 1
 268 115 l 1
 268 340 l 1
 326 340 l 1
 326 0 l 1
 269 0 l 1
 269 27 262 48 249 63 c 2
 186 134 l 1
 122 63 l 2
 109 49 103 28 103 0 c 1
117 305 m 0
 109 305 103 302 98 297 c 0
 93 292 91 286 91 279 c 0
 91 272 93 265 98 260 c 0
 103 255 109 252 117 252 c 0
 125 252 131 255 136 260 c 0
 141 265 143 271 143 279 c 0
 143 286 141 293 136 298 c 0
 131 303 125 305 117 305 c 0
EndSplineSet
EndChar
StartChar: uni0E1D
Encoding: 189 3613 158
Width: 374
Flags: HW
HStem: 0 20
VStem: 48 58<115 213> 268 58<115 473>
Fore
103 0 m 1
 48 0 l 1
 48 277 l 2
 48 296 54 313 66 326 c 0
 78 339 95 346 117 346 c 0
 132 346 145 343 155 337 c 0
 164 331 172 323 177 313 c 0
 182 302 184 291 184 280 c 0
 184 263 179 248 169 235 c 0
 159 222 145 214 128 212 c 0
 117 212 110 212 106 213 c 1
 106 115 l 1
 187 198 l 1
 268 115 l 1
 268 473 l 1
 326 473 l 1
 326 0 l 1
 269 0 l 1
 269 27 262 48 249 63 c 2
 186 134 l 1
 122 63 l 2
 109 49 103 28 103 0 c 1
117 305 m 0
 109 305 103 302 98 297 c 0
 93 292 91 286 91 279 c 0
 91 272 93 265 98 260 c 0
 103 255 109 252 117 252 c 0
 125 252 131 255 136 260 c 0
 141 265 143 271 143 279 c 0
 143 286 141 293 136 298 c 0
 131 303 125 305 117 305 c 0
EndSplineSet
EndChar
StartChar: uni0E1E
Encoding: 190 3614 159
Width: 425
Flags: HW
HStem: 0 20
VStem: 83 59<156 213 213 213> 319 58<0 2.5 156 340>
Fore
142 156 m 1
 230 332 l 1
 319 156 l 1
 319 340 l 1
 377 340 l 1
 377 0 l 1
 319 0 l 1
 319 5 318 12 317 22 c 0
 316 31 314 39 311 46 c 2
 230 217 l 1
 148 46 l 2
 145 39 143 31 142 22 c 0
 141 12 141 5 140 0 c 1
 83 0 l 1
 83 213 l 1
 80 212 73 212 62 212 c 0
 45 214 31 222 21 235 c 0
 11 248 6 263 6 280 c 0
 6 291 8 302 13 313 c 0
 18 323 26 331 36 337 c 0
 46 343 58 346 73 346 c 0
 95 346 112 339 124 326 c 0
 136 313 142 296 142 277 c 2
 142 156 l 1
73 252 m 0
 81 252 87 255 92 260 c 0
 97 265 99 271 99 279 c 0
 99 286 97 293 92 298 c 0
 87 303 81 305 73 305 c 0
 65 305 59 302 54 297 c 0
 49 292 47 286 47 279 c 0
 47 272 49 265 54 260 c 0
 59 255 65 252 73 252 c 0
EndSplineSet
EndChar
StartChar: uni0E1F
Encoding: 191 3615 160
Width: 425
Flags: HW
HStem: 0 20
VStem: 83 59<156 213 213 213> 319 58<0 2.5 156 473>
Fore
142 156 m 1
 230 332 l 1
 319 156 l 1
 319 473 l 1
 377 473 l 1
 377 0 l 1
 319 0 l 1
 319 5 318 12 317 22 c 0
 316 31 314 39 311 46 c 2
 230 217 l 1
 148 46 l 2
 145 39 143 31 142 22 c 0
 141 12 141 5 140 0 c 1
 83 0 l 1
 83 213 l 1
 80 212 73 212 62 212 c 0
 45 214 31 222 21 235 c 0
 11 248 6 263 6 280 c 0
 6 291 8 302 13 313 c 0
 18 323 26 331 36 337 c 0
 46 343 58 346 73 346 c 0
 95 346 112 339 124 326 c 0
 136 313 142 296 142 277 c 2
 142 156 l 1
73 252 m 0
 81 252 87 255 92 260 c 0
 97 265 99 271 99 279 c 0
 99 286 97 293 92 298 c 0
 87 303 81 305 73 305 c 0
 65 305 59 302 54 297 c 0
 49 292 47 286 47 279 c 0
 47 272 49 265 54 260 c 0
 59 255 65 252 73 252 c 0
EndSplineSet
EndChar
StartChar: uni0E20
Encoding: 192 3616 161
Width: 400
Flags: HW
HStem: -7 20
VStem: 294 58<0 231 231 236>
Fore
80 127 m 0
 82 127 84 127 85 127 c 0
 86 126 86 126 87 126 c 1
 87 165 l 2
 87 184 90 199 95 210 c 0
 100 222 107 232 118 239 c 1
 113 241 105 244 94 247 c 0
 83 250 70 253 56 254 c 1
 56 273 l 1
 59 276 63 281 69 288 c 0
 75 295 85 303 98 313 c 0
 111 322 128 331 147 338 c 0
 167 345 190 348 216 348 c 0
 242 348 265 344 286 335 c 0
 307 327 323 314 334 297 c 0
 346 280 352 259 352 236 c 2
 352 0 l 1
 294 0 l 1
 294 231 l 2
 294 255 286 274 271 286 c 0
 255 299 235 304 211 304 c 0
 198 304 183 302 168 297 c 0
 153 293 140 287 127 278 c 1
 133 277 143 275 156 271 c 0
 169 268 181 261 194 252 c 1
 194 224 l 1
 184 224 174 221 163 214 c 0
 152 207 146 192 146 169 c 2
 146 61 l 2
 146 41 140 25 129 13 c 0
 118 0 102 -6 80 -7 c 1
 59 -6 42 0 31 13 c 0
 19 26 13 41 13 59 c 0
 13 78 19 94 31 107 c 0
 42 120 59 127 80 127 c 0
80 31 m 0
 89 31 97 34 102 40 c 0
 107 45 109 52 109 60 c 0
 109 79 99 89 80 89 c 0
 71 89 64 86 59 81 c 0
 54 75 51 68 51 60 c 0
 51 53 54 46 59 40 c 0
 64 34 71 31 80 31 c 0
EndSplineSet
EndChar
StartChar: uni0E21
Encoding: 193 3617 162
Width: 385
Flags: HW
HStem: -7 20
VStem: 100 58<49 52 52 109 157 213 213 213> 279 58<92 340>
Fore
279 340 m 1
 337 340 l 1
 337 0 l 1
 281 0 l 1
 278 12 271 26 260 42 c 0
 249 58 234 72 216 85 c 0
 198 98 179 106 158 109 c 1
 158 52 l 2
 158 33 153 18 142 9 c 0
 131 -1 118 -7 104 -7 c 0
 81 -8 62 0 48 14 c 0
 35 27 27 45 27 67 c 0
 26 92 34 113 47 130 c 0
 61 147 79 156 100 157 c 1
 100 213 l 1
 97 213 l 0
 96 212 94 212 92 212 c 0
 71 212 55 219 43 232 c 0
 31 245 25 261 25 279 c 0
 25 298 31 314 42 327 c 0
 54 340 71 346 92 346 c 0
 110 346 126 340 139 329 c 0
 152 318 158 303 158 286 c 2
 158 156 l 1
 193 151 221 142 241 127 c 0
 260 113 273 101 279 92 c 1
 279 340 l 1
92 252 m 0
 100 252 106 255 111 260 c 0
 116 265 118 271 118 279 c 0
 118 286 116 293 111 298 c 0
 106 303 100 305 92 305 c 0
 84 305 78 302 73 297 c 0
 68 292 66 286 66 279 c 0
 66 272 68 265 73 260 c 0
 78 255 84 252 92 252 c 0
100 112 m 1
 91 111 84 107 79 100 c 0
 74 93 71 83 71 72 c 0
 71 50 78 38 92 37 c 0
 97 37 100 41 100 49 c 2
 100 112 l 1
EndSplineSet
EndChar
StartChar: uni0E22
Encoding: 194 3618 163
Width: 357
Flags: HW
HStem: 0 52<106 219 219 225.5>
VStem: 250 59<81 340>
Fore
96 163 m 1
 80 168 67 179 57 195 c 0
 46 211 41 229 41 248 c 0
 41 262 43 275 48 286 c 0
 55 306 66 321 81 332 c 0
 96 342 114 347 133 347 c 0
 152 347 168 341 179 329 c 0
 191 316 197 301 197 283 c 0
 197 265 191 250 180 237 c 0
 169 224 153 218 133 218 c 0
 123 218 113 221 104 225 c 1
 95 227 91 230 91 231 c 1
 91 231 91 231 92 231 c 1
 92 217 101 206 119 197 c 0
 137 188 155 184 173 183 c 1
 173 140 l 1
 148 140 131 135 121 125 c 0
 111 116 106 102 106 83 c 2
 106 52 l 1
 219 52 l 2
 232 52 241 54 245 58 c 0
 248 61 250 69 250 81 c 2
 250 340 l 1
 309 340 l 1
 309 65 l 2
 309 38 304 20 295 12 c 0
 285 4 265 0 236 0 c 2
 48 0 l 1
 48 83 l 2
 48 103 52 119 59 131 c 0
 66 143 73 151 80 156 c 0
 87 160 93 162 96 163 c 1
134 258 m 0
 142 258 148 260 152 265 c 0
 156 270 158 275 158 282 c 0
 158 289 156 294 152 299 c 0
 148 304 142 306 134 306 c 0
 126 306 120 304 116 299 c 0
 111 294 109 288 109 282 c 0
 109 276 111 271 116 266 c 0
 120 261 126 258 134 258 c 0
EndSplineSet
EndChar
StartChar: uni0E23
Encoding: 195 3619 164
Width: 311
Flags: HW
HStem: -4 20
VStem: 11 293
Fore
264 168 m 2
 264 65 l 2
 264 45 257 29 244 16 c 0
 230 3 213 -4 193 -4 c 0
 172 -4 155 3 144 16 c 0
 132 29 126 45 126 63 c 0
 126 81 132 97 144 110 c 0
 156 123 172 130 193 131 c 0
 198 131 202 131 205 130 c 1
 205 168 l 2
 205 179 204 188 202 195 c 0
 200 202 194 210 185 217 c 0
 179 222 168 226 151 230 c 0
 134 233 112 236 85 239 c 0
 59 241 34 242 11 242 c 1
 11 273 l 1
 22 294 37 312 58 327 c 0
 78 342 103 350 134 350 c 0
 155 350 178 346 203 339 c 0
 228 331 244 327 253 327 c 0
 265 327 278 330 291 337 c 1
 304 294 l 1
 287 287 271 283 254 283 c 0
 239 283 219 287 192 295 c 0
 165 303 144 307 128 307 c 0
 112 307 100 304 92 297 c 0
 84 290 79 285 76 280 c 1
 152 280 206 268 237 243 c 0
 255 228 264 203 264 168 c 2
194 37 m 0
 202 37 208 39 213 44 c 0
 218 49 220 56 220 63 c 0
 220 70 218 77 214 82 c 0
 209 87 203 89 194 89 c 0
 185 89 179 86 174 81 c 0
 169 76 167 70 167 63 c 0
 167 56 169 50 174 45 c 0
 179 40 186 37 194 37 c 0
EndSplineSet
EndChar
StartChar: uni0E24
Encoding: 196 3620 165
Width: 369
Flags: HW
HStem: 304 44<172 192>
VStem: 56 59<128 165 165 169> 263 58<-177 231 231 236>
Fore
115 128 m 1
 123 128 l 2
 144 128 161 121 173 108 c 0
 185 94 191 78 191 61 c 0
 191 43 185 27 173 14 c 0
 161 1 144 -6 123 -6 c 0
 103 -6 87 1 75 14 c 0
 62 27 56 42 56 61 c 2
 56 165 l 2
 56 184 58 199 63 210 c 0
 68 221 76 231 88 239 c 1
 83 241 75 244 64 247 c 0
 53 250 40 253 26 254 c 1
 26 273 l 1
 28 276 32 281 38 288 c 0
 44 295 54 303 67 313 c 0
 80 322 97 331 117 338 c 0
 136 345 159 348 185 348 c 0
 212 348 235 344 255 336 c 0
 275 327 291 315 303 298 c 0
 315 281 321 261 321 236 c 2
 321 -177 l 1
 263 -177 l 1
 263 231 l 2
 263 255 255 274 240 286 c 0
 224 299 204 304 180 304 c 0
 151 304 123 295 96 278 c 1
 99 277 103 276 109 275 c 0
 116 274 124 271 134 268 c 0
 144 264 154 259 163 252 c 1
 163 224 l 1
 152 224 142 221 131 214 c 0
 120 207 115 192 115 169 c 2
 115 128 l 1
123 32 m 0
 132 32 140 35 145 41 c 0
 150 46 152 53 152 61 c 0
 152 80 142 90 123 90 c 0
 114 90 107 87 103 82 c 0
 98 76 95 69 95 61 c 0
 95 54 98 47 103 41 c 0
 108 35 114 32 123 32 c 0
EndSplineSet
EndChar
StartChar: uni0E25
Encoding: 197 3621 166
Width: 354
Flags: HW
HStem: -7 20 303 44<151.5 176.5>
VStem: 248 59<151 233 233 234>
Fore
121 -7 m 0
 101 -7 85 -1 72 11 c 0
 59 23 51 37 50 54 c 0
 48 77 48 107 48 142 c 1
 51 171 59 195 74 214 c 0
 88 233 107 243 132 243 c 0
 158 244 179 237 196 224 c 0
 213 211 225 197 234 180 c 0
 242 163 247 154 248 151 c 1
 248 233 l 2
 248 256 241 273 226 285 c 0
 211 297 190 303 163 303 c 0
 140 303 121 298 104 287 c 0
 87 276 74 263 64 250 c 1
 31 279 l 1
 42 297 59 312 82 326 c 0
 104 339 131 347 163 347 c 0
 204 347 239 337 266 317 c 0
 293 297 307 269 307 234 c 2
 307 0 l 1
 248 0 l 1
 244 21 237 46 228 77 c 0
 218 108 205 137 189 162 c 0
 173 187 155 200 135 199 c 0
 110 198 97 172 97 124 c 1
 100 125 103 125 107 126 c 0
 111 127 116 127 121 127 c 0
 142 126 159 120 170 109 c 0
 181 97 188 81 188 62 c 0
 189 42 182 26 170 13 c 0
 159 0 142 -6 121 -7 c 0
121 33 m 0
 130 33 136 36 141 41 c 0
 145 46 147 52 147 60 c 0
 147 67 145 74 141 79 c 0
 136 84 130 86 121 86 c 0
 112 86 106 83 102 78 c 0
 97 73 95 67 95 60 c 0
 95 53 97 47 102 42 c 0
 107 36 113 33 121 33 c 0
EndSplineSet
EndChar
StartChar: uni0E26
Encoding: 198 3622 167
Width: 400
Flags: HW
VStem: 294 58<-177 231 231 236>
Fore
80 127 m 0
 82 127 84 127 85 127 c 0
 86 126 86 126 87 126 c 1
 87 165 l 2
 87 184 90 199 95 210 c 0
 100 222 107 232 118 239 c 1
 113 241 105 244 94 247 c 0
 83 250 70 253 56 254 c 1
 56 273 l 1
 59 276 63 281 69 288 c 0
 75 295 85 303 98 313 c 0
 111 322 128 331 147 338 c 0
 167 345 190 348 216 348 c 0
 242 348 265 344 286 335 c 0
 307 327 323 314 334 297 c 0
 346 280 352 259 352 236 c 2
 352 -177 l 1
 294 -177 l 1
 294 231 l 2
 294 255 286 274 271 286 c 0
 255 299 235 304 211 304 c 0
 198 304 183 302 168 297 c 0
 153 293 140 287 127 278 c 1
 133 277 143 275 156 271 c 0
 169 268 181 261 194 252 c 1
 194 224 l 1
 184 224 174 221 163 214 c 0
 152 207 146 192 146 169 c 2
 146 61 l 2
 146 41 140 25 129 13 c 0
 118 0 102 -6 80 -7 c 1
 59 -6 42 0 31 13 c 0
 19 26 13 41 13 59 c 0
 13 78 19 94 31 107 c 0
 42 120 59 127 80 127 c 0
80 31 m 0
 89 31 97 34 102 40 c 0
 107 45 109 52 109 60 c 0
 109 79 99 89 80 89 c 0
 71 89 64 86 59 81 c 0
 54 75 51 68 51 60 c 0
 51 53 54 46 59 40 c 0
 64 34 71 31 80 31 c 0
EndSplineSet
EndChar
StartChar: uni0E27
Encoding: 199 3623 168
Width: 320
Flags: HW
HStem: -7 20 300 48<135 146.5>
VStem: 214 58<126 231 231 232>
Fore
204 127 m 0
 208 127 211 127 214 126 c 1
 214 231 l 2
 214 256 207 273 192 283 c 0
 177 294 158 300 135 300 c 0
 96 301 64 281 37 242 c 1
 -3 273 l 1
 10 294 28 312 51 327 c 0
 74 341 102 348 136 348 c 0
 179 348 213 338 237 317 c 0
 260 296 272 268 272 232 c 2
 272 62 l 2
 272 43 266 26 253 13 c 0
 240 0 224 -7 204 -7 c 0
 183 -7 166 0 154 13 c 0
 142 26 135 43 136 63 c 0
 136 81 144 96 156 109 c 0
 168 121 184 127 204 127 c 0
204 33 m 0
 213 33 219 36 224 41 c 0
 228 46 230 52 230 60 c 0
 230 67 228 74 224 79 c 0
 219 84 213 86 204 86 c 0
 195 86 189 83 185 78 c 0
 180 73 178 67 178 60 c 0
 178 53 180 47 185 42 c 0
 190 36 196 33 204 33 c 0
EndSplineSet
EndChar
StartChar: uni0E28
Encoding: 200 3624 169
Width: 366
Flags: HW
HStem: 0 20
VStem: 79 59<0 59 59 66.5> 260 58<0 217 217 231>
Fore
279 316 m 0
 280 316 283 321 289 331 c 0
 294 341 299 352 302 365 c 1
 352 342 l 1
 349 328 343 314 334 301 c 0
 325 287 318 277 311 271 c 1
 312 268 314 264 315 258 c 0
 317 252 318 243 318 231 c 2
 318 0 l 1
 260 0 l 1
 260 217 l 1
 260 233 l 1
 250 226 240 222 229 219 c 1
 230 218 230 215 231 211 c 0
 232 207 233 202 233 196 c 0
 232 177 226 161 215 148 c 0
 204 135 187 129 166 128 c 0
 163 128 157 129 150 130 c 0
 142 132 138 133 138 134 c 2
 138 0 l 1
 79 0 l 1
 79 59 l 2
 79 74 77 88 72 100 c 0
 67 112 60 126 51 142 c 0
 42 158 35 172 30 184 c 0
 25 196 23 210 23 227 c 0
 24 254 32 277 46 295 c 0
 59 313 77 327 100 336 c 0
 122 345 145 350 170 351 c 0
 184 351 198 350 212 347 c 0
 226 344 239 339 251 333 c 0
 264 327 273 321 279 316 c 0
205 252 m 1
 212 252 219 255 227 261 c 0
 234 266 240 271 244 274 c 1
 236 284 225 292 211 297 c 0
 196 302 181 304 164 304 c 0
 141 303 120 296 102 281 c 0
 83 266 73 248 73 225 c 0
 73 212 76 200 81 187 c 0
 85 175 87 169 88 169 c 1
 88 169 88 169 88 170 c 0
 88 185 93 205 103 228 c 0
 112 251 133 263 166 264 c 0
 178 264 187 263 193 260 c 0
 199 257 203 254 205 252 c 1
166 169 m 0
 175 169 181 172 186 177 c 0
 190 182 192 188 192 196 c 0
 192 203 190 210 186 215 c 0
 181 220 175 222 166 222 c 0
 158 222 152 219 147 214 c 0
 142 209 140 203 140 196 c 0
 140 189 142 182 147 177 c 0
 152 172 158 169 166 169 c 0
EndSplineSet
EndChar
StartChar: uni0E29
Encoding: 201 3625 170
Width: 387
Flags: HW
HStem: 0 52<50 94 152 249>
VStem: 94 58<52 213 213 213> 281 58<81 116 116 116 175 340>
Fore
415 246 m 1
 415 227 412 210 406 196 c 0
 400 181 393 170 384 161 c 0
 376 152 367 145 358 140 c 0
 349 135 342 131 339 129 c 1
 339 66 l 2
 339 40 332 23 318 14 c 0
 304 5 281 0 249 0 c 2
 50 0 l 1
 50 52 l 1
 94 52 l 1
 94 213 l 1
 90 212 83 212 73 212 c 0
 56 214 42 222 32 235 c 0
 21 248 16 263 16 280 c 0
 16 298 22 314 34 327 c 0
 45 340 62 346 83 346 c 0
 106 346 123 340 134 327 c 0
 146 314 152 297 152 277 c 2
 152 52 l 1
 251 52 l 2
 264 52 273 54 276 58 c 0
 279 61 281 69 281 81 c 2
 281 116 l 1
 244 116 217 121 200 130 c 1
 187 139 178 146 173 153 c 0
 168 160 165 172 164 188 c 0
 164 201 168 213 177 224 c 0
 186 235 199 241 218 241 c 0
 233 241 246 236 255 227 c 0
 264 217 270 205 270 191 c 0
 271 175 266 162 258 153 c 1
 271 153 278 153 281 154 c 1
 281 340 l 1
 339 340 l 1
 339 175 l 1
 356 184 365 207 365 246 c 1
 415 246 l 1
218 171 m 0
 225 171 230 173 233 177 c 0
 236 181 238 186 238 191 c 0
 238 196 236 201 232 205 c 0
 229 208 224 210 218 210 c 0
 212 210 207 208 204 204 c 0
 200 200 198 196 198 191 c 0
 198 186 200 182 204 177 c 0
 207 173 211 171 218 171 c 0
83 252 m 0
 92 252 98 255 103 260 c 0
 107 265 109 271 109 279 c 0
 109 286 107 293 103 298 c 0
 98 303 92 305 83 305 c 0
 75 305 69 302 64 297 c 0
 59 292 57 286 57 279 c 0
 57 272 59 265 64 260 c 0
 69 255 75 252 83 252 c 0
EndSplineSet
EndChar
StartChar: uni0E2A
Encoding: 202 3626 171
Width: 354
Flags: HW
HStem: -7 20 303 44<151.5 176.5>
VStem: 31 296
Fore
121 33 m 0
 130 33 136 36 141 41 c 0
 145 46 147 52 147 60 c 0
 147 67 145 74 141 79 c 0
 136 84 130 86 121 86 c 0
 112 86 106 83 102 78 c 0
 97 73 95 67 95 60 c 0
 95 53 97 47 102 42 c 0
 107 36 113 33 121 33 c 0
224 281 m 1
 210 296 190 303 163 303 c 0
 140 303 121 298 104 287 c 0
 87 276 74 263 64 250 c 1
 31 279 l 1
 42 297 59 312 82 326 c 0
 104 339 131 347 163 347 c 0
 194 347 222 341 247 328 c 0
 249 328 255 338 265 357 c 0
 274 376 280 386 282 386 c 0
 285 385 292 381 304 374 c 0
 316 367 324 362 327 358 c 1
 324 353 316 342 305 326 c 0
 294 309 288 300 288 297 c 1
 295 290 300 281 303 271 c 0
 306 262 307 249 307 234 c 2
 307 0 l 1
 248 0 l 1
 244 21 237 46 228 77 c 0
 218 108 205 137 189 162 c 0
 173 187 155 200 135 199 c 0
 110 198 97 172 97 124 c 1
 100 125 103 125 107 126 c 0
 111 127 116 127 121 127 c 0
 142 126 159 120 170 109 c 0
 181 97 188 81 188 62 c 0
 189 42 182 26 170 13 c 0
 159 0 142 -6 121 -7 c 0
 101 -7 85 -1 72 11 c 0
 59 23 51 37 50 54 c 0
 48 77 48 107 48 142 c 1
 51 171 59 195 74 214 c 0
 88 233 107 243 132 243 c 0
 158 244 179 238 194 229 c 0
 195 229 200 238 209 255 c 0
 218 272 223 281 224 281 c 1
246 247 m 1
 244 241 240 233 234 223 c 0
 227 213 224 207 224 206 c 0
 230 198 235 189 239 178 c 0
 243 167 246 158 248 151 c 1
 248 167 248 183 247 199 c 0
 247 215 247 231 246 247 c 1
EndSplineSet
EndChar
StartChar: uni0E2B
Encoding: 203 3627 172
Width: 386
Flags: HW
HStem: 0 20
VStem: 81 58<156 213 213 213> 279 59<0 161>
Fore
139 156 m 1
 152 177 167 194 184 207 c 0
 201 220 213 228 222 233 c 1
 211 246 205 262 205 280 c 0
 205 300 211 316 223 329 c 0
 235 341 253 347 276 347 c 0
 296 347 312 341 323 328 c 0
 334 315 340 299 340 280 c 0
 340 255 331 237 314 225 c 1
 318 224 323 218 329 209 c 0
 335 200 338 184 338 161 c 2
 338 0 l 1
 279 0 l 1
 279 161 l 2
 279 178 277 189 273 194 c 0
 269 199 266 202 263 202 c 1
 225 182 195 154 172 117 c 0
 149 80 138 45 138 13 c 2
 138 0 l 1
 81 0 l 1
 81 213 l 1
 78 212 71 212 60 212 c 0
 43 214 29 222 19 235 c 0
 8 248 3 263 3 280 c 0
 3 298 9 314 21 327 c 0
 32 340 49 346 70 346 c 0
 93 346 110 340 122 327 c 0
 133 314 139 297 139 277 c 2
 139 156 l 1
273 253 m 0
 282 253 288 256 292 261 c 0
 297 266 299 272 299 280 c 0
 299 287 297 294 292 299 c 0
 288 304 282 306 273 306 c 0
 265 306 259 303 254 298 c 0
 249 293 247 287 247 280 c 0
 247 273 249 266 254 261 c 0
 259 256 265 253 273 253 c 0
70 252 m 0
 79 252 85 255 89 260 c 0
 94 265 96 271 96 279 c 0
 96 286 94 293 89 298 c 0
 85 303 79 305 70 305 c 0
 62 305 56 302 51 297 c 0
 46 292 44 286 44 279 c 0
 44 272 46 265 51 260 c 0
 56 255 62 252 70 252 c 0
EndSplineSet
EndChar
StartChar: uni0E2C
Encoding: 204 3628 173
Width: 427
Flags: HW
HStem: 0 20
VStem: 86 58<148 213 213 213> 321 58<0 2.5 148 271 271 271>
Fore
379 284 m 1
 379 0 l 1
 321 0 l 1
 321 5 320 12 319 22 c 0
 318 31 317 39 313 46 c 2
 232 198 l 1
 151 46 l 2
 148 41 146 33 145 22 c 0
 143 12 142 5 142 0 c 1
 86 0 l 1
 86 213 l 1
 82 212 75 212 64 212 c 0
 47 214 33 222 23 235 c 0
 13 248 8 263 8 280 c 0
 8 291 10 302 15 313 c 0
 20 323 27 331 38 337 c 0
 48 343 60 346 75 346 c 0
 97 346 114 339 126 326 c 0
 138 313 144 296 144 277 c 2
 144 148 l 1
 232 299 l 1
 321 148 l 1
 321 271 l 1
 302 271 287 277 275 289 c 0
 263 300 257 315 256 333 c 0
 256 351 262 366 273 378 c 0
 284 390 300 396 319 396 c 0
 343 396 359 389 368 375 c 0
 376 361 380 350 381 341 c 1
 390 348 397 362 402 383 c 1
 446 363 l 1
 443 349 438 336 429 325 c 0
 420 314 411 304 401 297 c 0
 392 290 384 285 379 284 c 1
319 311 m 0
 326 311 331 313 335 318 c 1
 340 322 342 327 342 334 c 0
 342 340 340 345 336 350 c 0
 332 354 326 356 319 356 c 0
 312 356 307 354 303 350 c 0
 299 345 297 340 297 334 c 0
 297 328 299 323 303 318 c 0
 308 313 313 311 319 311 c 0
75 252 m 0
 83 252 89 255 94 260 c 0
 99 265 101 271 101 279 c 0
 101 286 99 293 94 298 c 0
 89 303 83 305 75 305 c 0
 67 305 61 302 56 297 c 0
 51 292 49 286 49 279 c 0
 49 272 51 265 56 260 c 0
 61 255 67 252 75 252 c 0
EndSplineSet
EndChar
StartChar: uni0E2D
Encoding: 205 3629 174
Width: 359
Flags: HW
HStem: 0 52<135 221 221 227.5> 301 47<153.5 163>
VStem: 252 59<81 231 231 232>
Fore
106 106 m 1
 106 81 l 2
 106 69 108 61 111 58 c 0
 114 54 122 52 135 52 c 2
 221 52 l 2
 234 52 243 54 247 58 c 0
 250 61 252 69 252 81 c 2
 252 231 l 2
 252 277 222 300 163 301 c 0
 144 301 126 297 109 289 c 0
 92 280 77 269 66 255 c 1
 29 285 l 1
 41 302 59 317 82 330 c 0
 105 342 132 348 165 348 c 0
 212 348 248 338 273 318 c 0
 298 298 311 269 311 232 c 2
 311 67 l 2
 311 40 306 23 296 14 c 0
 286 5 267 0 238 0 c 2
 121 0 l 2
 101 0 86 2 76 5 c 0
 65 8 58 14 54 23 c 0
 50 32 48 46 48 65 c 2
 48 167 l 2
 48 187 54 204 67 218 c 0
 80 232 97 239 118 239 c 0
 133 239 146 236 156 229 c 0
 166 223 174 215 179 205 c 0
 184 195 186 184 186 173 c 0
 186 155 180 139 168 125 c 0
 156 112 139 105 118 105 c 0
 115 105 113 105 111 106 c 0
 109 106 107 106 106 106 c 1
119 146 m 0
 128 146 134 149 139 154 c 0
 143 159 145 165 145 172 c 0
 145 179 143 186 139 191 c 0
 134 196 128 198 119 198 c 0
 111 198 105 195 100 190 c 0
 95 185 93 179 93 172 c 0
 93 165 95 159 100 154 c 0
 105 149 111 146 119 146 c 0
EndSplineSet
EndChar
StartChar: uni0E2E
Encoding: 206 3630 175
Width: 359
Flags: HW
HStem: 0 52<135 222 222 228.5> 227 37 312 41<148 168.5>
VStem: 252 59<81 245 245 245>
Fore
355 322 m 1
 342 304 328 288 311 274 c 1
 311 67 l 2
 311 40 306 23 296 14 c 0
 286 5 267 0 238 0 c 2
 121 0 l 2
 101 0 86 2 76 5 c 0
 65 8 58 13 54 22 c 0
 50 31 48 45 48 63 c 2
 48 140 l 2
 48 161 54 178 66 192 c 0
 78 206 95 213 118 213 c 0
 136 213 151 207 162 195 c 0
 173 182 179 167 180 150 c 0
 180 133 175 117 164 104 c 0
 153 91 137 85 118 84 c 0
 116 84 114 84 112 85 c 0
 109 85 107 85 106 86 c 1
 106 70 l 2
 106 61 107 56 110 54 c 0
 113 53 121 52 135 52 c 2
 222 52 l 2
 235 52 244 54 247 58 c 0
 250 61 252 69 252 81 c 2
 252 245 l 1
 249 242 240 239 225 234 c 0
 210 229 187 227 154 227 c 0
 123 227 95 232 72 241 c 0
 49 250 37 264 37 284 c 0
 37 298 43 310 56 321 c 0
 68 332 83 340 101 345 c 0
 118 350 136 353 154 353 c 0
 189 353 217 348 238 339 c 0
 259 330 272 322 279 316 c 1
 284 321 296 334 314 357 c 1
 355 322 l 1
116 126 m 0
 123 126 129 128 133 133 c 0
 137 138 139 143 139 149 c 0
 139 155 137 160 133 165 c 0
 129 170 123 172 116 172 c 0
 109 172 103 170 99 166 c 0
 95 161 93 156 93 149 c 0
 93 143 95 138 100 133 c 0
 104 128 109 126 116 126 c 0
155 264 m 0
 180 263 201 267 216 272 c 0
 231 278 239 282 239 284 c 1
 235 289 227 294 214 301 c 0
 201 308 181 312 156 312 c 0
 140 312 124 310 107 305 c 0
 91 300 83 294 83 286 c 0
 83 273 107 265 155 264 c 0
EndSplineSet
EndChar
StartChar: uni0E2F
Encoding: 207 3631 176
Width: 340
Flags: HW
HStem: -14 20
VStem: 234 58<110 191 191 191>
Fore
33 262 m 1
 38 318 64 346 113 347 c 0
 125 347 136 344 147 338 c 0
 158 332 166 324 172 313 c 0
 178 302 181 291 181 279 c 0
 181 260 175 244 163 231 c 0
 150 218 134 212 113 212 c 0
 110 212 107 212 104 213 c 0
 101 213 99 213 97 213 c 1
 102 202 122 196 158 196 c 1
 179 199 197 215 212 242 c 0
 227 269 235 302 235 340 c 1
 292 340 l 1
 292 106 l 2
 292 71 284 45 268 28 c 0
 251 11 221 -3 176 -14 c 1
 164 32 l 1
 187 40 203 47 212 52 c 0
 222 57 228 64 230 71 c 0
 233 79 234 92 234 110 c 2
 234 191 l 1
 229 179 218 168 201 159 c 0
 184 149 165 144 145 144 c 0
 140 144 132 145 123 146 c 0
 96 152 75 165 58 186 c 0
 41 207 33 232 33 262 c 1
114 252 m 0
 122 252 128 255 133 260 c 0
 138 265 140 271 140 279 c 0
 140 286 138 293 133 298 c 0
 128 303 122 305 114 305 c 0
 106 305 100 302 95 297 c 0
 90 292 88 286 88 279 c 0
 88 272 90 265 95 260 c 0
 100 255 106 252 114 252 c 0
EndSplineSet
EndChar
StartChar: uni0E30
Encoding: 208 3632 177
Width: 269
Flags: HW
HStem: 0 139 201 139
VStem: 18 232
Fore
84 139 m 0
 104 139 120 133 132 121 c 0
 143 109 149 94 150 75 c 0
 150 71 149 66 148 61 c 0
 147 55 147 51 146 48 c 1
 154 49 164 55 176 66 c 0
 188 77 194 100 194 135 c 1
 250 135 l 1
 250 93 239 60 218 36 c 0
 196 12 160 0 109 0 c 0
 85 0 64 7 46 20 c 0
 28 33 19 51 19 74 c 0
 19 93 25 109 36 121 c 0
 47 133 63 139 84 139 c 0
84 340 m 0
 104 340 121 334 132 322 c 0
 144 309 149 294 150 275 c 0
 150 271 149 266 148 261 c 0
 147 255 147 251 146 248 c 1
 146 248 l 1
 148 248 153 250 160 253 c 0
 169 258 177 267 184 280 c 0
 191 293 194 311 194 335 c 1
 250 335 l 1
 250 307 246 283 237 264 c 0
 228 245 213 229 192 218 c 0
 171 207 144 201 109 201 c 0
 86 201 65 208 46 221 c 0
 27 234 17 251 18 274 c 0
 18 293 25 309 36 322 c 0
 47 334 63 340 84 340 c 0
85 49 m 0
 93 49 99 52 103 57 c 0
 107 62 109 67 109 74 c 0
 109 80 107 86 103 91 c 0
 99 96 93 98 85 98 c 0
 77 98 71 96 67 91 c 0
 62 86 60 80 60 74 c 0
 60 67 62 62 67 57 c 0
 71 52 77 49 85 49 c 0
85 249 m 0
 92 249 98 252 103 257 c 0
 107 262 109 267 109 274 c 0
 109 281 107 287 103 292 c 0
 99 297 93 299 85 299 c 0
 78 299 72 297 67 292 c 0
 62 287 60 281 60 274 c 0
 60 268 62 262 67 257 c 0
 72 252 78 249 85 249 c 0
EndSplineSet
EndChar
StartChar: uni0E31
Encoding: 209 3633 178
Width: 0
Flags: HW
VStem: -222 290
Fore
-157 548 m 0
 -137 548 -122 541 -111 529 c 0
 -100 516 -95 501 -95 482 c 0
 -95 476 -96 470 -98 464 c 0
 -100 458 -102 454 -103 451 c 1
 -102 451 -100 451 -97 450 c 0
 -94 449 -91 449 -88 449 c 0
 -71 449 -53 455 -33 468 c 0
 -13 480 4 503 19 537 c 1
 68 520 l 1
 61 496 50 475 34 458 c 0
 17 441 -2 427 -25 417 c 0
 -48 408 -72 403 -98 403 c 0
 -108 403 -115 403 -120 404 c 0
 -147 407 -171 416 -191 429 c 0
 -212 442 -222 459 -222 482 c 0
 -222 501 -216 517 -205 529 c 0
 -194 542 -178 549 -157 548 c 0
-156 459 m 0
 -149 459 -143 461 -138 466 c 0
 -134 471 -132 476 -132 483 c 0
 -132 490 -134 495 -138 500 c 0
 -143 505 -149 507 -156 507 c 0
 -163 507 -169 505 -174 500 c 0
 -178 495 -180 490 -180 483 c 0
 -180 476 -178 471 -174 466 c 0
 -169 461 -163 459 -156 459 c 0
EndSplineSet
EndChar
StartChar: uni0E32
Encoding: 210 3634 179
Width: 296
Flags: HW
HStem: 0 20 304 46<111.5 131>
VStem: 190 58<0 247>
Fore
6 258 m 1
 12 280 25 301 44 321 c 0
 63 340 92 350 131 350 c 0
 173 349 203 340 221 323 c 0
 239 306 248 280 248 247 c 2
 248 0 l 1
 190 0 l 1
 190 248 l 2
 190 285 168 304 125 304 c 0
 90 304 67 284 56 244 c 1
 6 258 l 1
EndSplineSet
EndChar
StartChar: uni0E33
Encoding: 211 3635 180
Width: 296
Flags: HW
HStem: 0 20 304 46<111.5 131> 402 135<-115.5 -94.5>
VStem: 190 58<0 247>
Fore
6 258 m 1
 12 280 25 301 44 321 c 0
 63 340 92 350 131 350 c 0
 173 349 203 340 221 323 c 0
 239 306 248 280 248 247 c 2
 248 0 l 1
 190 0 l 1
 190 248 l 2
 190 285 168 304 125 304 c 0
 90 304 67 284 56 244 c 1
 6 258 l 1
-105 537 m 0
 -84 537 -67 531 -56 518 c 0
 -44 505 -38 489 -38 470 c 0
 -38 451 -44 435 -56 422 c 0
 -68 409 -84 402 -105 402 c 0
 -126 402 -142 409 -154 422 c 0
 -166 435 -172 451 -172 470 c 0
 -172 489 -166 505 -154 518 c 0
 -143 531 -126 537 -105 537 c 0
-104 443 m 0
 -96 443 -90 446 -85 451 c 0
 -80 456 -78 463 -78 470 c 0
 -78 477 -80 484 -85 489 c 0
 -90 494 -96 496 -104 496 c 0
 -113 496 -119 494 -123 489 c 0
 -128 484 -130 477 -130 470 c 0
 -130 463 -128 456 -123 451 c 0
 -119 446 -113 443 -104 443 c 0
EndSplineSet
EndChar
StartChar: uni0E34
Encoding: 212 3636 181
Width: 0
Flags: HW
VStem: -314 268
Fore
-171 543 m 0
 -146 542 -125 535 -108 523 c 0
 -92 512 -80 498 -71 483 c 0
 -63 468 -57 452 -54 435 c 0
 -50 418 -47 405 -46 398 c 1
 -56 401 -71 406 -92 412 c 0
 -113 417 -138 422 -165 426 c 0
 -184 429 -206 430 -231 430 c 0
 -250 430 -267 429 -282 428 c 0
 -297 427 -308 426 -314 425 c 1
 -311 447 -303 467 -290 485 c 0
 -277 502 -261 516 -240 527 c 0
 -219 538 -196 543 -171 543 c 0
-171 503 m 1
 -189 503 -205 500 -219 493 c 0
 -233 486 -242 479 -245 470 c 1
 -242 471 -237 471 -229 472 c 0
 -222 472 -214 472 -205 472 c 0
 -196 472 -185 471 -170 470 c 0
 -150 468 -134 465 -123 462 c 0
 -111 458 -103 455 -99 453 c 1
 -114 482 -138 499 -171 503 c 1
EndSplineSet
EndChar
StartChar: uni0E35
Encoding: 213 3637 182
Width: 40
Flags: HW
VStem: -80 52<521 581>
Fore
-150 545 m 0
 -131 545 -115 540 -104 535 c 0
 -92 529 -84 524 -80 521 c 1
 -80 581 l 1
 -28 581 l 1
 -28 443 l 1
 -26 443 -22 428 -16 398 c 1
 -27 401 -45 407 -70 414 c 0
 -95 421 -120 425 -143 428 c 0
 -162 431 -184 432 -209 432 c 0
 -224 432 -236 432 -246 431 c 0
 -276 428 l 0
 -286 427 -292 427 -293 427 c 1
 -290 449 -282 469 -269 487 c 0
 -256 505 -240 519 -219 529 c 0
 -198 540 -175 546 -150 545 c 0
-150 505 m 1
 -167 505 -183 502 -197 495 c 0
 -211 488 -220 480 -223 471 c 1
 -220 472 -215 472 -208 473 c 0
 -201 474 -192 474 -179 474 c 0
 -172 474 -162 473 -149 472 c 0
 -134 470 -122 468 -111 466 c 0
 -101 463 -93 461 -86 458 c 0
 -80 456 -77 455 -77 455 c 1
 -77 455 l 1
 -92 484 -116 500 -150 505 c 1
EndSplineSet
EndChar
StartChar: uni0E36
Encoding: 214 3638 183
Width: 0
Flags: HW
VStem: -322 276
Fore
-47 537 m 1
 -47 507 -56 488 -73 479 c 1
 -70 473 -65 463 -59 450 c 0
 -53 436 -49 419 -46 398 c 1
 -57 401 -75 407 -100 414 c 0
 -125 421 -150 425 -173 428 c 0
 -192 431 -214 432 -239 432 c 0
 -254 432 -266 432 -276 431 c 0
 -287 430 -296 429 -305 428 c 0
 -314 427 -320 427 -322 427 c 1
 -318 449 -310 469 -297 487 c 0
 -285 505 -269 519 -248 529 c 0
 -227 540 -204 545 -179 545 c 0
 -176 545 -172 545 -167 544 c 0
 -162 543 -160 543 -160 542 c 0
 -150 572 -131 587 -103 587 c 0
 -87 587 -74 583 -64 574 c 0
 -55 565 -49 552 -47 537 c 1
-180 505 m 1
 -197 505 -213 502 -227 495 c 0
 -242 488 -250 481 -253 472 c 1
 -250 473 -245 473 -237 474 c 0
 -230 474 -222 474 -213 474 c 0
 -206 474 -194 473 -178 472 c 0
 -159 470 -143 467 -131 464 c 0
 -119 460 -111 457 -107 455 c 1
 -122 484 -147 500 -180 505 c 1
-104 513 m 0
 -99 513 -95 515 -92 519 c 0
 -89 522 -87 526 -87 531 c 0
 -87 535 -88 539 -91 542 c 0
 -94 546 -99 548 -104 548 c 0
 -115 548 -121 542 -121 531 c 0
 -121 519 -115 513 -104 513 c 0
EndSplineSet
EndChar
StartChar: uni0E37
Encoding: 215 3639 184
Width: 40
Flags: HW
VStem: -78 50<519 581>
Fore
-78 519 m 1
 -78 581 l 1
 -28 581 l 1
 -28 443 l 1
 -26 443 -22 428 -16 398 c 1
 -27 401 -45 407 -70 414 c 0
 -95 421 -120 425 -143 428 c 0
 -162 431 -184 432 -209 432 c 0
 -224 432 -236 432 -246 431 c 0
 -276 428 l 0
 -286 427 -292 427 -293 427 c 1
 -281 475 -261 507 -234 522 c 0
 -207 537 -178 545 -148 545 c 1
 -148 581 l 1
 -101 581 l 1
 -101 533 l 1
 -99 532 -96 531 -91 528 c 0
 -86 525 -82 522 -78 519 c 1
-150 505 m 1
 -167 505 -183 502 -197 495 c 0
 -211 488 -220 480 -223 471 c 1
 -220 472 -215 472 -208 473 c 0
 -201 474 -192 474 -179 474 c 0
 -172 474 -162 473 -149 472 c 0
 -134 470 -122 468 -111 466 c 0
 -101 463 -93 461 -86 458 c 0
 -80 456 -77 455 -77 455 c 1
 -77 455 l 1
 -92 484 -116 500 -150 505 c 1
EndSplineSet
EndChar
StartChar: uni0E38
Encoding: 216 3640 185
Width: 0
Flags: HW
VStem: -102 54<-250 -174 -174 -174>
Fore
-48 -250 m 1
 -102 -250 l 1
 -102 -174 l 1
 -107 -175 -115 -175 -126 -175 c 0
 -138 -174 -148 -170 -157 -163 c 0
 -166 -156 -172 -148 -177 -138 c 0
 -181 -129 -183 -119 -183 -108 c 0
 -183 -90 -177 -74 -165 -61 c 0
 -153 -47 -136 -40 -114 -40 c 0
 -103 -40 -92 -42 -82 -47 c 0
 -72 -52 -64 -60 -58 -69 c 0
 -51 -79 -48 -90 -48 -102 c 2
 -48 -250 l 1
-115 -134 m 0
 -107 -134 -100 -131 -95 -126 c 0
 -90 -121 -88 -115 -88 -108 c 0
 -88 -101 -90 -94 -95 -89 c 0
 -100 -84 -106 -81 -115 -81 c 0
 -124 -81 -130 -84 -135 -89 c 0
 -140 -94 -142 -101 -142 -108 c 0
 -142 -115 -140 -121 -135 -126 c 0
 -130 -131 -123 -134 -115 -134 c 0
EndSplineSet
EndChar
StartChar: uni0E39
Encoding: 217 3641 186
Width: 0
Flags: HW
VStem: -102 54<-191 -45>
Fore
-190 -199 m 2
 -190 -174 l 1
 -194 -175 -201 -175 -211 -175 c 0
 -223 -174 -233 -170 -242 -163 c 0
 -251 -156 -257 -148 -262 -138 c 0
 -266 -129 -268 -119 -268 -108 c 0
 -268 -90 -262 -74 -250 -61 c 0
 -238 -47 -221 -40 -199 -40 c 0
 -182 -40 -166 -46 -153 -57 c 0
 -140 -68 -133 -83 -133 -102 c 2
 -133 -190 l 2
 -133 -201 -128 -207 -117 -207 c 0
 -107 -207 -102 -202 -102 -191 c 2
 -102 -45 l 1
 -48 -45 l 1
 -48 -199 l 2
 -48 -216 -55 -230 -70 -240 c 0
 -85 -251 -101 -256 -118 -256 c 0
 -135 -256 -152 -251 -167 -240 c 0
 -182 -230 -190 -216 -190 -199 c 2
-200 -134 m 0
 -191 -134 -185 -131 -180 -125 c 0
 -175 -120 -173 -114 -173 -107 c 0
 -173 -100 -175 -94 -180 -88 c 0
 -185 -83 -191 -80 -200 -80 c 0
 -209 -80 -215 -83 -220 -88 c 0
 -225 -94 -227 -100 -227 -107 c 0
 -227 -114 -225 -120 -220 -125 c 0
 -215 -131 -209 -134 -200 -134 c 0
EndSplineSet
EndChar
StartChar: uni0E3A
Encoding: 218 3642 187
Width: 0
Flags: HW
HStem: -125 20
VStem: -116 69<-95.5 -88>
Fore
-81 -56 m 0
 -74 -56 -68 -58 -63 -61 c 0
 -58 -64 -54 -68 -51 -74 c 0
 -48 -79 -47 -85 -47 -91 c 0
 -47 -100 -50 -108 -56 -115 c 0
 -62 -122 -70 -125 -81 -125 c 0
 -92 -125 -100 -122 -106 -115 c 0
 -113 -108 -116 -100 -116 -91 c 0
 -116 -82 -113 -73 -106 -66 c 0
 -100 -59 -92 -56 -81 -56 c 0
EndSplineSet
EndChar
StartChar: dottedcircle
Encoding: 221 9676 188
Width: 619
Flags: HW
HStem: -9 49<322 323> 15 49<225 229> 22 49<401 409> 75 49<160 165> 83 49<460 464> 167 49<483 487> 172 49<136 142> 255 49<460 464> 259 49<165 167> 314 49<393 401> 319 49<231 232> 341 49<316 324>
VStem: 112 49<196 197> 136 49<94 101> 141 49<284 288> 200 49<40 41> 207 49<343 344> 298 49<15 16 366 369> 374 49<338 343> 382 49<46 47> 436 49<102 108 275 285> 459 49<187 197>
Fore
158 294 m 6
224 354 m 6
217 50 m 6
153 110 m 6
399 57 m 6
453 118 m 6
453 291 m 6
391 349 m 6
476 203 m 6
129 207 m 6
314 376 m 6
165 308 m 0
 179 308 189 297 189 284 c 0
 189 270 179 259 165 259 c 0
 151 259 141 270 141 284 c 0
 141 297 151 308 165 308 c 0
165 284 m 0
 165 284 l 0
 165 284 l 0
 165 284 l 0
 165 284 l 0
231 368 m 0
 245 368 256 357 256 343 c 0
 256 330 245 319 231 319 c 0
 218 319 207 330 207 343 c 0
 207 357 218 368 231 368 c 0
231 343 m 0
 231 343 l 0
 231 343 l 0
 231 343 l 0
 231 343 l 0
225 64 m 0
 238 64 249 53 249 40 c 0
 249 26 238 15 225 15 c 0
 211 15 200 26 200 40 c 0
 200 53 211 64 225 64 c 0
225 40 m 0
 225 40 l 0
 225 40 l 0
 225 40 l 0
 225 40 l 0
160 124 m 0
 174 124 185 113 185 99 c 0
 185 85 174 75 160 75 c 0
 146 75 136 85 136 99 c 0
 136 113 146 124 160 124 c 0
160 99 m 0
 160 99 l 0
 160 99 l 0
 160 99 l 0
 160 99 l 0
406 71 m 0
 420 71 431 60 431 46 c 0
 431 33 420 22 406 22 c 0
 393 22 382 33 382 46 c 0
 382 60 393 71 406 71 c 0
406 46 m 0
 406 46 l 0
 406 46 l 0
 406 46 l 0
 406 46 l 0
460 131 m 0
 474 131 484 121 484 107 c 0
 484 93 474 83 460 83 c 0
 446 83 436 93 436 107 c 0
 436 121 446 131 460 131 c 0
460 107 m 0
 460 107 l 0
 460 107 l 0
 460 107 l 0
 460 107 l 0
460 304 m 0
 474 304 484 293 484 280 c 0
 484 266 474 255 460 255 c 0
 446 255 436 266 436 280 c 0
 436 293 446 304 460 304 c 0
460 280 m 0
 460 280 l 0
 460 280 l 0
 460 280 l 0
 460 280 l 0
398 363 m 0
 412 363 423 352 423 338 c 0
 423 325 412 314 398 314 c 0
 385 314 374 325 374 338 c 0
 374 352 385 363 398 363 c 0
398 338 m 0
 398 338 l 0
 398 338 l 0
 398 338 l 0
 398 338 l 0
483 216 m 0
 497 216 508 206 508 192 c 0
 508 178 497 167 483 167 c 0
 470 167 459 178 459 192 c 0
 459 206 470 216 483 216 c 0
483 192 m 0
 483 192 l 0
 483 192 l 0
 483 192 l 0
 483 192 l 0
136 221 m 0
 150 221 161 210 161 196 c 0
 161 183 150 172 136 172 c 0
 123 172 112 183 112 196 c 0
 112 210 123 221 136 221 c 0
136 196 m 0
 136 196 l 0
 136 196 l 0
 136 196 l 0
 136 196 l 0
322 40 m 0
 336 40 347 29 347 15 c 0
 347 1 336 -9 322 -9 c 0
 309 -9 298 1 298 15 c 0
 298 29 309 40 322 40 c 0
322 15 m 0
 322 15 l 0
 322 15 l 0
 322 15 l 0
 322 15 l 0
321 390 m 0
 335 390 346 379 346 366 c 0
 346 352 335 341 321 341 c 0
 308 341 297 352 297 366 c 0
 297 379 308 390 321 390 c 0
321 366 m 0
 321 366 l 0
 321 366 l 0
 321 366 l 0
 321 366 l 0
EndSplineSet
EndChar
StartChar: uni0E3F
Encoding: 223 3647 189
Width: 410
Flags: HW
HStem: 0 71<132 232 232 234> 178 71<132 229 229 234> 344 71<132 132 132 231 231 233>
VStem: 47 85<71 178 249 344> 185 40<-35 455 455 455>
Fore
47 0 m 1
 47 415 l 1
 231 415 l 2
 246 415 264 412 284 407 c 0
 303 402 319 394 330 383 c 1
 342 374 351 364 356 355 c 0
 358 351 360 343 363 332 c 0
 366 320 367 311 368 306 c 0
 368 291 365 277 358 262 c 0
 352 247 342 233 328 221 c 1
 341 212 352 199 361 184 c 0
 370 168 376 151 378 134 c 1
 378 110 375 90 368 73 c 0
 361 56 350 41 335 28 c 0
 312 9 279 0 234 0 c 2
 47 0 l 1
185 455 m 1
 225 460 l 1
 225 -35 l 1
 185 -35 l 1
 185 455 l 1
132 178 m 1
 132 71 l 1
 232 71 l 2
 249 71 264 74 277 81 c 0
 290 88 297 104 296 129 c 0
 296 149 290 162 279 168 c 0
 268 175 253 178 234 178 c 2
 132 178 l 1
132 344 m 1
 132 249 l 1
 229 249 l 2
 247 249 261 253 271 262 c 0
 281 271 286 282 286 296 c 0
 285 328 267 344 233 344 c 2
 132 344 l 1
EndSplineSet
EndChar
StartChar: uni0E40
Encoding: 224 3648 190
Width: 188
Flags: HW
HStem: -4 20
VStem: 48 58<131 340>
Fore
115 -4 m 0
 94 -4 77 3 65 16 c 0
 54 29 48 45 48 65 c 2
 48 340 l 1
 106 340 l 1
 106 131 l 1
 115 131 l 2
 137 131 154 123 165 112 c 0
 176 100 181 84 182 65 c 0
 182 46 177 29 165 16 c 0
 153 2 136 -4 115 -4 c 0
116 37 m 0
 124 37 130 39 135 44 c 0
 140 49 142 56 142 63 c 0
 142 70 140 77 136 82 c 0
 131 87 125 89 116 89 c 0
 108 89 101 86 96 81 c 0
 91 76 89 70 89 63 c 0
 89 56 92 50 97 45 c 0
 102 40 108 37 116 37 c 0
EndSplineSet
EndChar
StartChar: uni0E41
Encoding: 225 3649 191
Width: 348
Flags: HW
HStem: -4 20
VStem: 48 58<131 340> 209 58<131 340>
Fore
115 -4 m 0
 94 -4 77 3 65 16 c 0
 54 29 48 45 48 65 c 2
 48 340 l 1
 106 340 l 1
 106 131 l 1
 115 131 l 2
 137 131 154 123 165 112 c 0
 176 100 181 84 182 65 c 0
 182 46 177 29 165 16 c 0
 153 2 136 -4 115 -4 c 0
276 -4 m 0
 255 -4 238 3 227 16 c 0
 215 29 209 45 209 65 c 2
 209 340 l 1
 267 340 l 1
 267 131 l 1
 276 131 l 2
 297 131 313 123 324 111 c 0
 335 99 342 84 343 65 c 0
 343 46 337 29 325 16 c 0
 313 3 297 -4 276 -4 c 0
116 37 m 0
 124 37 130 39 135 44 c 0
 140 49 142 56 142 63 c 0
 142 70 140 77 136 82 c 0
 131 87 125 89 116 89 c 0
 108 89 101 86 96 81 c 0
 91 76 89 70 89 63 c 0
 89 56 92 50 97 45 c 0
 102 40 108 37 116 37 c 0
276 37 m 0
 285 37 291 39 295 44 c 0
 300 49 302 56 302 63 c 0
 302 70 300 77 295 82 c 0
 291 87 285 89 276 89 c 0
 267 89 261 86 257 81 c 0
 252 76 250 70 250 63 c 0
 250 56 252 50 257 45 c 0
 262 40 268 37 276 37 c 0
EndSplineSet
EndChar
StartChar: uni0E42
Encoding: 226 3650 192
Width: 236
Flags: HW
HStem: -4 20
VStem: 88 58<131 459>
Fore
146 459 m 2
 146 131 l 1
 155 131 l 2
 177 131 194 123 205 111 c 0
 216 99 221 84 222 65 c 0
 222 46 216 29 205 16 c 0
 193 3 176 -4 155 -4 c 0
 134 -4 117 3 105 16 c 0
 94 29 88 45 88 65 c 2
 88 461 l 2
 88 475 87 485 86 491 c 0
 84 497 80 502 75 507 c 0
 69 512 60 517 47 523 c 0
 34 529 10 539 -23 553 c 1
 -20 558 -13 565 -3 574 c 0
 6 583 19 593 36 603 c 0
 53 612 70 617 89 617 c 0
 101 617 110 616 116 614 c 0
 122 611 132 607 147 601 c 0
 162 594 173 591 181 591 c 0
 192 591 203 596 216 605 c 1
 236 561 l 1
 218 548 200 541 182 541 c 0
 169 541 153 545 135 553 c 0
 117 561 106 565 101 566 c 0
 94 567 90 568 87 568 c 0
 82 568 78 567 75 566 c 0
 72 564 71 563 70 562 c 1
 94 550 111 541 120 535 c 0
 129 528 135 520 140 509 c 0
 144 498 146 481 146 459 c 2
155 39 m 0
 163 39 169 41 173 46 c 0
 177 51 179 56 179 63 c 0
 179 70 177 75 173 80 c 0
 169 85 163 87 155 87 c 0
 148 87 142 85 138 80 c 0
 133 75 131 70 131 63 c 0
 131 56 133 51 138 46 c 0
 142 41 148 39 155 39 c 0
EndSplineSet
EndChar
StartChar: uni0E43
Encoding: 227 3651 193
Width: 236
Flags: HW
HStem: -4 20 455 165
VStem: 88 59<130 529>
Fore
147 529 m 2
 147 130 l 1
 156 130 l 2
 177 130 194 122 205 111 c 0
 216 99 222 84 223 65 c 0
 223 46 217 29 206 16 c 0
 194 3 177 -4 156 -4 c 0
 134 -4 117 3 105 16 c 0
 94 29 88 46 88 65 c 2
 88 530 l 2
 88 545 87 557 84 564 c 0
 81 571 74 575 62 575 c 0
 52 575 45 574 42 571 c 0
 38 568 35 565 34 563 c 1
 49 563 60 558 68 547 c 0
 76 536 80 522 80 503 c 1
 77 471 61 455 32 455 c 0
 19 455 8 458 -2 464 c 0
 -13 470 -20 478 -23 489 c 0
 -26 501 -28 512 -28 522 c 0
 -28 549 -19 572 -2 591 c 0
 15 610 36 620 63 620 c 0
 90 620 111 612 125 595 c 0
 140 578 147 556 147 529 c 2
156 39 m 0
 163 39 169 41 174 46 c 0
 178 51 180 56 180 63 c 0
 180 70 178 75 174 80 c 0
 169 85 163 87 156 87 c 0
 149 87 143 85 139 80 c 0
 134 75 132 70 132 63 c 0
 132 56 134 51 139 46 c 0
 143 41 149 39 156 39 c 0
26 527 m 0
 22 527 19 525 16 522 c 0
 13 519 12 515 12 511 c 0
 12 507 13 503 16 500 c 0
 19 497 22 495 26 495 c 0
 36 495 41 500 41 511 c 0
 41 522 36 527 26 527 c 0
EndSplineSet
EndChar
StartChar: uni0E44
Encoding: 228 3652 194
Width: 269
Flags: HW
HStem: -4 20
VStem: 122 58<131 528 528 528>
Fore
122 528 m 1
 94 435 l 2
 89 418 79 409 63 409 c 0
 54 409 47 412 42 417 c 0
 37 423 32 432 29 444 c 2
 -3 562 l 2
 -6 574 -12 582 -23 587 c 1
 10 620 l 1
 25 614 34 603 39 586 c 1
 64 495 l 1
 93 592 l 1
 98 610 113 619 135 619 c 0
 148 619 158 615 167 608 c 0
 176 601 180 590 180 576 c 2
 180 131 l 1
 188 131 l 2
 210 131 227 123 238 112 c 0
 249 100 255 84 256 65 c 0
 256 46 250 29 238 16 c 0
 226 3 209 -4 188 -4 c 0
 167 -4 150 3 139 16 c 0
 128 29 122 45 122 65 c 2
 122 528 l 1
189 39 m 0
 197 39 203 41 207 46 c 0
 211 51 213 56 213 63 c 0
 213 70 211 75 207 80 c 0
 203 85 197 87 189 87 c 0
 181 87 175 85 171 80 c 0
 167 75 165 70 165 63 c 0
 165 56 167 51 171 46 c 0
 175 41 181 39 189 39 c 0
EndSplineSet
EndChar
StartChar: uni0E45
Encoding: 229 3653 195
Width: 296
Flags: HW
HStem: 304 46<111.5 131>
VStem: 190 58<-177 247>
Fore
6 258 m 1
 12 280 25 301 44 321 c 0
 63 340 92 350 131 350 c 0
 173 349 203 340 221 323 c 0
 239 306 248 280 248 247 c 2
 248 -177 l 1
 190 -177 l 1
 190 248 l 2
 190 285 168 304 125 304 c 0
 90 304 67 284 56 244 c 1
 6 258 l 1
EndSplineSet
EndChar
StartChar: uni0E46
Encoding: 230 3654 196
Width: 394
Flags: HW
VStem: 288 58<-15 240 240 246>
Fore
179 296 m 1
 168 291 161 283 157 273 c 0
 152 264 150 256 149 251 c 1
 151 252 155 254 161 257 c 0
 166 259 174 260 183 260 c 0
 202 260 217 255 228 244 c 0
 238 233 243 218 243 201 c 0
 243 184 238 169 228 157 c 0
 217 145 202 139 183 139 c 0
 158 140 138 149 122 166 c 0
 106 183 97 205 96 234 c 0
 96 261 104 286 121 308 c 0
 137 329 157 342 181 347 c 1
 189 343 199 338 210 333 c 0
 221 327 227 323 227 322 c 1
 266 347 l 1
 295 342 315 330 328 313 c 0
 340 296 346 273 346 246 c 2
 346 -19 l 2
 346 -51 335 -76 313 -94 c 0
 290 -112 262 -124 228 -130 c 1
 213 -79 l 1
 216 -78 226 -74 243 -69 c 0
 259 -64 271 -58 278 -50 c 0
 285 -43 288 -31 288 -15 c 2
 288 240 l 2
 288 256 287 268 284 275 c 0
 281 283 275 290 266 296 c 1
 227 271 l 1
 227 271 l 1
 227 271 221 274 209 280 c 0
 197 287 187 292 179 296 c 1
183 181 m 0
 188 181 193 183 196 187 c 0
 199 190 201 194 201 199 c 0
 201 204 200 209 197 212 c 0
 194 215 189 217 183 217 c 0
 177 217 172 215 169 212 c 0
 166 209 165 204 165 199 c 0
 165 194 167 190 170 187 c 0
 173 183 178 181 183 181 c 0
EndSplineSet
EndChar
StartChar: uni0E47
Encoding: 231 3655 197
Width: 0
Flags: HW
VStem: -296 260
Fore
-102 400 m 0
 -112 400 -121 403 -129 408 c 0
 -138 413 -147 419 -157 427 c 0
 -168 436 -176 442 -182 446 c 0
 -188 449 -195 451 -203 451 c 0
 -210 451 -216 445 -221 434 c 0
 -226 422 -228 410 -228 398 c 1
 -242 398 l 1
 -257 405 -269 418 -280 437 c 0
 -291 454 -296 472 -296 490 c 0
 -296 501 -294 510 -291 517 c 0
 -284 534 -273 546 -259 553 c 0
 -246 560 -227 563 -203 563 c 0
 -198 563 -194 563 -191 563 c 0
 -188 563 -185 563 -182 562 c 0
 -164 560 -148 559 -134 559 c 0
 -117 559 -104 562 -97 568 c 0
 -89 575 -85 587 -85 605 c 1
 -36 605 l 1
 -36 573 -44 551 -60 537 c 0
 -75 524 -102 516 -140 516 c 0
 -158 516 -172 517 -183 518 c 0
 -206 518 -222 515 -231 510 c 0
 -240 504 -244 492 -244 475 c 1
 -243 479 -239 484 -232 490 c 0
 -225 495 -214 498 -198 498 c 0
 -185 498 -174 496 -167 491 c 0
 -159 486 -154 481 -151 478 c 1
 -144 498 -128 508 -102 508 c 0
 -85 508 -71 503 -62 493 c 0
 -53 484 -48 471 -48 455 c 0
 -48 440 -53 427 -63 416 c 0
 -73 405 -86 400 -102 400 c 0
-102 438 m 0
 -91 438 -86 444 -86 455 c 0
 -86 460 -87 464 -90 467 c 0
 -93 470 -97 471 -102 471 c 0
 -107 471 -112 469 -115 466 c 0
 -118 463 -119 459 -119 455 c 0
 -119 444 -113 438 -102 438 c 0
EndSplineSet
EndChar
StartChar: uni0E48
Encoding: 232 3656 198
Width: 0
Flags: HW
HStem: 619 117<-100 -48>
VStem: -100 52<619 736>
Fore
-100 619 m 1
 -100 736 l 1
 -48 736 l 1
 -48 619 l 1
 -100 619 l 1
EndSplineSet
EndChar
StartChar: uni0E49
Encoding: 233 3657 199
Width: 0
Flags: HW
VStem: -184 207
Fore
-78 681 m 0
 -79 664 -81 653 -84 646 c 0
 -87 639 -90 634 -93 633 c 1
 -91 633 -86 634 -79 636 c 0
 -72 638 -65 641 -57 646 c 0
 -50 651 -44 657 -39 664 c 0
 -32 675 -28 685 -27 694 c 0
 -26 703 -25 716 -25 733 c 1
 23 733 l 1
 23 671 3 629 -38 610 c 0
 -63 598 -90 593 -117 593 c 0
 -126 593 -135 594 -142 595 c 0
 -149 596 -153 596 -156 597 c 1
 -156 614 l 1
 -153 615 -149 618 -145 621 c 0
 -141 624 -138 628 -137 633 c 1
 -138 633 -144 634 -153 637 c 0
 -162 640 -169 645 -175 654 c 0
 -181 663 -184 673 -184 686 c 0
 -184 700 -179 712 -169 722 c 0
 -160 732 -147 737 -132 737 c 0
 -115 737 -101 731 -92 720 c 0
 -83 708 -78 695 -78 681 c 0
-133 668 m 0
 -128 668 -123 670 -120 673 c 0
 -117 676 -116 680 -116 685 c 0
 -116 690 -118 694 -121 697 c 0
 -124 700 -128 702 -133 702 c 0
 -144 702 -150 696 -150 685 c 0
 -150 681 -148 677 -145 673 c 0
 -142 670 -138 668 -133 668 c 0
EndSplineSet
EndChar
StartChar: uni0E4A
Encoding: 234 3658 200
Width: 0
Flags: HW
VStem: -256 246
Fore
-199 590 m 0
 -216 590 -229 597 -240 612 c 0
 -251 627 -257 644 -256 663 c 0
 -256 681 -249 696 -240 708 c 0
 -230 720 -216 726 -199 726 c 0
 -188 726 -179 724 -173 720 c 0
 -167 715 -163 712 -161 709 c 1
 -159 712 -154 715 -147 720 c 0
 -141 724 -133 726 -124 726 c 0
 -107 726 -95 721 -86 711 c 0
 -77 700 -73 686 -73 669 c 0
 -73 657 -74 649 -76 645 c 0
 -78 640 -81 634 -85 626 c 1
 -82 627 -79 630 -74 634 c 0
 -69 637 -64 642 -61 649 c 0
 -54 664 -50 678 -49 691 c 0
 -49 698 -50 706 -52 714 c 1
 -14 728 l 1
 -11 719 -10 710 -10 701 c 0
 -10 674 -18 650 -31 631 c 0
 -41 617 -52 608 -69 604 c 0
 -86 599 -107 596 -130 596 c 1
 -130 599 -130 602 -130 604 c 0
 -130 606 -130 608 -131 611 c 1
 -128 614 -124 619 -119 626 c 0
 -114 634 -111 644 -111 656 c 0
 -111 666 -112 674 -114 680 c 0
 -117 686 -123 689 -132 689 c 0
 -139 689 -144 688 -147 685 c 0
 -151 682 -154 679 -156 677 c 1
 -156 677 l 1
 -156 678 -159 680 -166 684 c 0
 -173 689 -181 691 -190 691 c 0
 -205 691 -213 684 -214 671 c 1
 -213 672 -211 672 -208 673 c 0
 -205 674 -201 674 -194 674 c 0
 -182 673 -173 669 -166 661 c 0
 -159 652 -156 642 -156 629 c 0
 -156 619 -160 610 -168 602 c 0
 -177 594 -188 590 -199 590 c 0
-200 645 m 0
 -209 645 -214 641 -214 632 c 0
 -214 623 -209 619 -200 619 c 0
 -191 619 -187 623 -187 632 c 0
 -187 641 -191 645 -200 645 c 0
EndSplineSet
EndChar
StartChar: uni0E4B
Encoding: 235 3659 201
Width: 0
Flags: HW
HStem: 644 46<-148 -98 -48 2>
VStem: -98 50<601 644 690 734>
Fore
-98 644 m 1
 -148 644 l 1
 -148 690 l 1
 -98 690 l 1
 -98 734 l 1
 -48 734 l 1
 -48 690 l 1
 2 690 l 1
 2 644 l 1
 -48 644 l 1
 -48 601 l 1
 -98 601 l 1
 -98 644 l 1
EndSplineSet
EndChar
StartChar: uni0E4C
Encoding: 236 3660 202
Width: 0
Flags: HW
VStem: -213 187
Fore
-74 672 m 0
 -99 668 -116 668 -126 667 c 0
 -137 666 -144 666 -147 666 c 0
 -132 666 -121 662 -112 653 c 0
 -104 644 -99 633 -99 620 c 0
 -98 605 -103 593 -112 583 c 0
 -121 572 -133 566 -148 566 c 0
 -168 565 -184 572 -195 583 c 0
 -207 594 -213 608 -213 627 c 0
 -213 660 -200 683 -174 695 c 0
 -162 700 -146 704 -125 705 c 0
 -104 706 -90 709 -81 712 c 0
 -72 715 -68 724 -68 738 c 1
 -26 738 l 1
 -26 721 -30 706 -38 695 c 0
 -45 683 -57 674 -74 672 c 0
-151 633 m 0
 -162 633 -168 628 -168 617 c 0
 -168 606 -162 600 -151 600 c 0
 -146 600 -142 602 -139 605 c 0
 -136 608 -135 612 -135 617 c 0
 -135 622 -136 625 -139 628 c 0
 -142 631 -146 633 -151 633 c 0
EndSplineSet
EndChar
StartChar: uni0E4D
Encoding: 237 3661 203
Width: 0
Flags: HW
HStem: 402 135<-127.5 -106.5>
VStem: -185 135<461 479>
Fore
-117 537 m 0
 -96 537 -79 530 -67 517 c 0
 -56 504 -50 488 -50 470 c 0
 -50 452 -56 436 -68 422 c 0
 -80 409 -96 402 -117 402 c 0
 -138 402 -155 409 -167 422 c 0
 -179 436 -185 452 -185 470 c 0
 -185 488 -179 504 -167 517 c 0
 -155 530 -138 537 -117 537 c 0
-117 443 m 0
 -109 443 -103 446 -98 451 c 0
 -93 456 -91 463 -91 470 c 0
 -91 477 -93 483 -98 488 c 0
 -103 493 -109 496 -117 496 c 0
 -125 496 -131 494 -136 489 c 0
 -141 484 -143 477 -143 470 c 0
 -143 463 -141 456 -136 451 c 0
 -131 446 -125 443 -117 443 c 0
EndSplineSet
EndChar
StartChar: uni0E4E
Encoding: 238 3662 204
Width: 0
VWidth: 2048
Flags: HW
HStem: 449 40<-182 -168> 550 55<-167 -158> 612 50<-77 -61>
VStem: -251 61<511 520> -141 45<576 601>
Fore
-8 583 m 1
 -15 585 l 2
 -19 587 -22 589 -24 592 c 0
 -29 598 -34 603 -38 606 c 0
 -44 610 -52 612 -61 612 c 0
 -70 612 -78 609 -84 604 c 0
 -92 598 -96 588 -96 576 c 0
 -96 569 -93 561 -88 552 c 0
 -85 550 -84 545 -84 538 c 0
 -84 534 -87 530 -92 526 c 0
 -96 522 -100 521 -104 521 c 0
 -111 521 -118 525 -122 533 c 0
 -127 541 -132 545 -138 547 c 0
 -142 549 -149 550 -158 550 c 0
 -167 550 -174 547 -181 542 c 0
 -188 536 -191 527 -191 517 c 0
 -191 508 -188 502 -184 497 c 0
 -179 491 -174 488 -168 488 c 0
 -160 488 -154 490 -149 493 c 1
 -139 504 l 1
 -122 497 l 1
 -126 472 l 1
 -140 457 -159 449 -182 449 c 0
 -203 449 -220 456 -233 470 c 0
 -246 483 -251 500 -251 520 c 1
 -250 539 l 1
 -250 540 l 1
 -249 546 -246 553 -242 560 c 0
 -234 574 -223 584 -210 593 c 0
 -197 601 -183 605 -167 605 c 0
 -159 605 -150 604 -141 601 c 1
 -141 618 -135 632 -123 644 c 0
 -110 656 -94 662 -77 662 c 0
 -62 662 -48 659 -36 654 c 0
 -23 648 -13 640 -4 627 c 0
 -2 625 0 620 3 612 c 0
 6 607 7 602 7 598 c 0
 7 588 2 583 -8 583 c 1
EndSplineSet
EndChar
StartChar: uni0E4F
Encoding: 239 3663 205
Width: 361
VWidth: 2048
Flags: HW
HStem: 0 43<170 183> 84 45<166 175> 259 41<166 175> 341 43<170 183>
VStem: -21 42<192 204> 63 42<187 196> 233 44<187 196> 320 42<192 204>
Fore
169 259 m 4
 134 259 105 229 105 194 c 0
 105 158 134 129 169 129 c 0
 205 129 233 158 233 194 c 4
 233 229 205 259 169 259 c 4
170 0 m 0
 111 0 64 19 30 57 c 0
 -4 96 -21 141 -21 192 c 0
 -21 245 -4 290 29 328 c 0
 62 365 109 384 170 384 c 0
 210 384 246 375 275 357 c 1
 305 338 326 314 340 286 c 0
 354 257 362 226 362 192 c 0
 362 158 354 126 340 98 c 0
 326 70 305 46 275 27 c 1
 246 9 210 0 170 0 c 0
170 341 m 0
 123 341 86 326 61 297 c 0
 34 267 21 231 21 192 c 0
 21 166 26 142 38 119 c 0
 49 96 66 78 89 64 c 1
 110 50 138 43 170 43 c 0
 202 43 230 50 252 64 c 0
 276 79 293 98 305 120 c 0
 315 141 320 166 320 192 c 0
 320 232 307 267 281 297 c 0
 255 326 218 341 170 341 c 0
170 84 m 0
 148 84 128 89 111 99 c 0
 94 110 83 124 75 140 c 0
 67 157 63 174 63 192 c 0
 63 209 67 227 75 244 c 0
 82 260 94 273 111 284 c 0
 129 294 148 299 170 299 c 0
 192 299 211 294 229 284 c 0
 246 273 257 260 265 244 c 0
 273 227 277 209 277 192 c 0
 277 163 268 138 250 116 c 0
 230 95 203 84 170 84 c 0
EndSplineSet
EndChar
StartChar: uni0E50
Encoding: 240 3664 206
Width: 350
Flags: HW
HStem: -4 51<163.5 190> 194 52<164 190>
VStem: 34 287<110.5 131.5>
Fore
177 -4 m 0
 132 -4 97 9 72 34 c 0
 47 59 34 88 34 121 c 0
 34 142 39 163 50 182 c 0
 61 201 77 217 99 229 c 0
 121 240 147 246 177 246 c 0
 207 246 233 240 255 229 c 0
 277 217 294 201 305 182 c 0
 316 163 321 142 321 121 c 0
 321 100 315 79 304 60 c 0
 293 41 277 26 255 14 c 0
 234 3 208 -4 177 -4 c 0
177 194 m 0
 151 194 131 187 116 172 c 0
 101 157 94 140 94 121 c 0
 94 101 101 84 116 69 c 0
 130 54 150 47 177 47 c 0
 203 47 224 54 239 69 c 0
 254 84 261 101 261 120 c 0
 261 140 254 157 239 172 c 0
 224 187 203 194 177 194 c 0
EndSplineSet
EndChar
StartChar: uni0E51
Encoding: 241 3665 207
Width: 359
Flags: HW
HStem: 201 54<163.5 176>
VStem: 36 55<114 123>
Fore
91 123 m 0
 91 105 96 91 105 80 c 0
 115 69 124 63 133 63 c 1
 129 64 124 68 119 75 c 0
 114 82 111 93 110 110 c 0
 110 127 116 143 129 156 c 0
 142 169 157 176 176 176 c 0
 199 177 217 169 228 156 c 0
 239 143 244 127 244 106 c 0
 244 79 235 56 218 38 c 0
 201 19 176 10 144 10 c 1
 111 13 85 24 65 44 c 0
 45 64 36 91 36 125 c 0
 36 149 42 171 55 191 c 0
 68 211 85 227 107 238 c 0
 128 249 151 255 176 255 c 0
 225 254 263 241 289 216 c 0
 315 190 329 155 329 110 c 0
 330 53 303 5 251 -34 c 1
 215 2 l 1
 232 15 245 31 256 50 c 0
 267 69 272 89 272 110 c 0
 272 128 268 144 261 157 c 0
 254 171 243 181 228 189 c 0
 214 196 197 201 176 201 c 0
 151 201 131 194 116 179 c 0
 100 164 92 146 91 123 c 0
176 130 m 0
 171 130 166 128 163 124 c 0
 159 120 157 116 157 111 c 0
 157 106 159 102 163 97 c 0
 166 93 170 91 176 91 c 0
 183 91 188 93 191 97 c 0
 194 101 196 106 196 111 c 0
 196 116 194 121 190 125 c 0
 187 128 182 130 176 130 c 0
EndSplineSet
EndChar
StartChar: uni0E52
Encoding: 242 3666 208
Width: 427
Flags: HW
HStem: 0 52<160 161 161 290 290 298.5> 65 189<191.5 195.5>
VStem: 48 58<107 119 119 275 275 281.5> 331 59<94 167 167 173.5>
Fore
255 167 m 1
 240 192 224 204 207 204 c 0
 201 204 196 203 192 201 c 0
 189 198 186 196 184 195 c 1
 198 195 210 192 221 186 c 0
 231 180 239 172 245 161 c 0
 250 151 253 140 253 127 c 0
 252 108 245 93 234 82 c 0
 223 71 206 65 185 65 c 0
 165 65 148 72 135 87 c 0
 121 102 114 120 114 142 c 0
 114 174 123 201 140 222 c 0
 157 243 179 254 204 254 c 0
 221 254 235 250 244 243 c 0
 253 236 258 230 261 225 c 1
 264 230 270 236 279 243 c 0
 288 250 302 254 321 254 c 0
 347 254 365 246 375 230 c 0
 385 215 390 198 390 179 c 2
 390 79 l 2
 390 52 383 33 370 20 c 0
 357 7 333 0 300 0 c 2
 161 0 l 2
 119 0 90 8 73 25 c 0
 56 42 48 69 48 106 c 2
 48 275 l 2
 48 288 46 299 43 307 c 0
 40 315 34 323 23 330 c 1
 67 366 l 1
 78 360 88 351 95 339 c 0
 102 326 106 312 106 296 c 2
 106 119 l 2
 106 95 109 78 115 67 c 0
 122 57 137 52 160 52 c 2
 290 52 l 2
 307 52 319 55 324 61 c 0
 329 67 331 78 331 94 c 2
 331 167 l 2
 331 180 330 189 327 194 c 0
 324 199 317 202 308 202 c 0
 299 202 293 200 288 196 c 0
 283 191 280 186 278 179 c 0
 276 172 275 169 274 168 c 2
 255 167 l 1
188 153 m 0
 181 153 175 151 171 146 c 0
 168 142 166 137 166 131 c 0
 166 125 168 120 172 115 c 0
 175 110 181 108 188 108 c 0
 203 109 211 116 211 130 c 0
 211 136 209 141 205 146 c 0
 201 151 195 153 188 153 c 0
EndSplineSet
EndChar
StartChar: uni0E53
Encoding: 243 3667 209
Width: 415
Flags: HW
HStem: -2 20 204 50<129 151.5>
VStem: 37 60<134 144> 193 58<0 144> 323 57
Fore
145 204 m 0
 113 204 97 179 97 129 c 0
 97 130 99 130 102 131 c 0
 104 132 109 133 118 133 c 0
 139 133 156 126 167 112 c 0
 179 98 186 81 185 61 c 0
 185 42 178 27 165 16 c 0
 152 4 135 -2 114 -2 c 0
 63 -2 36 43 37 134 c 0
 37 154 42 173 50 192 c 0
 59 211 71 226 86 237 c 0
 101 248 118 254 139 254 c 0
 164 254 183 249 196 239 c 0
 209 230 217 222 220 215 c 1
 220 217 222 221 227 228 c 0
 231 234 238 240 248 246 c 0
 257 251 270 254 286 254 c 0
 321 254 345 241 359 214 c 0
 373 187 381 154 380 115 c 0
 379 64 370 25 355 0 c 1
 295 0 l 1
 302 9 309 26 314 51 c 0
 320 76 323 100 323 125 c 0
 323 148 320 166 314 180 c 0
 308 194 299 201 286 201 c 0
 272 201 263 196 258 187 c 0
 253 178 251 163 251 144 c 2
 251 0 l 1
 193 0 l 1
 193 146 l 2
 193 163 189 177 180 188 c 0
 171 199 160 204 145 204 c 0
118 87 m 0
 111 87 105 85 102 81 c 0
 98 76 96 71 96 65 c 0
 96 60 98 55 102 50 c 0
 105 45 111 43 118 43 c 0
 125 43 130 45 134 50 c 0
 138 55 140 60 140 65 c 0
 140 71 138 76 135 81 c 0
 131 85 125 87 118 87 c 0
EndSplineSet
EndChar
StartChar: uni0E54
Encoding: 244 3668 210
Width: 423
Flags: HW
HStem: -8 20
VStem: 33 390
Fore
93 122 m 0
 93 96 104 78 123 69 c 0
 142 60 164 56 190 56 c 1
 173 61 161 69 153 81 c 0
 146 92 142 106 142 123 c 0
 142 140 148 155 159 170 c 0
 170 184 186 191 208 191 c 0
 230 191 247 184 258 170 c 0
 270 155 276 140 276 125 c 0
 276 110 273 100 268 93 c 0
 263 86 258 82 255 80 c 1
 264 73 276 68 290 67 c 0
 303 66 318 64 334 62 c 0
 350 59 367 53 385 43 c 1
 363 -8 l 1
 356 -2 346 3 332 7 c 0
 318 10 303 12 287 12 c 0
 272 12 252 10 229 6 c 0
 206 2 184 0 163 0 c 0
 146 0 130 3 115 8 c 0
 100 13 86 21 73 32 c 0
 60 43 51 56 44 72 c 0
 37 87 33 106 33 127 c 0
 33 150 39 172 51 192 c 0
 63 211 81 227 104 239 c 0
 127 250 155 256 186 256 c 0
 192 256 202 255 217 254 c 0
 245 251 263 250 271 250 c 0
 294 251 312 255 325 263 c 0
 338 270 347 284 354 304 c 0
 361 324 365 352 367 389 c 1
 423 383 l 1
 423 370 422 355 420 338 c 0
 418 321 414 301 407 279 c 0
 400 257 389 240 376 228 c 0
 352 206 323 195 290 195 c 0
 280 195 267 196 251 198 c 0
 236 199 223 200 213 201 c 0
 208 202 202 202 193 202 c 0
 164 202 140 196 121 184 c 0
 102 171 92 151 93 122 c 0
209 102 m 0
 222 102 229 109 229 123 c 0
 229 128 227 133 224 137 c 0
 221 141 216 143 209 143 c 0
 202 143 197 141 194 137 c 0
 191 132 189 128 189 123 c 0
 189 118 191 113 194 108 c 0
 197 104 202 102 209 102 c 0
EndSplineSet
EndChar
StartChar: uni0E55
Encoding: 245 3669 211
Width: 435
Flags: HW
HStem: -8 20 195 55<286.5 300.5>
VStem: 35 390
Fore
278 250 m 1
 323 250 350 271 359 314 c 0
 364 338 367 363 369 389 c 1
 425 383 l 1
 425 378 424 369 423 355 c 0
 422 341 420 326 417 311 c 0
 414 296 410 281 403 266 c 0
 397 251 389 238 378 228 c 0
 354 206 325 195 292 195 c 0
 281 195 269 196 254 198 c 0
 239 199 227 200 216 201 c 0
 211 202 205 202 196 202 c 0
 166 202 142 196 124 184 c 0
 105 171 94 151 95 122 c 0
 95 96 106 79 125 70 c 0
 144 61 166 56 192 56 c 1
 175 61 163 69 155 81 c 0
 148 92 144 106 144 123 c 0
 144 140 150 155 161 170 c 0
 172 184 188 191 210 191 c 0
 232 191 249 184 260 170 c 0
 272 155 278 140 278 125 c 0
 278 110 275 100 270 93 c 0
 265 86 260 82 257 80 c 1
 266 73 278 68 292 67 c 0
 305 66 320 64 336 62 c 0
 352 59 369 53 387 43 c 1
 365 -8 l 1
 358 -3 348 2 334 6 c 0
 320 10 305 12 289 12 c 0
 274 12 254 10 231 6 c 0
 208 2 186 0 165 0 c 0
 148 0 132 3 117 8 c 0
 102 13 88 21 75 32 c 0
 62 43 53 56 46 72 c 0
 39 87 35 106 35 127 c 0
 35 172 49 203 78 221 c 0
 106 239 129 249 148 252 c 1
 146 260 145 267 145 274 c 0
 145 294 152 310 166 323 c 0
 179 336 195 342 214 342 c 0
 234 341 250 335 263 322 c 0
 276 309 282 293 282 274 c 0
 282 266 281 258 278 250 c 1
211 102 m 0
 224 102 231 109 231 123 c 0
 231 128 229 133 226 137 c 0
 223 141 218 143 211 143 c 0
 204 143 199 141 195 137 c 0
 192 132 190 128 190 123 c 0
 190 109 197 102 211 102 c 0
213 253 m 0
 220 253 225 255 229 259 c 0
 232 263 234 268 234 273 c 0
 234 279 232 284 229 288 c 1
 225 291 220 293 213 293 c 0
 207 293 202 291 198 287 c 0
 195 283 193 278 193 273 c 0
 193 268 195 264 198 259 c 0
 202 255 207 253 213 253 c 0
EndSplineSet
EndChar
StartChar: uni0E56
Encoding: 246 3670 212
Width: 311
Flags: HW
HStem: -4 20
VStem: 241 58<123.5 132>
Fore
182 55 m 1
 185 55 191 58 200 63 c 0
 210 69 219 78 228 89 c 0
 237 100 241 115 241 132 c 0
 240 158 233 178 219 191 c 0
 205 204 183 211 153 210 c 0
 136 210 121 205 110 198 c 0
 98 191 90 186 86 181 c 1
 64 181 l 1
 63 198 60 218 54 241 c 0
 48 264 41 287 32 310 c 0
 23 332 14 350 6 364 c 1
 56 388 l 1
 63 378 71 357 82 326 c 0
 93 294 101 269 106 250 c 1
 132 261 157 267 181 267 c 0
 206 267 227 262 245 249 c 0
 262 237 276 220 285 200 c 0
 294 179 299 157 299 133 c 0
 299 86 284 52 253 30 c 0
 222 7 188 -4 150 -4 c 0
 134 -4 119 0 104 7 c 0
 89 14 76 24 65 37 c 0
 55 50 50 66 50 83 c 0
 50 102 56 119 68 134 c 0
 80 149 98 157 121 156 c 0
 134 156 146 152 156 146 c 0
 167 141 175 133 180 124 c 0
 185 115 188 105 189 94 c 0
 189 81 188 71 187 66 c 0
 185 61 183 57 182 55 c 1
119 66 m 0
 126 66 131 68 135 73 c 0
 138 77 140 82 140 87 c 0
 140 101 133 108 119 108 c 0
 105 108 98 101 98 87 c 0
 98 82 100 77 104 73 c 0
 107 68 112 66 119 66 c 0
EndSplineSet
EndChar
StartChar: uni0E57
Encoding: 247 3671 213
Width: 430
Flags: HW
HStem: -11 20
VStem: 342 55<260.5 280>
Fore
307 62 m 1
 322 69 332 80 337 97 c 0
 342 114 345 135 345 161 c 0
 345 168 345 175 345 183 c 0
 344 190 344 204 343 224 c 0
 342 243 342 257 342 264 c 0
 342 317 352 354 372 376 c 1
 380 371 388 368 396 363 c 0
 404 359 412 354 420 349 c 1
 405 331 397 301 397 259 c 0
 397 252 398 243 398 234 c 0
 398 225 399 217 399 209 c 0
 399 201 399 194 400 189 c 0
 400 184 400 177 400 166 c 0
 400 139 397 115 392 94 c 0
 387 73 377 55 363 40 c 0
 351 27 335 17 315 8 c 0
 295 -1 279 -8 266 -11 c 1
 233 25 l 1
 242 32 249 42 255 55 c 0
 261 67 266 80 269 94 c 0
 272 107 274 121 274 135 c 0
 274 152 271 166 266 177 c 0
 261 188 252 193 240 193 c 0
 217 193 206 174 206 136 c 1
 160 136 l 1
 159 150 155 163 149 175 c 0
 144 187 135 193 124 193 c 0
 111 193 101 186 93 171 c 0
 85 156 81 142 81 128 c 0
 81 121 82 115 84 112 c 1
 85 114 88 117 93 120 c 0
 98 123 108 124 123 124 c 0
 143 124 159 118 170 105 c 0
 181 92 186 77 186 58 c 0
 186 39 180 24 169 12 c 0
 157 -1 141 -7 120 -7 c 0
 100 -7 83 0 68 13 c 0
 53 26 42 42 35 63 c 0
 28 83 24 104 24 127 c 0
 24 147 29 166 38 185 c 0
 47 202 60 217 76 228 c 0
 91 238 108 243 126 243 c 0
 145 243 159 239 167 232 c 0
 175 225 180 218 182 213 c 1
 185 218 191 225 200 233 c 0
 209 241 223 245 242 245 c 0
 262 245 279 240 292 229 c 0
 305 218 315 205 320 190 c 0
 326 175 329 158 329 140 c 0
 329 125 327 112 324 100 c 0
 320 88 316 78 313 71 c 0
 310 65 308 62 307 62 c 1
 307 62 l 1
121 38 m 0
 127 38 132 40 136 44 c 0
 139 48 141 53 141 58 c 0
 141 63 139 67 136 72 c 0
 132 76 127 78 121 78 c 0
 115 78 110 76 107 72 c 0
 104 68 102 63 102 58 c 0
 102 53 104 48 107 44 c 0
 110 40 115 38 121 38 c 0
EndSplineSet
EndChar
StartChar: uni0E58
Encoding: 248 3672 214
Width: 409
Flags: HW
HStem: 0 247<159 169>
VStem: 33 362
Fore
213 89 m 0
 238 57 261 41 281 41 c 0
 284 41 287 41 290 42 c 0
 292 43 293 44 294 45 c 1
 275 45 260 52 248 65 c 0
 235 78 228 94 229 114 c 0
 229 131 237 145 250 158 c 0
 263 170 278 176 295 176 c 0
 310 176 324 171 336 162 c 0
 348 153 357 140 364 125 c 0
 370 110 373 95 373 79 c 0
 373 54 365 33 348 17 c 0
 331 0 309 -8 284 -8 c 0
 264 -8 246 -4 231 3 c 0
 216 11 197 28 175 53 c 0
 166 64 160 69 156 69 c 0
 151 69 149 65 149 56 c 0
 149 49 151 39 155 28 c 0
 159 17 164 8 169 0 c 1
 99 0 l 1
 55 39 33 82 33 129 c 1
 38 168 54 197 80 217 c 0
 106 237 139 247 179 247 c 0
 186 247 196 246 209 245 c 0
 222 243 234 241 245 240 c 0
 255 239 264 238 271 237 c 0
 277 236 284 236 291 236 c 0
 320 236 336 246 339 267 c 0
 340 272 340 279 340 288 c 0
 340 299 339 309 337 320 c 0
 336 331 334 341 332 351 c 0
 330 361 329 368 328 371 c 1
 383 371 l 1
 386 366 388 352 391 329 c 0
 394 306 396 286 395 269 c 0
 394 238 384 216 369 203 c 0
 354 190 330 184 298 184 c 0
 281 184 256 186 221 191 c 0
 208 193 196 194 185 194 c 0
 160 194 140 190 125 182 c 0
 110 174 100 161 95 144 c 0
 92 133 91 124 91 117 c 0
 91 102 95 90 104 82 c 1
 104 89 106 97 111 108 c 0
 115 119 124 126 138 130 c 1
 155 130 169 126 182 118 c 0
 195 109 205 100 213 89 c 0
294 90 m 0
 301 90 306 92 309 96 c 0
 312 100 314 105 314 110 c 0
 314 116 312 121 309 125 c 0
 306 128 301 130 294 130 c 0
 288 130 283 128 280 125 c 0
 277 121 275 116 275 110 c 0
 275 105 277 100 280 96 c 0
 283 92 288 90 294 90 c 0
EndSplineSet
EndChar
StartChar: uni0E59
Encoding: 249 3673 215
Width: 371
Flags: HW
HStem: -6 20
VStem: 29 335
Fore
100 169 m 0
 89 156 84 140 84 123 c 0
 84 113 86 104 89 95 c 0
 92 86 95 81 96 81 c 1
 99 95 106 107 117 118 c 0
 128 129 143 134 162 134 c 0
 177 134 190 131 200 124 c 0
 209 117 217 109 222 99 c 0
 227 88 229 78 230 67 c 0
 230 45 222 27 207 14 c 0
 192 1 173 -6 150 -6 c 0
 127 -6 103 3 79 19 c 0
 55 35 40 56 33 83 c 0
 30 94 29 107 29 122 c 0
 29 150 36 174 49 195 c 0
 62 216 82 231 107 240 c 0
 120 245 134 248 149 248 c 0
 168 248 183 245 194 238 c 0
 205 231 213 226 217 221 c 1
 220 242 230 252 248 252 c 0
 263 252 275 248 286 240 c 0
 295 233 301 229 304 229 c 0
 310 229 313 241 313 265 c 0
 312 290 308 315 302 338 c 0
 295 361 291 372 290 372 c 2
 345 372 l 1
 348 365 352 354 356 339 c 0
 360 323 364 305 364 284 c 0
 365 248 361 221 356 204 c 0
 351 186 338 176 317 175 c 0
 309 175 299 179 288 186 c 0
 276 193 268 196 264 196 c 0
 261 195 260 192 260 188 c 0
 262 179 265 170 269 163 c 2
 347 22 l 1
 294 -4 l 1
 209 156 l 2
 203 168 195 177 184 183 c 0
 173 189 162 192 150 192 c 0
 129 192 112 184 100 169 c 0
162 45 m 0
 169 45 174 47 177 51 c 0
 180 55 182 60 182 66 c 0
 182 72 180 77 177 81 c 0
 174 84 169 86 162 86 c 0
 155 86 150 84 147 80 c 0
 144 76 142 71 142 66 c 0
 142 61 144 56 147 51 c 0
 150 47 155 45 162 45 c 0
EndSplineSet
EndChar
StartChar: uni0E5A
Encoding: 250 3674 216
Width: 408
VWidth: 2048
Flags: HW
HStem: -24 52<169 189> 251 48<97 99> 347 46<94 97> 381 10G<312 313>
VStem: 220 63<77 203> 320 64<61 319>
Fore
96 347 m 4
 84 347 78 341 73 322 c 5
 74 308 79 303 97 299 c 5
 104 299 110 302 114 305 c 5
 116 310 119 316 120 323 c 5
 118 340 114 345 96 347 c 4
273 374 m 5
 288 383 l 4
 294 387 302 390 312 391 c 4
 313 391 l 4
 338 391 359 383 372 365 c 4
 376 358 379 350 382 339 c 4
 382 338 382 338 382 338 c 4
 384 319 l 4
 384 318 384 318 384 318 c 4
 384 78 l 4
 385 31 361 -3 318 -19 c 4
 317 -19 317 -19 317 -19 c 4
 304 -24 l 4
 299 -24 295 -24 292 -20 c 4
 276 12 l 4
 274 20 269 23 276 27 c 4
 284 29 l 4
 289 30 292 32 295 34 c 4
 312 48 l 4
 316 52 319 58 320 61 c 5
 320 315 l 4
 320 322 318 325 318 326 c 4
 315 330 312 332 302 332 c 4
 292 332 286 326 283 322 c 5
 283 83 l 4
 283 55 275 30 259 9 c 4
 241 -13 217 -24 189 -24 c 4
 186 -24 184 -23 182 -20 c 4
 162 15 l 4
 160 25 160 23 169 27 c 4
 182 27 194 33 208 47 c 4
 215 54 220 65 220 84 c 4
 220 203 l 5
 220 203 220 195 197 184 c 4
 181 172 161 167 136 167 c 4
 96 167 63 182 42 211 c 4
 21 237 12 271 12 311 c 4
 12 312 12 312 12 312 c 4
 14 334 23 353 39 369 c 4
 55 385 75 393 97 393 c 4
 108 393 118 391 124 389 c 5
 149 381 167 366 167 325 c 4
 167 305 161 287 148 273 c 4
 135 259 118 251 98 251 c 4
 80 251 l 5
 79 257 l 5
 84 242 l 5
 88 236 92 232 95 230 c 5
 116 223 l 5
 134 221 l 5
 147 222 156 225 166 233 c 5
 181 250 l 5
 198 278 l 4
 203 288 207 300 209 313 c 5
 214 366 l 4
 214 367 214 367 214 367 c 4
 216 382 229 393 244 392 c 4
 251 392 258 391 264 386 c 4
 266 385 l 4
 272 376 l 4
 272 375 272 375 273 375 c 4
 273 374 l 5
EndSplineSet
EndChar
StartChar: uni0E5B
Encoding: 251 3675 217
Width: 724
VWidth: 2048
Flags: HW
HStem: 25 48<153 161> 150 42<599 717> 153 39<695 717> 222 32<129 132> 315 48<138 145>
VStem: 12 47<188 205> 82 37<196 205> 202 47<228 244>
Fore
173 163 m 1
 192 178 202 203 202 238 c 0
 202 289 181 315 138 315 c 0
 114 315 94 300 79 271 c 0
 65 247 59 221 59 195 c 0
 59 165 67 138 83 114 c 0
 101 87 124 73 153 73 c 0
 193 73 222 96 240 141 c 0
 250 165 260 198 271 240 c 2
 297 340 l 1
 323 340 l 1
 353 209 l 1
 373 325 l 1
 400 325 l 1
 426 204 l 1
 460 312 l 1
 494 212 l 1
 518 289 l 1
 545 226 566 193 580 193 c 2
 599 192 l 1
 717 192 l 1
 717 153 l 1
 586 150 l 1
 556 153 l 1
 549 155 542 160 535 169 c 1
 536 173 l 1
 529 177 l 1
 493 62 l 1
 462 168 l 1
 425 58 l 1
 390 166 l 1
 369 47 l 1
 342 47 l 1
 309 201 l 1
 292 142 276 103 262 82 c 0
 237 44 200 25 153 25 c 0
 108 25 73 43 47 79 c 0
 24 110 12 149 12 196 c 0
 12 238 22 275 43 307 c 0
 66 344 98 363 138 363 c 0
 173 363 201 350 221 325 c 0
 240 302 249 272 249 237 c 0
 249 204 242 177 228 154 c 0
 211 126 187 112 157 112 c 0
 136 112 117 122 101 142 c 1
 88 162 82 180 82 196 c 0
 82 211 86 225 94 235 c 0
 103 248 115 254 130 254 c 0
 146 254 159 248 168 237 c 0
 178 226 182 212 181 196 c 2
 180 179 l 2
 180 174 177 168 173 163 c 1
119 196 m 0
 119 176 125 166 135 166 c 0
 139 166 142 168 142 173 c 1
 144 196 l 1
 146 212 141 221 132 222 c 1
 124 222 119 213 119 196 c 0
EndSplineSet
EndChar
StartChar: uni0E38.low
Encoding: 252 63256 218
Width: 0
Flags: HW
VStem: -109 55<-402 -325 -325 -325>
Fore
-54 -402 m 1
 -109 -402 l 1
 -109 -325 l 1
 -113 -326 -121 -326 -132 -326 c 1
 -150 -323 -164 -316 -174 -303 c 0
 -184 -290 -189 -276 -189 -259 c 0
 -189 -241 -183 -225 -170 -212 c 0
 -158 -199 -141 -192 -120 -192 c 0
 -109 -192 -98 -194 -88 -199 c 0
 -79 -204 -71 -212 -64 -221 c 0
 -58 -231 -54 -242 -54 -254 c 2
 -54 -402 l 1
-121 -286 m 0
 -112 -286 -106 -283 -101 -278 c 0
 -96 -273 -94 -267 -94 -259 c 0
 -94 -252 -96 -245 -101 -240 c 0
 -106 -235 -112 -232 -121 -232 c 0
 -130 -232 -136 -235 -141 -240 c 0
 -146 -246 -148 -252 -148 -259 c 0
 -148 -266 -146 -273 -141 -278 c 0
 -136 -283 -130 -286 -121 -286 c 0
EndSplineSet
EndChar
StartChar: uni0E39.low
Encoding: 253 63257 219
Width: 0
Flags: HW
VStem: -109 55<-342 -196>
Fore
-196 -351 m 2
 -196 -325 l 1
 -200 -326 -207 -326 -217 -326 c 1
 -235 -323 -249 -316 -259 -303 c 0
 -269 -290 -274 -276 -274 -259 c 0
 -274 -241 -268 -225 -255 -212 c 0
 -243 -199 -226 -192 -205 -192 c 0
 -194 -192 -183 -194 -173 -199 c 0
 -164 -204 -156 -212 -149 -221 c 0
 -143 -231 -139 -242 -139 -254 c 2
 -139 -342 l 2
 -139 -353 -134 -359 -123 -359 c 0
 -114 -359 -109 -353 -109 -342 c 2
 -109 -196 l 1
 -54 -196 l 1
 -54 -351 l 2
 -54 -363 -58 -373 -65 -382 c 0
 -72 -391 -81 -397 -92 -401 c 0
 -103 -406 -114 -408 -125 -408 c 0
 -142 -408 -158 -403 -173 -393 c 0
 -188 -382 -196 -368 -196 -351 c 2
-206 -286 m 0
 -198 -286 -192 -283 -187 -278 c 0
 -182 -273 -180 -266 -180 -259 c 0
 -180 -252 -182 -245 -187 -240 c 0
 -192 -235 -198 -232 -206 -232 c 0
 -215 -232 -221 -235 -226 -240 c 0
 -231 -246 -233 -252 -233 -259 c 0
 -233 -266 -231 -273 -226 -278 c 0
 -221 -283 -215 -286 -206 -286 c 0
EndSplineSet
EndChar
StartChar: uni0E3A.low
Encoding: 254 63258 220
Width: 0
Flags: HW
VStem: -116 69<-224.5 -217.5>
Fore
-81 -185 m 0
 -74 -185 -68 -186 -63 -189 c 0
 -58 -192 -54 -197 -51 -203 c 0
 -48 -209 -47 -215 -47 -220 c 0
 -47 -229 -50 -237 -56 -244 c 0
 -62 -251 -70 -254 -81 -254 c 0
 -92 -254 -100 -251 -106 -244 c 0
 -113 -237 -116 -229 -116 -220 c 0
 -116 -211 -113 -202 -106 -195 c 0
 -100 -188 -92 -185 -81 -185 c 0
EndSplineSet
EndChar
StartChar: exclamdown
Encoding: 256 161 221
Width: 129
VWidth: 2048
Flags: HW
HStem: 292 71<14 110>
Fore
110 364 m 1
 110 292 l 1
 14 292 l 1
 14 364 l 1
 110 364 l 1
96 252 m 1
 118 12 l 1
 118 -87 l 1
 7 -87 l 1
 7 12 l 1
 27 252 l 1
 96 252 l 1
EndSplineSet
EndChar
StartChar: cent
Encoding: 257 162 222
Width: 308
VWidth: 2048
Flags: HW
HStem: 3 68<150 161> 299 62<137 147>
VStem: -19 71<160 192>
DStem: 122 38 261 15 37 -225 175 -247 298 610 449 590 158 173 310 149 428 991 564 970 346 736 483 713
Fore
219 288 m 1
 151 73 l 1
 158 71 l 1
 205 71 232 96 240 146 c 1
 310 130 l 1
 302 93 285 62 256 39 c 0
 228 15 192 3 150 3 c 0
 145 3 138 4 130 6 c 2
 127 7 l 1
 85 -121 l 1
 18 -110 l 1
 60 19 l 1
 20 37 -5 70 -14 116 c 0
 -17 134 -19 156 -19 181 c 0
 -19 233 -6 275 21 308 c 0
 50 343 93 361 147 361 c 1
 169 359 l 1
 209 484 l 1
 275 474 l 1
 236 348 l 1
 262 339 280 321 290 295 c 0
 293 288 296 278 298 268 c 1
 301 253 l 1
 235 240 l 1
 229 274 l 1
 229 275 l 1
 229 275 l 1
 229 276 l 1
 229 276 l 1
 227 281 224 285 219 288 c 1
146 298 m 1
 144 299 l 2
 83 300 52 262 52 185 c 0
 52 146 55 120 60 108 c 0
 63 98 69 90 77 84 c 1
 146 298 l 1
EndSplineSet
EndChar
StartChar: sterling
Encoding: 258 163 223
Width: 302
VWidth: 2048
Flags: HW
HStem: -4 52<216 221> 158 48<-7 48 100 181> 316 53<142 159>
VStem: 21 64<255 269> 51 62<127 136>
Fore
100 206 m 1
 181 206 l 1
 181 158 l 1
 108 158 l 1
 111 152 113 143 113 132 c 2
 113 102 l 1
 112 93 103 81 87 66 c 1
 106 71 l 1
 110 71 l 2
 116 71 125 69 136 63 c 0
 142 62 146 60 151 59 c 0
 184 52 206 48 217 48 c 0
 230 48 248 53 271 62 c 1
 284 11 l 1
 256 1 233 -4 216 -4 c 1
 192 -2 l 1
 156 6 l 1
 119 16 l 1
 92 17 l 1
 62 17 34 10 8 -5 c 1
 -14 40 l 1
 29 62 51 94 51 136 c 1
 48 158 l 1
 -7 158 l 1
 -7 206 l 1
 35 206 l 1
 26 233 21 253 21 266 c 0
 21 297 34 322 59 340 c 1
 82 359 112 369 148 369 c 0
 221 369 263 337 273 275 c 1
 216 256 l 1
 210 285 200 302 185 310 c 0
 176 313 165 316 150 316 c 0
 130 316 113 310 98 297 c 0
 90 291 85 280 85 265 c 0
 85 267 85 264 85 255 c 0
 85 247 88 237 93 224 c 0
 95 218 98 211 100 206 c 1
EndSplineSet
EndChar
StartChar: currency
Encoding: 259 164 224
Width: 331
VWidth: 2048
Flags: HW
HStem: 45 77<147 159> 214 81<143 159>
VStem: 22 84<160 172> 201 88<161 172>
Fore
44 229 m 1
 0 269 l 1
 47 315 l 1
 91 274 l 1
 111 286 128 293 143 294 c 2
 143 294 l 2
 145 294 146 294 148 295 c 2
 155 295 l 2
 174 295 192 290 210 279 c 2
 218 274 l 1
 262 315 l 1
 313 268 l 1
 271 228 l 1
 281 212 288 196 289 181 c 1
 289 180 l 1
 289 171 l 2
 289 147 286 131 282 121 c 1
 274 108 l 1
 317 67 l 1
 266 20 l 1
 221 62 l 1
 206 51 187 46 165 45 c 2
 155 45 l 2
 130 45 110 49 96 58 c 0
 93 59 91 61 88 62 c 1
 44 21 l 1
 -5 69 l 1
 39 109 l 1
 28 125 22 142 22 162 c 1
 22 163 l 1
 22 163 l 1
 22 164 l 1
 22 164 l 1
 22 171 l 2
 22 187 27 203 38 219 c 1
 44 229 l 1
106 168 m 0
 106 155 110 144 119 135 c 0
 128 126 140 122 153 122 c 0
 167 122 178 126 187 135 c 0
 196 144 201 155 201 168 c 0
 201 181 196 192 187 201 c 0
 177 209 166 214 153 214 c 0
 140 214 129 209 120 201 c 0
 111 192 106 181 106 168 c 0
EndSplineSet
EndChar
StartChar: yen
Encoding: 260 165 225
Width: 421
VWidth: 2048
Flags: HW
HStem: 0 10G<164 234> 86 61<0 164 234 395> 176 64<0 164 261 395>
VStem: 164 71<0 86 147 176>
DStem: -49 949 130 949 276 491 364 614
Fore
164 0 m 1
 164 86 l 1
 0 86 l 1
 0 147 l 1
 164 147 l 1
 164 176 l 1
 0 176 l 1
 0 240 l 1
 135 240 l 1
 -24 463 l 1
 63 463 l 1
 178 300 l 1
 198 262 l 1
 218 304 l 1
 326 463 l 1
 420 463 l 1
 261 240 l 1
 395 240 l 1
 395 176 l 1
 234 176 l 1
 234 147 l 1
 395 147 l 1
 395 86 l 1
 234 86 l 1
 234 0 l 1
 164 0 l 1
EndSplineSet
EndChar
StartChar: brokenbar
Encoding: 261 166 226
Width: 84
VWidth: 2048
Flags: HW
VStem: 5 70<-144 67 160 371>
Fore
75 371 m 1
 75 160 l 1
 5 160 l 1
 5 371 l 1
 75 371 l 1
75 67 m 1
 75 -144 l 1
 5 -144 l 1
 5 67 l 1
 75 67 l 1
EndSplineSet
EndChar
StartChar: section
Encoding: 262 167 227
Width: 394
VWidth: 2048
Flags: HW
HStem: -112 62<178 194> 461 10G<166 207>
VStem: -14 113<197 209> 269 89<-13 1> 284 101<148 155>
Fore
12 -4 m 1
 97 4 l 1
 110 -17 120 -30 127 -36 c 2
 128 -37 l 2
 138 -43 155 -48 178 -50 c 1
 202 -50 222 -46 240 -38 c 0
 259 -28 269 -16 269 1 c 0
 269 10 264 17 256 23 c 1
 256 23 l 1
 255 23 l 2
 250 28 238 35 218 44 c 1
 126 86 l 2
 83 106 52 123 33 136 c 0
 1 158 -14 183 -14 209 c 0
 -14 251 17 280 79 293 c 1
 43 317 25 342 25 367 c 0
 25 396 42 419 73 438 c 0
 102 454 125 464 142 468 c 0
 151 470 161 471 171 471 c 0
 244 471 295 451 326 412 c 0
 338 396 346 378 350 358 c 1
 269 349 l 1
 258 369 250 382 242 387 c 0
 232 395 217 399 197 401 c 0
 179 402 161 398 140 389 c 1
 127 383 121 371 120 353 c 0
 120 346 125 340 135 334 c 0
 117 344 126 339 165 319 c 2
 175 314 l 1
 241 275 l 1
 289 254 321 238 337 228 c 0
 369 206 385 182 385 155 c 0
 385 117 354 88 292 69 c 1
 335 46 357 18 357 -13 c 0
 357 -44 340 -69 305 -88 c 0
 275 -104 238 -112 194 -112 c 0
 89 -112 28 -76 12 -4 c 1
241 111 m 1
 270 122 284 134 284 149 c 0
 284 166 257 186 203 208 c 1
 179 219 159 229 143 238 c 1
 114 226 99 212 99 197 c 0
 99 181 124 162 173 141 c 0
 205 128 227 118 241 111 c 1
EndSplineSet
EndChar
StartChar: dieresis
Encoding: 263 168 228
Width: 259
VWidth: 2048
Flags: HW
HStem: 384 71<6 92 153 238>
Fore
6 384 m 1
 6 456 l 1
 92 456 l 1
 92 384 l 1
 6 384 l 1
153 384 m 1
 153 456 l 1
 238 456 l 1
 238 384 l 1
 153 384 l 1
EndSplineSet
EndChar
StartChar: copyright
Encoding: 264 169 229
Width: 389
VWidth: 2048
Flags: HW
HStem: -0 51<183 194> 84 46<178 188> 256 51<178 188> 342 51<183 194>
VStem: -17 55<187 203> 78 51<187 197> 328 57<187 203>
Fore
183 393 m 0
 240 393 287 374 326 335 c 1
 365 298 384 251 384 196 c 0
 384 142 365 96 325 57 c 1
 286 19 239 -0 183 -0 c 0
 127 -0 80 18 41 56 c 0
 2 94 -17 141 -17 196 c 0
 -17 251 2 298 40 336 c 0
 79 374 126 393 183 393 c 0
183 342 m 0
 143 342 108 328 81 299 c 0
 52 271 38 236 38 195 c 0
 38 154 52 120 81 92 c 0
 108 64 143 51 183 51 c 0
 224 51 258 64 286 92 c 0
 313 120 328 154 328 195 c 0
 328 236 313 270 286 298 c 0
 257 328 223 342 183 342 c 0
230 169 m 1
 281 155 l 1
 267 107 234 84 183 84 c 0
 150 84 124 94 106 115 c 0
 87 136 78 163 78 196 c 0
 78 229 88 256 107 276 c 0
 126 297 152 307 187 307 c 0
 233 307 263 287 276 245 c 1
 228 226 l 1
 219 246 205 256 183 256 c 0
 166 256 152 250 142 237 c 0
 134 225 129 210 129 192 c 0
 129 151 146 130 181 130 c 0
 207 130 223 143 230 169 c 1
EndSplineSet
EndChar
StartChar: ordfeminine
Encoding: 265 170 230
Width: 182
VWidth: 2048
Flags: HW
HStem: 291 34<67 83> 425 38<84 91>
VStem: -3 52<338 346> 116 48<359 407>
Fore
119 306 m 1
 106 296 92 291 76 291 c 1
 76 291 l 1
 74 291 72 291 69 291 c 2
 62 291 l 2
 19 291 -3 307 -3 341 c 0
 -3 363 10 378 35 386 c 1
 62 391 l 1
 100 396 l 1
 125 401 l 1
 121 413 116 419 109 422 c 0
 105 424 97 425 84 425 c 0
 65 426 53 422 46 414 c 2
 45 414 l 1
 44 413 l 1
 40 407 l 1
 4 415 l 1
 11 447 38 463 84 463 c 0
 137 463 164 444 164 407 c 2
 164 337 l 1
 163 317 167 302 174 294 c 1
 125 294 l 1
 120 303 l 1
 119 306 l 1
116 367 m 1
 77 360 l 2
 59 357 49 351 49 343 c 0
 49 331 58 325 75 325 c 0
 102 325 116 339 116 367 c 1
EndSplineSet
EndChar
StartChar: guillemotleft
Encoding: 266 171 231
Width: 386
VWidth: 2048
Flags: HW
Fore
96 180 m 1
 213 6 l 1
 132 6 l 1
 -13 180 l 1
 132 353 l 1
 214 353 l 1
 96 180 l 1
256 180 m 1
 376 6 l 1
 292 6 l 1
 165 180 l 1
 292 353 l 1
 376 353 l 1
 256 180 l 1
EndSplineSet
EndChar
StartChar: logicalnot
Encoding: 267 172 232
Width: 282
VWidth: 2048
Flags: HW
HStem: 276 45<-9 208>
VStem: 208 66<219 321>
Fore
274 219 m 1
 208 219 l 1
 208 276 l 1
 -9 276 l 1
 -9 321 l 1
 274 321 l 1
 274 219 l 1
EndSplineSet
EndChar
StartChar: uni00AD
Encoding: 268 173 233
Width: 155
VWidth: 2048
Flags: HW
HStem: 141 51<2 145>
Fore
2 141 m 1
 2 192 l 1
 145 192 l 1
 145 141 l 1
 2 141 l 1
EndSplineSet
EndChar
StartChar: registered
Encoding: 269 174 234
Width: 444
VWidth: 2048
Flags: HW
HStem: -11 44<217 239> 100 22<110 121 222 222 359 367> 100 144<196 216> 214 29<196 198> 315 28<113 208> 319 24<113 127> 389 43<217 239>
VStem: -17 51<199 224> 145 52<300 306> 145 53<137 214 139 307> 413 54<211 224>
Fore
467 211 m 0
 467 172 456 135 435 101 c 0
 413 66 383 39 347 20 c 0
 308 -1 267 -11 226 -11 c 0
 185 -11 145 -1 105 20 c 0
 68 40 38 66 17 101 c 0
 -6 137 -17 174 -17 211 c 0
 -17 251 -6 288 17 322 c 1
 36 354 65 381 105 402 c 0
 144 423 184 433 226 433 c 0
 260 433 291 427 319 416 c 0
 349 405 375 389 396 369 c 0
 419 348 436 324 448 297 c 0
 460 271 467 243 467 211 c 0
413 211 m 0
 413 237 409 260 399 280 c 0
 390 300 376 319 358 337 c 0
 340 354 320 367 297 376 c 0
 275 385 250 389 224 389 c 0
 190 389 159 381 130 364 c 1
 100 349 77 328 60 300 c 0
 42 271 34 242 34 210 c 0
 34 180 42 150 60 122 c 0
 75 95 99 73 130 58 c 1
 159 41 190 33 225 33 c 0
 258 33 290 41 318 58 c 1
 348 72 371 94 389 122 c 0
 405 150 413 180 413 211 c 0
197 214 m 1
 197 141 l 2
 197 132 201 126 207 124 c 0
 210 123 215 122 222 122 c 1
 222 100 l 1
 110 100 l 1
 110 122 l 1
 133 122 145 127 145 139 c 2
 145 300 l 2
 145 310 143 315 139 317 c 0
 134 318 125 319 113 319 c 1
 113 344 l 1
 230 344 l 2
 255 344 272 341 284 337 c 1
 301 331 313 323 320 312 c 1
 325 306 328 296 328 284 c 0
 328 265 321 249 307 237 c 0
 292 225 275 219 258 219 c 1
 341 131 l 2
 347 125 355 122 367 122 c 1
 367 100 l 1
 279 100 l 1
 198 214 l 1
 197 214 l 1
196 306 m 2
 196 243 l 1
 215 243 228 244 237 246 c 0
 260 252 271 264 270 284 c 0
 269 302 259 312 241 313 c 0
 237 313 l 2
 208 315 l 2
 200 315 196 312 196 306 c 2
EndSplineSet
EndChar
StartChar: macron
Encoding: 270 175 235
Width: 166
VWidth: 2048
Flags: HW
HStem: 421 37<1 156>
Fore
1 421 m 1
 1 458 l 1
 156 458 l 1
 156 421 l 1
 1 421 l 1
EndSplineSet
EndChar
StartChar: degree
Encoding: 271 176 236
Width: 150
VWidth: 2048
Flags: HW
HStem: 350 33<70 73> 444 33<70 73>
VStem: -6 42<412 415> 105 42<412 415>
Fore
-6 414 m 0
 -6 431 1 446 16 459 c 0
 31 472 49 478 70 478 c 0
 92 478 110 472 125 459 c 0
 140 446 147 431 147 414 c 0
 147 396 140 380 125 368 c 1
 109 355 91 350 70 350 c 0
 49 350 31 355 16 368 c 0
 1 380 -6 396 -6 414 c 0
37 413 m 0
 37 405 40 398 46 392 c 0
 54 386 62 383 70 383 c 0
 80 383 88 386 95 392 c 0
 102 398 105 405 105 413 c 0
 105 421 102 429 95 435 c 0
 88 441 80 444 70 444 c 0
 62 444 54 441 46 436 c 0
 40 429 37 421 37 413 c 0
EndSplineSet
EndChar
StartChar: plusminus
Encoding: 272 177 237
Width: 403
VWidth: 2048
Flags: HW
HStem: 2 75<-16 395> 220 79<-16 143 236 395>
VStem: 143 93<92 220 299 425>
Fore
143 92 m 1
 143 220 l 1
 -16 220 l 1
 -16 299 l 1
 143 299 l 1
 143 425 l 1
 236 425 l 1
 236 299 l 1
 395 299 l 1
 395 220 l 1
 236 220 l 1
 236 92 l 1
 143 92 l 1
395 2 m 1
 -16 2 l 1
 -16 77 l 1
 395 77 l 1
 395 2 l 1
EndSplineSet
EndChar
StartChar: twosuperior
Encoding: 273 178 238
Width: 110
VWidth: 2048
Flags: HW
HStem: 303 31<54 105> 409 31<48 57>
Fore
-6 303 m 1
 -4 318 10 336 38 358 c 2
 61 375 l 2
 70 383 74 391 72 398 c 0
 70 405 63 409 51 409 c 0
 41 409 35 408 32 406 c 2
 24 398 l 1
 -2 401 l 1
 4 427 22 440 53 440 c 0
 86 440 104 428 104 403 c 0
 104 389 102 380 100 375 c 1
 100 375 l 0
 98 373 96 370 94 368 c 0
 89 363 79 355 63 343 c 0
 59 340 56 337 54 334 c 1
 105 334 l 1
 105 303 l 1
 -6 303 l 1
EndSplineSet
EndChar
StartChar: threesuperior
Encoding: 274 179 239
Width: 116
VWidth: 2048
Flags: HW
HStem: 309 24<48 56> 367 10G<44 47> 367 24<48 55> 419 22<53 56>
VStem: 69 35<404 411> 79 31<347 353>
Fore
-1 346 m 1
 32 349 l 1
 35 338 42 333 54 333 c 0
 70 333 79 339 79 352 c 0
 79 362 70 367 53 367 c 2
 47 367 l 1
 44 367 l 1
 48 391 l 1
 62 391 69 396 69 406 c 0
 69 415 64 419 53 419 c 0
 44 419 38 415 34 405 c 1
 2 409 l 1
 10 430 27 441 53 441 c 0
 87 441 104 430 104 409 c 0
 104 396 96 387 79 382 c 1
 100 376 110 365 110 348 c 0
 110 335 104 326 92 319 c 0
 82 312 69 309 55 309 c 0
 23 309 4 321 -1 346 c 1
EndSplineSet
EndChar
StartChar: acute
Encoding: 275 180 240
Width: 134
VWidth: 2048
Flags: HW
HStem: 394 10G<15 64>
Fore
15 394 m 1
 54 456 l 1
 133 456 l 1
 64 394 l 1
 15 394 l 1
EndSplineSet
EndChar
StartChar: mu
Encoding: 276 181 241
Width: 334
VWidth: 2048
Flags: HW
HStem: 10 68<147 164> 351 10G<-8 71 244 323>
VStem: -8 80<-113 53 -113 360> 250 73<19 360>
Fore
323 360 m 1
 323 19 l 1
 250 19 l 1
 250 59 l 1
 233 34 212 19 189 14 c 0
 180 12 170 10 159 10 c 0
 129 10 104 20 84 40 c 0
 80 43 76 48 71 53 c 1
 71 -113 l 1
 -8 -113 l 1
 -8 360 l 1
 71 360 l 1
 71 215 l 2
 71 178 74 151 81 132 c 0
 90 106 104 90 123 84 c 1
 123 84 l 1
 132 81 143 79 155 79 c 0
 186 79 208 89 221 108 c 0
 225 114 229 122 233 131 c 0
 241 150 244 178 244 214 c 2
 244 360 l 1
 323 360 l 1
EndSplineSet
EndChar
StartChar: paragraph
Encoding: 277 182 242
Width: 427
VWidth: 2048
Flags: HW
HStem: 396 80<170 277 170 413>
VStem: 135 88<-76 396> 277 86<-76 396>
Fore
135 -76 m 1
 135 246 l 1
 96 246 62 256 34 276 c 0
 33 276 33 277 32 277 c 0
 3 299 -11 326 -11 358 c 0
 -11 397 6 427 40 448 c 1
 72 466 115 476 170 476 c 2
 413 476 l 1
 413 396 l 1
 363 396 l 1
 363 -76 l 1
 277 -76 l 1
 277 396 l 1
 224 396 l 1
 224 -76 l 1
 135 -76 l 1
EndSplineSet
EndChar
StartChar: periodcentered
Encoding: 278 183 243
Width: 90
VWidth: 2048
Flags: HW
HStem: 210 66<5 80>
Fore
5 210 m 1
 5 276 l 1
 80 276 l 1
 80 210 l 1
 5 210 l 1
EndSplineSet
EndChar
StartChar: cedilla
Encoding: 279 184 244
Width: 169
VWidth: 2048
Flags: HW
HStem: -64 39<38 70> -14 10G<77 77>
Fore
40 -2 m 1
 60 46 l 1
 115 46 l 1
 102 20 l 1
 139 17 158 5 160 -17 c 1
 160 -33 148 -45 123 -54 c 0
 104 -61 81 -64 54 -64 c 0
 34 -64 16 -63 -0 -61 c 1
 3 -25 l 1
 38 -26 l 2
 64 -26 80 -25 83 -23 c 1
 85 -21 l 1
 85 -21 l 1
 87 -14 l 1
 87 -8 83 -5 77 -4 c 1
 77 -4 l 1
 76 -3 l 1
 76 -3 l 1
 76 -3 l 2
 70 -2 58 -2 40 -2 c 1
EndSplineSet
EndChar
StartChar: onesuperior
Encoding: 280 185 245
Width: 125
VWidth: 2048
Flags: HW
VStem: 62 48<291 428>
Fore
62 291 m 1
 62 378 l 1
 41 367 22 360 8 358 c 1
 8 394 l 1
 26 398 44 408 62 422 c 0
 63 423 63 423 63 423 c 0
 64 423 64 423 64 424 c 1
 64 424 l 1
 64 424 l 1
 64 424 l 1
 65 424 l 1
 69 428 l 1
 110 428 l 1
 110 291 l 1
 62 291 l 1
EndSplineSet
EndChar
StartChar: ordmasculine
Encoding: 281 186 246
Width: 138
VWidth: 2048
Flags: HW
HStem: 299 41<64 67> 407 43<64 67>
VStem: -3 44<374 378> 91 45<369 378>
Fore
65 450 m 0
 88 450 105 442 118 427 c 0
 130 413 136 396 136 375 c 0
 136 353 130 336 118 322 c 0
 105 307 88 299 65 299 c 0
 43 299 26 307 13 322 c 0
 2 335 -3 352 -3 374 c 0
 -3 395 2 413 13 426 c 0
 25 442 43 450 65 450 c 0
66 407 m 0
 49 407 41 396 41 374 c 0
 41 352 49 340 66 340 c 0
 83 340 91 352 91 374 c 0
 91 396 83 407 66 407 c 0
EndSplineSet
EndChar
StartChar: guillemotright
Encoding: 282 187 247
Width: 425
VWidth: 2048
Flags: HW
Fore
289 180 m 1
 167 7 l 1
 255 7 l 1
 416 180 l 1
 255 354 l 1
 158 353 l 1
 289 180 l 1
117 180 m 1
 -16 7 l 1
 83 7 l 1
 241 180 l 1
 83 354 l 1
 -16 354 l 1
 117 180 l 1
EndSplineSet
EndChar
StartChar: onequarter
Encoding: 283 188 248
Width: 561
VWidth: 2048
Flags: HW
HStem: -10 10G<434 506> 20 55<366 434 506 527>
VStem: 64 76<212 430> 434 72<-10 20 75 208>
DStem: 825 883 1006 883 69 -35 250 -35 905 426 888 292 644 164 750 154
Fore
34 -17 m 1
 403 431 l 1
 491 431 l 1
 122 -17 l 1
 34 -17 l 1
64 212 m 1
 64 362 l 1
 43 347 27 338 16 334 c 2
 0 330 l 1
 0 376 l 1
 22 382 43 396 64 416 c 2
 77 430 l 1
 140 430 l 1
 140 212 l 1
 64 212 l 1
434 -10 m 1
 434 20 l 1
 314 20 l 1
 314 80 l 1
 442 208 l 1
 506 208 l 1
 506 75 l 1
 527 75 l 1
 527 20 l 1
 506 20 l 1
 506 -10 l 1
 434 -10 l 1
434 75 m 1
 434 143 l 1
 366 75 l 1
 434 75 l 1
EndSplineSet
EndChar
StartChar: onehalf
Encoding: 284 189 249
Width: 562
VWidth: 2048
Flags: HW
HStem: -19 51<432 519>
VStem: 66 75<212 430> 349 169<-19 -10> 464 53<123 140>
DStem: 825 884 999 884 69 -35 243 -35 933 223 1010 171 825 143 914 91
Fore
34 -17 m 1
 403 432 l 1
 488 432 l 1
 119 -17 l 1
 34 -17 l 1
66 212 m 1
 66 362 l 1
 44 347 27 337 13 333 c 2
 1 330 l 1
 1 376 l 1
 24 383 46 396 68 418 c 2
 79 430 l 1
 141 430 l 1
 141 212 l 1
 66 212 l 1
349 -19 m 1
 349 13 367 42 403 70 c 1
 456 109 l 1
 461 114 464 119 464 123 c 0
 463 134 460 141 457 143 c 0
 454 146 447 147 437 148 c 1
 419 146 410 143 408 135 c 1
 408 135 l 1
 407 133 l 1
 355 136 l 1
 365 178 393 199 438 199 c 0
 491 199 518 179 518 140 c 0
 518 121 509 102 493 83 c 1
 446 44 l 1
 432 33 l 1
 519 33 l 1
 519 -19 l 1
 349 -19 l 1
EndSplineSet
EndChar
